<?xml version="1.0" encoding="UTF-8" standalone="no"?>
<!-- Created with Inkscape (http://www.inkscape.org/) -->

<svg
   width="512"
   height="512"
   viewBox="0 0 135.46667 135.46667"
   version="1.1"
   id="svg6621"
   sodipodi:docname="favicon.svg"
   inkscape:version="1.2.2 (b0a8486541, 2022-12-01)"
   xmlns:inkscape="http://www.inkscape.org/namespaces/inkscape"
   xmlns:sodipodi="http://sodipodi.sourceforge.net/DTD/sodipodi-0.dtd"
   xmlns="http://www.w3.org/2000/svg"
   xmlns:svg="http://www.w3.org/2000/svg">
  <sodipodi:namedview
     id="namedview6623"
     pagecolor="#505050"
     bordercolor="#eeeeee"
     borderopacity="1"
     inkscape:showpageshadow="0"
     inkscape:pageopacity="0"
     inkscape:pagecheckerboard="0"
     inkscape:deskcolor="#505050"
     inkscape:document-units="mm"
     showgrid="false"
     inkscape:zoom="0.74742565"
     inkscape:cx="397.36394"
     inkscape:cy="346.52276"
     inkscape:window-width="1920"
     inkscape:window-height="1011"
     inkscape:window-x="0"
     inkscape:window-y="32"
     inkscape:window-maximized="1"
     inkscape:current-layer="layer1" />
  <defs
     id="defs6618" />
  <g
     inkscape:label="Layer 1"
     inkscape:groupmode="layer"
     id="layer1">
    <path
       style="fill:#39556e;stroke-width:0.396875;fill-opacity:1"
       id="path6918"
       sodipodi:type="arc"
       sodipodi:cx="67.73333"
       sodipodi:cy="67.73333"
       sodipodi:rx="67.73333"
       sodipodi:ry="67.73333"
       sodipodi:start="0"
       sodipodi:end="6.2797909"
       sodipodi:open="true"
       sodipodi:arc-type="arc"
       d="M 135.46666,67.73333 A 67.73333,67.73333 0 0 1 67.790808,135.46664 67.73333,67.73333 0 0 1 9.7552906e-5,67.848287 67.73333,67.73333 0 0 1 67.560894,2.1949397e-4 67.73333,67.73333 0 0 1 135.46627,67.503416" />
    <g
       id="g5684"
       transform="matrix(0.26458333,0,0,0.26458333,171.04115,21.343665)"
       style="fill:#39556e;fill-opacity:1">
	<path
   class="st1"
   d="m -377.35752,273.74964 h -24.73494 l -83.00028,-172.83722 h 27.19306 l 68.55878,145.64417 66.59993,-145.64417 h 26.92421 l -51.66179,109.50444 z"
   id="path5676"
   style="fill:#ffffff;fill-opacity:1;stroke-width:3.84083"
   sodipodi:nodetypes="ccccccccc" />

	
	
	
<g
   id="g7451"
   transform="matrix(1.5140786,0,0,1.5140786,-649.38927,173.90098)">
  <path
     class="st2"
     d="m 276.98195,75.1895 c -23.37,33.19 -61.98,54.87 -105.65,54.87 -43.67,0 -82.280001,-21.68 -105.650001,-54.87"
     id="path5698"
     style="fill:none;stroke:#ffffff;stroke-width:12;stroke-miterlimit:10;stroke-opacity:1" />
  <path
     class="st2"
     d="m 60.721949,-65.6905 c 22.6,-37.44 63.680001,-62.48 110.610001,-62.48 46.51,0 87.28,24.59 110.01,61.49"
     id="path5700"
     style="fill:none;stroke:#ffffff;stroke-width:12;stroke-miterlimit:10;stroke-opacity:1" />
  <path
     class="st3"
     d="m 260.90195,75.1895 c -21.34,25.73 -53.56,42.12 -89.61,42.12 -36.05,0 -68.26,-16.38 -89.600001,-42.12"
     id="path5702"
     style="fill:none;stroke:#ffffff;stroke-width:6;stroke-miterlimit:10;stroke-opacity:1" />
  <path
     class="st3"
     d="m 76.081949,-65.9605 c 21.06,-29.91 55.860001,-49.46 95.220001,-49.46 39.36,0 74.16,19.54 95.22,49.46"
     id="path5704"
     style="fill:none;stroke:#ffffff;stroke-width:6;stroke-miterlimit:10;stroke-opacity:1" />
</g>
</g>
  </g>
</svg>
