<?xml version="1.0" encoding="utf-8"?>
<!-- Generator: Adobe Illustrator 22.1.0, SVG Export Plug-In . SVG Version: 6.00 Build 0)  -->
<svg version="1.1" id="Layer_1" xmlns="http://www.w3.org/2000/svg" xmlns:xlink="http://www.w3.org/1999/xlink" x="0px" y="0px"
	 viewBox="0 0 149.3 35.9" style="enable-background:new 0 0 149.3 35.9;" xml:space="preserve">
<style type="text/css">
	.st0{fill:#3F3F3F;}
	.st1{fill:#099BC3;}
</style>
<g transform="matrix(1.3333 0 0 -1.3333 0 384)">
	<g transform="translate(-35.187 26.247)">
		<g>
			<g>
				<g transform="translate(916.04 117.76)">
					<path class="st0" d="M-780.4,127.6l2,2c0,3.3-2.7,5.9-6,5.9s-6-2.6-6-5.9c0-3.3,2.7-5.9,6-5.9h4c1.1,0,2,0.9,2,2
						C-778.5,126.8-779.4,127.6-780.4,127.6 M-782.8,130.4l-2.4-2.4c-0.1-0.1-0.2-0.1-0.3-0.1c-0.1,0.1-0.2,0.2-0.3,0.3
						c-0.8,0.8-0.8,2,0,2.8c0.8,0.8,2,0.8,2.8,0c0.1-0.1,0.2-0.2,0.3-0.3C-782.7,130.6-782.7,130.5-782.8,130.4"/>
				</g>
				<g transform="translate(872.89 119.79)">
					<path class="st0" d="M-742.2,125.9c-0.6,0.3-1.1,1-1.1,1.8c0,1.1,0.9,2,2,2c0.8,0,1.4-0.4,1.8-1.1L-742.2,125.9z M-737.4,125.6
						l2,2c0,3.3-2.6,5.9-5.9,5.9c-3.3,0-5.9-2.6-5.9-5.9c0-3.3,2.6-5.9,5.9-5.9h3.9c1.1,0,2,0.9,2,2
						C-735.4,124.7-736.3,125.6-737.4,125.6"/>
				</g>
				<g transform="translate(374.16 135.1)">
					<path class="st0" d="M-300.3,112.3c0,3.3-2.6,5.9-5.9,5.9h-2v-1.5c-0.2,0.9-1,1.5-1.9,1.5c-1.1,0-2-0.9-2-2v-7.9
						c0-1.1,0.9-2,2-2s2,0.9,2,2v3.9c0,1.1,0.9,2,2,2s1.9-0.9,1.9-2v-3.9c0-1.1,0.9-2,2-2s2,0.9,2,2v4H-300.3z"/>
				</g>
				<g transform="translate(817.48 135.1)">
					<path class="st0" d="M-693.1,112.3c0,3.3-2.6,5.9-5.9,5.9h-2v-1.5c-0.2,0.9-1,1.5-1.9,1.5c-1.1,0-2-0.9-2-2v-7.9
						c0-1.1,0.9-2,2-2s2,0.9,2,2v3.9c0,1.1,0.9,2,2,2s1.9-0.9,1.9-2v-3.9c0-1.1,0.9-2,2-2s2,0.9,2,2L-693.1,112.3L-693.1,112.3z"/>
				</g>
				<g transform="translate(586.74 185.31)">
					<path class="st0" d="M-488.7,67.8c-1,0.5-2.2,0.1-2.7-0.9l-2.2-4.4l-2.2,4.4c-0.5,1-1.7,1.4-2.7,0.9s-1.4-1.7-0.9-2.7l3.9-7.8
						c0.4-0.7,0.9-1.2,1.8-1.2l0,0l0,0c0.9,0,1.5,0.6,1.8,1.2l3.9,7.8C-487.3,66.1-487.7,67.3-488.7,67.8"/>
				</g>
				<g transform="translate(702.26 134.79)">
					<path class="st0" d="M-591,112.6c0,3.3-2.7,5.9-5.9,5.9c-3.3,0-5.9-2.7-5.9-5.9c0-3.3,2.7-5.9,5.9-5.9h2v1.5
						c0.2-0.9,1-1.5,1.9-1.5c1.1,0,2,0.9,2,2V112.6 M-597,110.6c-1.1,0-2,0.9-2,2s0.9,2,2,2c1.1,0,2-0.9,2-2
						C-595,111.5-595.9,110.6-597,110.6"/>
				</g>
				<g transform="translate(436.75 117.73)">
					<path class="st0" d="M-355.8,127.7c-1.1,0-2,0.9-2,2c0,1.1,0.9,2,2,2s2-0.9,2-2C-353.8,128.6-354.7,127.7-355.8,127.7
						 M-355.8,135.6c-3.3,0-5.9-2.7-5.9-5.9c0-3.2,2.7-5.9,5.9-5.9c3.3,0,5.9,2.7,5.9,5.9C-349.9,132.9-352.5,135.6-355.8,135.6"/>
				</g>
				<g transform="translate(199.91 136.05)">
					<path class="st1" d="M-145.9,111.4c-3.5,0-6.3-2.8-6.3-6.3s2.8-6.3,6.3-6.3s6.3,2.8,6.3,6.3S-142.4,111.4-145.9,111.4
						 M-145.9,103.1c-1.2,0-2.1,0.9-2.1,2.1c0,1.2,0.9,2.1,2.1,2.1s2.1-0.9,2.1-2.1C-143.8,104-144.7,103.1-145.9,103.1"/>
				</g>
				<g transform="translate(199.91 261.7)">
					<path class="st1" d="M-145.9,0.1c-3.5,0-6.3-2.8-6.3-6.3s2.8-6.3,6.3-6.3s6.3,2.8,6.3,6.3C-139.6-2.7-142.4,0.1-145.9,0.1
						 M-145.9-8.2c-1.2,0-2.1,0.9-2.1,2.1s0.9,2.1,2.1,2.1s2.1-0.9,2.1-2.1S-144.7-8.2-145.9-8.2"/>
				</g>
				<g transform="translate(90.707 198.4)">
					<path class="st1" d="M-49.2,56.2c-3.5,0-6.3-2.8-6.3-6.3s2.8-6.3,6.3-6.3s6.3,2.8,6.3,6.3S-45.7,56.2-49.2,56.2 M-49.2,47.9
						c-1.2,0-2.1,0.9-2.1,2.1c0,1.2,0.9,2.1,2.1,2.1s2.1-0.9,2.1-2.1S-48,47.9-49.2,47.9"/>
				</g>
				<g transform="translate(982.5 100.61)">
					<path class="st0" d="M-839.3,142.8c0-1.1-0.9-2-2-2s-2,0.9-2,2v12.4c0,1.1,0.9,2,2,2s2-0.9,2-2v-2.5h2c1.1,0,2-0.9,2-2
						s-0.9-2-2-2s-2-0.9-2-2V142.8z"/>
				</g>
			</g>
		</g>
	</g>
</g>
</svg>
