<?xml version="1.0" encoding="UTF-8" standalone="no"?>
<!-- Created with Inkscape (http://www.inkscape.org/) -->

<svg
   width="52.916668mm"
   height="17.361286mm"
   viewBox="0 0 52.916668 17.361286"
   version="1.1"
   id="svg2137"
   xmlns="http://www.w3.org/2000/svg"
   xmlns:svg="http://www.w3.org/2000/svg">
  <defs
     id="defs2134">
    <clipPath
       clipPathUnits="userSpaceOnUse"
       id="clipPath64">
      <path
         d="M 0,1080 H 1080 V 0 H 0 Z"
         id="path62" />
    </clipPath>
  </defs>
  <g
     id="layer1"
     transform="translate(-5.8698287,-51.451792)">
    <g
       id="g2797"
       transform="matrix(0.18211317,0,0,0.18211317,4.8008556,42.081743)">
      <g
         id="g54"
         transform="matrix(0.35277777,0,0,-0.35277777,20.55656,111.80586)"
         style="display:inline">
        <path
           d="m 0,0 h -6.437 l -21.607,44.998 h 7.075 L -3.123,7.075 14.214,44.998 h 7.011 z"
           style="fill:#39556e;fill-opacity:1;fill-rule:nonzero;stroke:none"
           id="path56" />
      </g>
      <g
         id="g58"
         style="display:inline"
         transform="matrix(0.35277777,0,0,-0.35277777,-37.93978,289.61792)">
        <g
           id="g60"
           clip-path="url(#clipPath64)">
          <g
             id="g66"
             transform="translate(229.2959,540.4912)">
            <path
               d="m 0,0 c -2.549,3.187 -6.884,3.187 -10.517,3.187 h -20.076 v -16.253 h 20.778 c 3.505,0 7.33,0.128 9.752,3.123 0.701,0.829 1.657,2.422 1.657,5.099 C 1.594,-4.016 1.53,-1.912 0,0 m 3.824,-15.36 c -3.887,-2.996 -8.095,-3.06 -12.747,-3.06 H -30.529 V -36.457 H -37.03 V 8.541 h 27.534 c 1.146,0 2.294,-0.064 3.441,-0.128 1.976,-0.191 8.477,-0.446 12.301,-5.927 1.53,-2.231 2.295,-4.972 2.295,-7.713 0,-1.784 -0.319,-6.819 -4.717,-10.133"
               style="fill:#39556e;fill-opacity:1;fill-rule:nonzero;stroke:none"
               id="path68" />
          </g>
          <g
             id="g70"
             transform="translate(261.8008,542.5942)">
            <path
               d="m 0,0 -11.218,-22.308 h 22.244 z m 19.248,-38.56 -5.481,11.09 h -27.662 l -5.481,-11.09 h -7.202 L -3.251,6.437 h 6.82 L 26.642,-38.56 Z"
               style="fill:#39556e;fill-opacity:1;fill-rule:nonzero;stroke:none"
               id="path72" />
          </g>
          <g
             id="g74"
             transform="translate(334.7129,510.0889)">
            <path
               d="m 0,0 c -4.016,-5.608 -11.6,-6.501 -13.257,-6.692 -1.02,-0.127 -3.634,-0.446 -6.501,-0.446 -1.275,0 -6.82,0.127 -11.6,1.338 -1.02,0.255 -2.614,0.637 -4.844,1.593 -2.359,1.02 -3.951,2.167 -4.717,2.741 -2.422,1.849 -3.505,3.506 -4.206,4.526 l 5.928,2.421 c 0.318,-0.382 0.573,-0.701 0.955,-1.083 0.956,-0.956 3.059,-2.613 6.182,-3.888 5.164,-2.103 11.282,-2.167 12.748,-2.167 1.147,0 7.903,-0.191 12.237,3.059 2.678,2.04 3.059,4.845 3.059,6.056 0,2.612 -1.465,4.524 -3.824,5.544 -3.314,1.466 -11.09,1.913 -14.659,2.231 -8.605,0.701 -12.811,1.147 -16.125,4.206 -3.06,2.805 -3.187,5.992 -3.187,7.521 0,6.311 4.334,9.179 6.247,10.198 2.676,1.466 7.584,2.932 14.85,2.932 8.923,0 14.277,-2.167 17.527,-4.27 0.765,-0.51 1.402,-0.956 2.04,-1.53 1.465,-1.211 2.549,-2.804 2.931,-3.25 L -4.079,28.682 C -4.397,29 -5.545,30.147 -6.82,31.04 c -2.486,1.721 -6.756,3.76 -13.83,3.76 -4.589,0 -8.159,-0.828 -9.816,-1.466 -3.888,-1.466 -4.972,-4.143 -4.972,-6.055 0,-0.956 0.255,-1.976 0.765,-2.804 1.594,-2.55 4.78,-2.805 7.394,-3.123 4.971,-0.638 9.943,-0.893 14.914,-1.466 6.947,-0.829 10.135,-2.614 12.302,-5.29 C 2.167,11.728 2.294,8.859 2.294,7.521 2.294,3.697 0.893,1.211 0,0"
               style="fill:#39556e;fill-opacity:1;fill-rule:nonzero;stroke:none"
               id="path76" />
          </g>
          <g
             id="g78"
             transform="translate(152.1494,561.0117)">
            <path
               d="M 0,0 V 1.978 C -0.306,1.672 -0.612,1.386 -0.958,1.142 -1.773,0.571 -3.649,-0.326 -6.279,-0.326 c -3.873,0 -5.952,1.998 -6.829,3.201 -0.49,0.652 -1.407,2.16 -1.407,4.362 0,0.693 0.102,2.385 1.182,4.016 0.286,0.428 0.571,0.774 0.938,1.121 0.979,0.918 3.079,2.365 6.483,2.365 0.815,0 2.772,-0.061 4.81,-1.121 1.04,-0.53 1.612,-1.081 1.938,-1.448 0.326,-0.346 0.469,-0.509 0.855,-1.223 l -1.997,-0.612 c -0.143,0.205 -0.346,0.551 -0.775,0.959 -0.692,0.632 -2.242,1.692 -4.689,1.692 -0.448,0 -1.569,-0.041 -2.751,-0.449 -2.345,-0.815 -3.813,-2.691 -3.813,-5.219 0,-1.284 0.469,-2.752 1.305,-3.751 1.692,-2.058 4.444,-2.181 5.198,-2.181 1.998,0 4.24,0.856 5.321,2.63 0.387,0.652 0.469,1.142 0.571,1.855 h -6.34 V 7.583 H 1.773 V 0 Z"
               style="fill:#7b7a7a;fill-opacity:1;fill-rule:nonzero;stroke:none"
               id="path80" />
          </g>
          <g
             id="g82"
             transform="translate(196.373,572.5093)">
            <path
               d="m 0,0 c -0.611,1.081 -1.569,1.182 -2.69,1.182 h -7.911 v -5.219 h 7.116 c 1.162,0 2.527,0.041 3.322,1.061 0.204,0.244 0.53,0.733 0.53,1.569 C 0.367,-1.142 0.347,-0.591 0,0 m 1.244,-11.498 -4.872,5.769 h -6.952 v -5.769 h -2.059 V 2.895 h 9.806 c 1.223,0 1.671,-0.062 2.283,-0.225 1.937,-0.509 3.037,-2.018 3.037,-3.995 0,-0.775 -0.163,-2.793 -2.324,-3.69 -0.366,-0.143 -0.754,-0.265 -1.569,-0.387 l 5.32,-6.096 z"
               style="fill:#7b7a7a;fill-opacity:1;fill-rule:nonzero;stroke:none"
               id="path84" />
          </g>
          <g
             id="g86"
             transform="translate(243.0439,564.0493)">
            <path
               d="m 0,0 c -1.121,-2.732 -4.321,-3.384 -6.931,-3.384 -0.693,0 -3.323,-0.021 -5.361,1.406 -0.856,0.592 -1.244,1.224 -1.447,1.591 -0.572,1.059 -0.613,2.12 -0.613,3.282 v 8.46 h 2.06 V 2.813 c 0,-0.163 -0.021,-0.774 0.081,-1.345 0.204,-1.325 0.877,-1.794 1.387,-2.12 0.713,-0.449 1.895,-0.959 3.914,-0.959 0.264,0 2.69,0 4.077,1.02 0.489,0.367 0.774,0.856 0.855,1.039 0.327,0.673 0.327,1.346 0.327,2.1 v 8.807 H 0.408 V 2.691 C 0.408,1.733 0.388,0.917 0,0"
               style="fill:#7b7a7a;fill-opacity:1;fill-rule:nonzero;stroke:none"
               id="path88" />
          </g>
          <g
             id="g90"
             transform="translate(285.4746,572.6724)">
            <path
               d="m 0,0 c -0.815,1.019 -2.202,1.019 -3.364,1.019 h -6.421 v -5.198 h 6.645 c 1.121,0 2.345,0.041 3.119,0.999 0.225,0.265 0.531,0.774 0.531,1.631 C 0.51,-1.284 0.489,-0.612 0,0 m 1.223,-4.913 c -1.244,-0.958 -2.589,-0.979 -4.077,-0.979 h -6.911 v -5.769 h -2.08 V 2.732 h 8.807 c 0.367,0 0.734,-0.021 1.101,-0.041 0.632,-0.061 2.711,-0.143 3.935,-1.896 0.489,-0.713 0.733,-1.59 0.733,-2.466 0,-0.572 -0.101,-2.182 -1.508,-3.242"
               style="fill:#7b7a7a;fill-opacity:1;fill-rule:nonzero;stroke:none"
               id="path92" />
          </g>
          <g
             id="g94"
             transform="translate(331.0645,570.7153)">
            <path
               d="M 0,0 C -1.55,3.323 -5.646,3.302 -6.462,3.282 -7.074,3.262 -9.663,3.119 -11.335,1.447 -11.62,1.162 -12.19,0.53 -12.537,-0.489 c -0.225,-0.653 -0.326,-1.407 -0.326,-2.1 0,-0.53 0.06,-2.079 1.039,-3.405 0.204,-0.264 0.51,-0.631 1.141,-1.08 0.836,-0.591 2.244,-1.243 4.628,-1.243 0.388,0 1.346,0 2.426,0.285 2.019,0.53 3.486,1.875 3.976,3.914 0.06,0.285 0.183,0.877 0.183,1.611 C 0.53,-1.284 0.204,-0.428 0,0 m 0.714,-7.604 c -0.999,-1.04 -3.201,-2.487 -6.81,-2.487 -0.366,0 -1.202,0.02 -2.201,0.183 -0.978,0.143 -3.893,0.673 -5.565,3.364 -0.979,1.59 -1.04,3.221 -1.04,3.874 0,1.651 0.428,3.302 1.447,4.587 0.204,0.264 0.47,0.57 1.04,1.039 0.978,0.815 2.956,2.079 6.197,2.079 0.653,0 2.61,-0.061 4.465,-0.917 C -0.571,3.567 0.57,2.67 1.325,1.59 2.508,-0.123 2.589,-2.018 2.589,-2.711 2.589,-3.547 2.467,-5.79 0.714,-7.604"
               style="fill:#7b7a7a;fill-opacity:1;fill-rule:nonzero;stroke:none"
               id="path96" />
          </g>
          <g
             id="g98"
             transform="translate(424.0195,565.5649)">
            <path
               d="m 0,0 c -1.439,1.8 -3.887,1.8 -5.938,1.8 h -11.339 v -9.179 h 11.734 c 1.98,0 4.14,0.072 5.508,1.764 C 0.36,-5.147 0.9,-4.248 0.9,-2.736 0.9,-2.268 0.864,-1.08 0,0 m 2.16,-8.675 c -2.195,-1.692 -4.571,-1.728 -7.199,-1.728 h -12.202 v -10.186 h -3.672 V 4.823 h 15.55 c 0.648,0 1.296,-0.035 1.944,-0.072 1.115,-0.107 4.787,-0.251 6.947,-3.347 0.864,-1.26 1.296,-2.808 1.296,-4.356 0,-1.007 -0.18,-3.851 -2.664,-5.723"
               style="fill:#7b7a7a;fill-opacity:1;fill-rule:nonzero;stroke:none"
               id="path100" />
          </g>
          <g
             id="g102"
             transform="translate(441.6611,559.8057)">
            <path
               d="m 0,0 c -0.611,0 -4.644,0.108 -5.795,-3.06 -0.252,-0.755 -0.288,-1.475 -0.288,-2.267 v -9.503 h -3.42 V 2.736 h 3.384 l 0.036,-1.98 c 0.252,0.252 0.432,0.468 0.972,0.828 0.9,0.612 2.987,1.656 5.795,1.656 1.008,0 1.584,-0.18 2.016,-0.288 V -0.396 C 2.052,-0.216 1.368,0 0,0"
               style="fill:#7b7a7a;fill-opacity:1;fill-rule:nonzero;stroke:none"
               id="path104" />
          </g>
          <g
             id="g106"
             transform="translate(464.6641,556.8179)">
            <path
               d="m 0,0 c -2.052,3.384 -6.623,3.348 -7.415,3.348 -2.052,-0.036 -4.104,-0.54 -5.688,-1.908 -1.368,-1.152 -2.124,-2.808 -2.124,-4.644 0,-0.611 0.073,-1.979 1.044,-3.311 1.008,-1.368 3.204,-3.024 7.2,-3.024 1.727,0 3.42,0.396 4.931,1.368 0.865,0.54 2.88,2.088 2.88,5.111 0,0.504 -0.072,1.8 -0.828,3.06 m 3.023,-7.667 c -1.259,-2.052 -4.427,-4.715 -10.186,-4.715 -0.649,0 -2.735,0.036 -4.716,0.611 -1.583,0.469 -6.803,2.484 -6.803,8.352 0,0.899 0.109,2.843 1.369,4.859 2.878,4.536 8.71,4.715 10.042,4.715 0.828,0 3.851,-0.072 6.443,-1.295 0.396,-0.18 1.008,-0.468 1.8,-1.116 0.504,-0.396 1.08,-0.972 1.475,-1.44 0.685,-0.828 1.8,-2.628 1.8,-5.435 0,-0.72 -0.071,-2.664 -1.224,-4.536"
               style="fill:#7b7a7a;fill-opacity:1;fill-rule:nonzero;stroke:none"
               id="path108" />
          </g>
          <g
             id="g110"
             transform="translate(493.6074,548.3594)">
            <path
               d="m 0,0 c -1.116,-1.512 -2.952,-2.484 -3.384,-2.7 -1.187,-0.54 -3.311,-1.296 -6.479,-1.296 -3.419,0 -7.271,0.792 -9.574,3.528 -1.945,2.303 -2.016,4.859 -2.016,5.975 0,1.836 0.395,3.347 1.475,4.86 0.18,0.216 0.541,0.719 1.081,1.259 1.439,1.368 4.319,3.06 9.142,3.06 0.936,0 4.283,-0.036 6.984,-1.728 0.431,-0.252 1.223,-0.756 2.051,-1.656 0.612,-0.683 0.9,-1.152 1.367,-1.944 L -2.628,8.423 c -0.468,0.792 -0.792,1.152 -1.08,1.439 -2.087,2.016 -5.291,2.124 -6.047,2.124 -0.828,0 -3.239,-0.108 -5.327,-1.511 -2.483,-1.692 -2.735,-4.14 -2.735,-5.256 0,-0.54 0.071,-1.872 0.863,-3.167 0.9,-1.405 3.132,-3.312 7.235,-3.312 0.648,0 3.78,0.072 5.94,1.836 0.611,0.504 0.899,0.936 1.331,1.584 L 0.828,1.295 C 0.54,0.864 0.288,0.396 0,0"
               style="fill:#7b7a7a;fill-opacity:1;fill-rule:nonzero;stroke:none"
               id="path112" />
          </g>
          <g
             id="g114"
             transform="translate(512.0762,559.4097)">
            <path
               d="m 0,0 c -0.288,0.18 -0.937,0.576 -1.872,0.864 -0.468,0.144 -1.189,0.288 -2.34,0.288 -2.664,0 -5.111,-0.972 -6.587,-3.312 -0.288,-0.432 -0.36,-0.54 -0.684,-1.332 H 2.591 C 1.835,-1.404 0.863,-0.576 0,0 m -11.591,-6.047 c 0.252,-1.692 0.576,-2.844 1.836,-4.032 0.863,-0.828 2.808,-2.159 5.867,-2.159 2.088,0 4.175,0.648 5.616,2.196 0.503,0.539 0.719,0.971 1.08,1.619 l 3.275,-0.9 c -0.252,-0.54 -0.54,-1.08 -0.9,-1.584 -1.116,-1.619 -2.915,-2.555 -3.455,-2.807 -0.972,-0.468 -3.168,-1.26 -6.083,-1.26 -5.688,0 -10.728,3.167 -10.763,9.467 0,0.54 0.071,1.836 0.611,3.276 1.764,4.643 6.444,5.543 7.883,5.759 0.396,0.072 1.188,0.18 2.196,0.18 1.512,0 5.904,-0.216 8.819,-3.924 0.54,-0.684 1.692,-2.196 1.98,-4.499 0.071,-0.468 0.071,-0.9 0.071,-1.332 z"
               style="fill:#7b7a7a;fill-opacity:1;fill-rule:nonzero;stroke:none"
               id="path116" />
          </g>
          <g
             id="g118"
             transform="translate(541.9189,547.8555)">
            <path
               d="m 0,0 c -2.124,-3.78 -8.999,-3.528 -9.144,-3.528 -1.187,0 -7.918,0 -11.986,3.672 l 2.952,1.943 c 0.18,-0.144 1.008,-0.792 1.8,-1.223 2.772,-1.44 6.227,-1.512 7.055,-1.512 0.072,0 3.239,0 4.859,0.864 0.756,0.396 1.404,1.079 1.404,1.979 0,0.469 -0.18,1.152 -1.116,1.62 -1.548,0.828 -4.859,0.72 -9.142,1.188 -1.512,0.18 -3.204,0.468 -4.5,1.404 -1.079,0.792 -1.656,2.016 -1.656,3.384 0,1.943 1.116,3.455 2.808,4.319 2.447,1.26 6.587,1.26 6.947,1.26 2.736,0 5.615,-0.468 8.063,-1.764 1.188,-0.648 1.727,-1.08 2.16,-1.512 l -2.988,-1.656 c -2.879,1.98 -6.408,2.052 -7.487,2.052 -2.484,0 -4.032,-0.36 -4.967,-1.044 -0.648,-0.504 -0.756,-0.971 -0.756,-1.367 0,-0.325 0.143,-0.973 0.864,-1.369 1.224,-0.719 4.535,-0.827 8.242,-1.151 2.7,-0.216 3.996,-0.504 5.111,-1.224 1.369,-0.9 2.052,-2.34 2.052,-3.923 C 0.575,2.016 0.54,0.972 0,0"
               style="fill:#7b7a7a;fill-opacity:1;fill-rule:nonzero;stroke:none"
               id="path120" />
          </g>
          <g
             id="g122"
             transform="translate(555.8154,553.2905)">
            <path
               d="m 0,0 c -2.663,0 -4.247,-0.072 -5.363,-0.612 -0.396,-0.18 -1.476,-0.864 -1.476,-2.267 0,-1.728 1.584,-3.456 5.075,-3.456 0.936,0 2.052,0.18 2.268,0.216 0.72,0.108 3.888,0.648 5.292,3.24 0.647,1.223 0.611,2.375 0.647,2.879 z m 9.827,-8.495 c -2.988,0 -3.24,1.692 -3.384,2.988 -0.108,-0.18 -0.395,-0.648 -0.828,-1.044 -1.187,-1.152 -3.636,-2.412 -7.558,-2.412 -1.08,0 -2.161,0.144 -2.485,0.18 -1.763,0.288 -3.239,0.864 -4.463,2.232 -0.9,1.044 -1.368,2.267 -1.368,3.635 0,3.024 2.16,4.32 3.096,4.716 1.692,0.756 4.428,0.792 8.567,0.827 l 5.003,0.037 c 0,1.547 0.072,3.059 -1.548,3.923 -0.755,0.396 -2.195,0.72 -4.283,0.72 -1.656,0 -4.031,-0.144 -5.435,-1.26 C -5.184,5.795 -5.291,5.651 -5.651,5.003 l -3.455,0.324 c 0.036,0.144 0.359,1.08 0.792,1.728 0.323,0.468 0.971,1.26 2.267,1.8 1.151,0.468 3.348,0.936 6.443,0.936 0.504,0 2.988,-0.036 5.003,-0.54 C 5.867,9.143 7.703,8.747 8.747,7.343 9.611,6.191 9.611,5.003 9.611,3.671 v -6.407 c 0,-1.116 0,-1.8 0.144,-2.267 0.18,-0.54 0.612,-1.044 1.836,-1.044 0.324,0 0.612,0.036 1.26,0.108 v -2.376 c -1.008,-0.072 -2.016,-0.18 -3.024,-0.18"
               style="fill:#7b7a7a;fill-opacity:1;fill-rule:nonzero;stroke:none"
               id="path124" />
          </g>
          <g
             id="g126"
             transform="translate(587.2422,558.3301)">
            <path
               d="m 0,0 c -2.159,1.943 -5.291,1.908 -6.011,1.908 -1.152,0 -2.267,-0.217 -3.311,-0.648 -3.529,-1.512 -3.816,-4.68 -3.816,-5.976 0,-1.116 0.216,-2.123 0.791,-3.059 0.792,-1.332 2.773,-3.096 6.516,-3.096 2.304,0 5.147,0.72 6.551,2.664 0.468,0.648 1.08,1.908 1.08,3.815 C 1.8,-3.563 1.764,-1.584 0,0 m 1.62,-13.354 -0.036,2.303 c -0.36,-0.324 -0.756,-0.648 -1.152,-0.9 -1.116,-0.719 -3.383,-1.727 -6.695,-1.727 -1.08,0 -4.175,0.072 -6.803,2.015 -1.152,0.828 -3.636,3.168 -3.636,7.235 0,1.224 0.252,4.104 2.844,6.407 1.152,1.008 3.744,2.664 7.703,2.664 C -5.219,4.643 -2.483,4.535 0,3.204 0.576,2.879 0.756,2.808 1.62,2.16 v 9.898 h 3.419 v -25.412 z"
               style="fill:#7b7a7a;fill-opacity:1;fill-rule:nonzero;stroke:none"
               id="path128" />
          </g>
          <g
             id="g130"
             transform="translate(615.4658,556.8179)">
            <path
               d="m 0,0 c -2.052,3.384 -6.623,3.348 -7.415,3.348 -2.052,-0.036 -4.104,-0.54 -5.688,-1.908 -1.368,-1.152 -2.124,-2.808 -2.124,-4.644 0,-0.611 0.073,-1.979 1.044,-3.311 1.008,-1.368 3.204,-3.024 7.2,-3.024 1.727,0 3.42,0.396 4.931,1.368 0.865,0.54 2.88,2.088 2.88,5.111 0,0.504 -0.072,1.8 -0.828,3.06 m 3.023,-7.667 c -1.259,-2.052 -4.427,-4.715 -10.186,-4.715 -0.649,0 -2.735,0.036 -4.716,0.611 -1.583,0.469 -6.803,2.484 -6.803,8.352 0,0.899 0.109,2.843 1.369,4.859 2.878,4.536 8.71,4.715 10.042,4.715 0.828,0 3.851,-0.072 6.443,-1.295 0.396,-0.18 1.008,-0.468 1.8,-1.116 0.504,-0.396 1.08,-0.972 1.475,-1.44 0.685,-0.828 1.8,-2.628 1.8,-5.435 0,-0.72 -0.071,-2.664 -1.224,-4.536"
               style="fill:#7b7a7a;fill-opacity:1;fill-rule:nonzero;stroke:none"
               id="path132" />
          </g>
          <g
             id="g134"
             transform="translate(633.7187,559.8057)">
            <path
               d="M 0,0 C -0.612,0 -4.644,0.108 -5.796,-3.06 -6.048,-3.815 -6.084,-4.535 -6.084,-5.327 V -14.83 H -9.503 V 2.736 h 3.384 l 0.035,-1.98 c 0.252,0.252 0.433,0.468 0.973,0.828 0.899,0.612 2.987,1.656 5.795,1.656 1.007,0 1.584,-0.18 2.015,-0.288 V -0.396 C 2.052,-0.216 1.367,0 0,0"
               style="fill:#7b7a7a;fill-opacity:1;fill-rule:nonzero;stroke:none"
               id="path136" />
          </g>
          <g
             id="g138"
             transform="translate(648.082,553.2905)">
            <path
               d="m 0,0 c -2.663,0 -4.247,-0.072 -5.363,-0.612 -0.396,-0.18 -1.476,-0.864 -1.476,-2.267 0,-1.728 1.584,-3.456 5.075,-3.456 0.936,0 2.052,0.18 2.268,0.216 0.72,0.108 3.888,0.648 5.292,3.24 0.647,1.223 0.611,2.375 0.647,2.879 z m 9.827,-8.495 c -2.988,0 -3.24,1.692 -3.384,2.988 -0.108,-0.18 -0.395,-0.648 -0.828,-1.044 -1.187,-1.152 -3.636,-2.412 -7.558,-2.412 -1.08,0 -2.161,0.144 -2.485,0.18 -1.763,0.288 -3.239,0.864 -4.463,2.232 -0.9,1.044 -1.368,2.267 -1.368,3.635 0,3.024 2.16,4.32 3.096,4.716 1.692,0.756 4.428,0.792 8.567,0.827 l 5.003,0.037 c 0,1.547 0.072,3.059 -1.548,3.923 -0.755,0.396 -2.195,0.72 -4.283,0.72 -1.656,0 -4.031,-0.144 -5.435,-1.26 C -5.184,5.795 -5.291,5.651 -5.651,5.003 l -3.455,0.324 c 0.036,0.144 0.359,1.08 0.792,1.728 0.323,0.468 0.971,1.26 2.267,1.8 1.151,0.468 3.348,0.936 6.443,0.936 0.504,0 2.988,-0.036 5.003,-0.54 C 5.867,9.143 7.703,8.747 8.747,7.343 9.611,6.191 9.611,5.003 9.611,3.671 v -6.407 c 0,-1.116 0,-1.8 0.144,-2.267 0.18,-0.54 0.612,-1.044 1.836,-1.044 0.324,0 0.612,0.036 1.26,0.108 v -2.376 c -1.008,-0.072 -2.016,-0.18 -3.024,-0.18"
               style="fill:#7b7a7a;fill-opacity:1;fill-rule:nonzero;stroke:none"
               id="path140" />
          </g>
          <g
             id="g142"
             transform="translate(411.8896,505.2837)">
            <path
               d="m 0,0 c -1.188,-2.339 -2.52,-4.463 -6.695,-4.427 -1.657,0.036 -3.6,0.36 -3.995,0.431 V -0.9 c 1.799,-0.396 2.735,-0.54 3.598,-0.54 2.124,0 3.061,0.828 4.248,3.024 l -8.927,17.709 h 3.888 L -1.008,5.111 6.119,19.293 h 3.816 z"
               style="fill:#7b7a7a;fill-opacity:1;fill-rule:nonzero;stroke:none"
               id="path144" />
          </g>
          <g
             id="g146"
             transform="translate(450.5527,521.4097)">
            <path
               d="m 0,0 c -0.288,0.18 -0.937,0.576 -1.872,0.864 -0.468,0.144 -1.189,0.288 -2.34,0.288 -2.664,0 -5.111,-0.972 -6.587,-3.312 -0.288,-0.432 -0.36,-0.54 -0.684,-1.332 H 2.591 C 1.835,-1.404 0.863,-0.576 0,0 m -11.591,-6.047 c 0.252,-1.692 0.576,-2.844 1.836,-4.032 0.863,-0.828 2.808,-2.159 5.867,-2.159 2.088,0 4.175,0.648 5.616,2.196 0.503,0.539 0.719,0.971 1.08,1.619 l 3.275,-0.9 c -0.252,-0.54 -0.54,-1.08 -0.9,-1.584 -1.116,-1.619 -2.915,-2.555 -3.455,-2.807 -0.972,-0.468 -3.168,-1.26 -6.083,-1.26 -5.688,0 -10.728,3.167 -10.763,9.467 0,0.54 0.071,1.836 0.611,3.276 1.764,4.643 6.444,5.543 7.883,5.759 0.396,0.072 1.188,0.18 2.196,0.18 1.512,0 5.904,-0.216 8.819,-3.924 0.54,-0.684 1.692,-2.196 1.98,-4.499 0.071,-0.468 0.071,-0.9 0.071,-1.332 z"
               style="fill:#7b7a7a;fill-opacity:1;fill-rule:nonzero;stroke:none"
               id="path148" />
          </g>
          <g
             id="g150"
             transform="translate(475.2119,506.9756)">
            <path
               d="M 0,0 -6.371,7.091 -13.03,0 h -4.787 l 8.998,9.251 -7.991,8.315 h 4.751 l 5.616,-6.155 5.723,6.155 H 3.888 L -4.067,9.287 4.859,0 Z"
               style="fill:#7b7a7a;fill-opacity:1;fill-rule:nonzero;stroke:none"
               id="path152" />
          </g>
          <g
             id="g154"
             transform="translate(499.3672,519.8979)">
            <path
               d="m 0,0 c -1.295,1.476 -3.131,2.016 -3.707,2.16 -0.54,0.108 -1.116,0.215 -2.268,0.215 -0.828,0 -3.24,0 -5.255,-1.655 -2.124,-1.728 -2.16,-4.032 -2.16,-4.968 0,-1.619 0.432,-2.555 0.828,-3.167 1.332,-2.16 4.284,-3.096 6.731,-3.096 0.468,0 1.764,0.073 3.06,0.54 3.78,1.404 4.175,4.679 4.175,6.083 C 1.404,-3.167 1.296,-1.476 0,0 m 3.276,-9.647 c -1.152,-1.476 -3.635,-3.599 -8.207,-3.599 -3.708,0 -6.227,1.116 -7.415,1.979 -0.216,0.144 -0.432,0.36 -0.864,0.792 v -9.466 h -3.42 V 4.644 h 3.42 V 2.771 c 0.145,0.145 0.972,0.721 1.728,1.117 1.656,0.827 3.96,1.187 5.867,1.187 4.643,0 7.487,-2.052 8.676,-3.419 0.252,-0.288 0.647,-0.792 1.079,-1.548 0.684,-1.26 0.971,-2.628 0.971,-4.104 0,-0.935 -0.143,-3.455 -1.835,-5.651"
               style="fill:#7b7a7a;fill-opacity:1;fill-rule:nonzero;stroke:none"
               id="path156" />
          </g>
          <g
             id="g158"
             transform="translate(526.5107,518.8179)">
            <path
               d="m 0,0 c -2.052,3.384 -6.623,3.348 -7.415,3.348 -2.052,-0.036 -4.104,-0.54 -5.687,-1.908 -1.368,-1.152 -2.124,-2.808 -2.124,-4.644 0,-0.611 0.073,-1.979 1.044,-3.311 1.008,-1.368 3.203,-3.024 7.2,-3.024 1.727,0 3.419,0.396 4.93,1.368 0.865,0.54 2.88,2.088 2.88,5.111 0,0.504 -0.072,1.8 -0.828,3.06 m 3.024,-7.667 c -1.259,-2.052 -4.427,-4.715 -10.187,-4.715 -0.648,0 -2.735,0.036 -4.715,0.611 -1.584,0.469 -6.804,2.484 -6.804,8.352 0,0.899 0.109,2.843 1.369,4.859 2.879,4.536 8.71,4.715 10.042,4.715 0.829,0 3.852,-0.072 6.444,-1.295 0.395,-0.18 1.008,-0.468 1.8,-1.116 0.504,-0.396 1.079,-0.972 1.475,-1.44 0.684,-0.828 1.8,-2.628 1.8,-5.435 0,-0.72 -0.072,-2.664 -1.224,-4.536"
               style="fill:#7b7a7a;fill-opacity:1;fill-rule:nonzero;stroke:none"
               id="path160" />
          </g>
          <g
             id="g162"
             transform="translate(544.7637,521.8057)">
            <path
               d="m 0,0 c -0.611,0 -4.644,0.108 -5.795,-3.06 -0.252,-0.755 -0.288,-1.475 -0.288,-2.267 v -9.503 h -3.42 V 2.736 h 3.384 l 0.036,-1.98 c 0.252,0.252 0.432,0.468 0.972,0.828 0.9,0.612 2.987,1.656 5.795,1.656 1.008,0 1.584,-0.18 2.016,-0.288 V -0.396 C 2.052,-0.216 1.368,0 0,0"
               style="fill:#7b7a7a;fill-opacity:1;fill-rule:nonzero;stroke:none"
               id="path164" />
          </g>
          <g
             id="g166"
             transform="translate(554.0527,522.2017)">
            <path
               d="m 0,0 v -9.395 c 0,-0.216 0,-0.756 0.071,-1.368 0.109,-0.936 0.54,-1.692 2.376,-1.692 1.08,0 2.16,0.217 2.484,0.252 l -0.036,-3.023 c -1.116,-0.144 -2.232,-0.252 -3.383,-0.252 -1.296,0 -2.844,0.144 -3.852,1.116 -0.864,0.863 -1.008,1.799 -1.008,3.995 V 0 h -2.988 v 2.34 h 3.06 V 8.423 H 0.107 V 2.34 H 5.003 V 0 Z"
               style="fill:#7b7a7a;fill-opacity:1;fill-rule:nonzero;stroke:none"
               id="path168" />
          </g>
          <g
             id="g170"
             transform="translate(571.1152,515.2905)">
            <path
               d="m 0,0 c -2.663,0 -4.247,-0.072 -5.363,-0.612 -0.396,-0.18 -1.476,-0.864 -1.476,-2.267 0,-1.728 1.584,-3.456 5.075,-3.456 0.936,0 2.052,0.18 2.268,0.216 0.72,0.108 3.888,0.648 5.292,3.24 0.647,1.223 0.611,2.375 0.647,2.879 z m 9.827,-8.495 c -2.988,0 -3.24,1.692 -3.384,2.988 -0.108,-0.18 -0.395,-0.648 -0.828,-1.044 -1.187,-1.152 -3.636,-2.412 -7.558,-2.412 -1.08,0 -2.161,0.144 -2.485,0.18 -1.763,0.288 -3.239,0.864 -4.463,2.232 -0.9,1.044 -1.368,2.267 -1.368,3.635 0,3.024 2.16,4.32 3.096,4.716 1.692,0.756 4.428,0.792 8.567,0.827 l 5.003,0.037 c 0,1.547 0.072,3.059 -1.548,3.923 -0.755,0.396 -2.195,0.72 -4.283,0.72 -1.656,0 -4.031,-0.144 -5.435,-1.26 C -5.184,5.795 -5.291,5.651 -5.651,5.003 l -3.455,0.324 c 0.036,0.144 0.359,1.08 0.792,1.728 0.323,0.468 0.971,1.26 2.267,1.8 1.151,0.468 3.348,0.936 6.443,0.936 0.504,0 2.988,-0.036 5.003,-0.54 C 5.867,9.143 7.703,8.747 8.747,7.343 9.611,6.191 9.611,5.003 9.611,3.671 v -6.407 c 0,-1.116 0,-1.8 0.144,-2.267 0.18,-0.54 0.612,-1.044 1.836,-1.044 0.324,0 0.612,0.036 1.26,0.108 v -2.376 c -1.008,-0.072 -2.016,-0.18 -3.024,-0.18"
               style="fill:#7b7a7a;fill-opacity:1;fill-rule:nonzero;stroke:none"
               id="path172" />
          </g>
          <g
             id="g174"
             transform="translate(602.542,520.3301)">
            <path
               d="m 0,0 c -2.159,1.943 -5.291,1.908 -6.011,1.908 -1.152,0 -2.267,-0.217 -3.311,-0.648 -3.529,-1.512 -3.816,-4.68 -3.816,-5.976 0,-1.116 0.216,-2.123 0.791,-3.059 0.792,-1.332 2.773,-3.096 6.516,-3.096 2.304,0 5.147,0.72 6.551,2.664 0.468,0.648 1.08,1.908 1.08,3.815 C 1.8,-3.563 1.764,-1.584 0,0 m 1.62,-13.354 -0.036,2.303 c -0.36,-0.324 -0.756,-0.648 -1.152,-0.9 -1.116,-0.719 -3.383,-1.727 -6.695,-1.727 -1.08,0 -4.175,0.072 -6.803,2.015 -1.152,0.828 -3.636,3.168 -3.636,7.235 0,1.224 0.252,4.104 2.844,6.407 1.152,1.008 3.744,2.664 7.703,2.664 C -5.219,4.643 -2.483,4.535 0,3.204 0.576,2.879 0.756,2.808 1.62,2.16 v 9.898 h 3.419 v -25.412 z"
               style="fill:#7b7a7a;fill-opacity:1;fill-rule:nonzero;stroke:none"
               id="path176" />
          </g>
          <g
             id="g178"
             transform="translate(630.7656,518.8179)">
            <path
               d="m 0,0 c -2.052,3.384 -6.623,3.348 -7.415,3.348 -2.052,-0.036 -4.104,-0.54 -5.688,-1.908 -1.368,-1.152 -2.124,-2.808 -2.124,-4.644 0,-0.611 0.073,-1.979 1.044,-3.311 1.008,-1.368 3.204,-3.024 7.2,-3.024 1.727,0 3.42,0.396 4.931,1.368 0.865,0.54 2.88,2.088 2.88,5.111 0,0.504 -0.072,1.8 -0.828,3.06 m 3.023,-7.667 c -1.259,-2.052 -4.427,-4.715 -10.186,-4.715 -0.649,0 -2.735,0.036 -4.716,0.611 -1.583,0.469 -6.803,2.484 -6.803,8.352 0,0.899 0.109,2.843 1.369,4.859 2.878,4.536 8.71,4.715 10.042,4.715 0.828,0 3.851,-0.072 6.443,-1.295 0.396,-0.18 1.008,-0.468 1.8,-1.116 0.504,-0.396 1.08,-0.972 1.475,-1.44 0.685,-0.828 1.8,-2.628 1.8,-5.435 0,-0.72 -0.071,-2.664 -1.224,-4.536"
               style="fill:#7b7a7a;fill-opacity:1;fill-rule:nonzero;stroke:none"
               id="path180" />
          </g>
          <g
             id="g182"
             transform="translate(649.0186,521.8057)">
            <path
               d="M 0,0 C -0.612,0 -4.644,0.108 -5.796,-3.06 -6.048,-3.815 -6.084,-4.535 -6.084,-5.327 V -14.83 H -9.503 V 2.736 h 3.384 l 0.035,-1.98 c 0.252,0.252 0.433,0.468 0.973,0.828 0.899,0.612 2.987,1.656 5.795,1.656 1.007,0 1.584,-0.18 2.015,-0.288 V -0.396 C 2.052,-0.216 1.367,0 0,0"
               style="fill:#7b7a7a;fill-opacity:1;fill-rule:nonzero;stroke:none"
               id="path184" />
          </g>
          <g
             id="g186"
             transform="translate(663.3818,515.2905)">
            <path
               d="m 0,0 c -2.663,0 -4.247,-0.072 -5.363,-0.612 -0.396,-0.18 -1.476,-0.864 -1.476,-2.267 0,-1.728 1.584,-3.456 5.075,-3.456 0.936,0 2.052,0.18 2.268,0.216 0.72,0.108 3.888,0.648 5.292,3.24 0.647,1.223 0.611,2.375 0.647,2.879 z m 9.827,-8.495 c -2.988,0 -3.24,1.692 -3.384,2.988 -0.108,-0.18 -0.395,-0.648 -0.828,-1.044 -1.187,-1.152 -3.636,-2.412 -7.558,-2.412 -1.08,0 -2.161,0.144 -2.485,0.18 -1.763,0.288 -3.239,0.864 -4.463,2.232 -0.9,1.044 -1.368,2.267 -1.368,3.635 0,3.024 2.16,4.32 3.096,4.716 1.692,0.756 4.428,0.792 8.567,0.827 l 5.003,0.037 c 0,1.547 0.072,3.059 -1.548,3.923 -0.755,0.396 -2.195,0.72 -4.283,0.72 -1.656,0 -4.031,-0.144 -5.435,-1.26 C -5.184,5.795 -5.291,5.651 -5.651,5.003 l -3.455,0.324 c 0.036,0.144 0.359,1.08 0.792,1.728 0.323,0.468 0.971,1.26 2.267,1.8 1.151,0.468 3.348,0.936 6.443,0.936 0.504,0 2.988,-0.036 5.003,-0.54 C 5.867,9.143 7.703,8.747 8.747,7.343 9.611,6.191 9.611,5.003 9.611,3.671 v -6.407 c 0,-1.116 0,-1.8 0.144,-2.267 0.18,-0.54 0.612,-1.044 1.836,-1.044 0.324,0 0.612,0.036 1.26,0.108 v -2.376 c -1.008,-0.072 -2.016,-0.18 -3.024,-0.18"
               style="fill:#7b7a7a;fill-opacity:1;fill-rule:nonzero;stroke:none"
               id="path188" />
          </g>
          <g
             id="g190"
             transform="translate(706.7969,520.3301)">
            <path
               d="m 0,0 c -2.16,1.943 -5.292,1.908 -6.012,1.908 -1.151,0 -2.267,-0.217 -3.311,-0.648 -3.528,-1.512 -3.816,-4.68 -3.816,-5.976 0,-1.116 0.216,-2.123 0.792,-3.059 0.792,-1.332 2.772,-3.096 6.515,-3.096 2.304,0 5.147,0.72 6.552,2.664 0.467,0.648 1.08,1.908 1.08,3.815 C 1.8,-3.563 1.764,-1.584 0,0 m 1.619,-13.354 -0.036,2.303 c -0.359,-0.324 -0.756,-0.648 -1.151,-0.9 -1.117,-0.719 -3.384,-1.727 -6.696,-1.727 -1.08,0 -4.175,0.072 -6.802,2.015 -1.153,0.828 -3.636,3.168 -3.636,7.235 0,1.224 0.252,4.104 2.844,6.407 1.151,1.008 3.743,2.664 7.703,2.664 C -5.22,4.643 -2.484,4.535 0,3.204 0.575,2.879 0.756,2.808 1.619,2.16 v 9.898 h 3.42 v -25.412 z"
               style="fill:#7b7a7a;fill-opacity:1;fill-rule:nonzero;stroke:none"
               id="path192" />
          </g>
          <g
             id="g194"
             transform="translate(731.4209,521.4097)">
            <path
               d="m 0,0 c -0.288,0.18 -0.937,0.576 -1.872,0.864 -0.468,0.144 -1.189,0.288 -2.34,0.288 -2.664,0 -5.111,-0.972 -6.587,-3.312 -0.288,-0.432 -0.36,-0.54 -0.684,-1.332 H 2.591 C 1.835,-1.404 0.863,-0.576 0,0 m -11.591,-6.047 c 0.252,-1.692 0.576,-2.844 1.836,-4.032 0.863,-0.828 2.808,-2.159 5.867,-2.159 2.088,0 4.175,0.648 5.616,2.196 0.503,0.539 0.719,0.971 1.08,1.619 l 3.275,-0.9 c -0.252,-0.54 -0.54,-1.08 -0.9,-1.584 -1.116,-1.619 -2.915,-2.555 -3.455,-2.807 -0.972,-0.468 -3.168,-1.26 -6.083,-1.26 -5.688,0 -10.728,3.167 -10.763,9.467 0,0.54 0.071,1.836 0.611,3.276 1.764,4.643 6.444,5.543 7.883,5.759 0.396,0.072 1.188,0.18 2.196,0.18 1.512,0 5.904,-0.216 8.819,-3.924 0.54,-0.684 1.692,-2.196 1.98,-4.499 0.071,-0.468 0.071,-0.9 0.071,-1.332 z"
               style="fill:#7b7a7a;fill-opacity:1;fill-rule:nonzero;stroke:none"
               id="path196" />
          </g>
          <g
             id="g198"
             transform="translate(763.1367,515.2905)">
            <path
               d="m 0,0 c -2.664,0 -4.248,-0.072 -5.363,-0.612 -0.397,-0.18 -1.477,-0.864 -1.477,-2.267 0,-1.728 1.584,-3.456 5.076,-3.456 0.936,0 2.052,0.18 2.268,0.216 0.72,0.108 3.888,0.648 5.291,3.24 0.648,1.223 0.612,2.375 0.648,2.879 z m 9.826,-8.495 c -2.987,0 -3.239,1.692 -3.383,2.988 -0.108,-0.18 -0.396,-0.648 -0.828,-1.044 -1.188,-1.152 -3.636,-2.412 -7.559,-2.412 -1.079,0 -2.16,0.144 -2.484,0.18 -1.763,0.288 -3.239,0.864 -4.464,2.232 -0.899,1.044 -1.367,2.267 -1.367,3.635 0,3.024 2.159,4.32 3.096,4.716 1.691,0.756 4.427,0.792 8.566,0.827 l 5.004,0.037 c 0,1.547 0.072,3.059 -1.548,3.923 -0.755,0.396 -2.196,0.72 -4.284,0.72 -1.655,0 -4.031,-0.144 -5.434,-1.26 C -5.184,5.795 -5.292,5.651 -5.651,5.003 l -3.456,0.324 c 0.036,0.144 0.36,1.08 0.792,1.728 0.324,0.468 0.971,1.26 2.267,1.8 1.152,0.468 3.348,0.936 6.444,0.936 0.503,0 2.987,-0.036 5.003,-0.54 C 5.867,9.143 7.703,8.747 8.747,7.343 9.61,6.191 9.61,5.003 9.61,3.671 v -6.407 c 0,-1.116 0,-1.8 0.145,-2.267 0.18,-0.54 0.611,-1.044 1.835,-1.044 0.324,0 0.612,0.036 1.26,0.108 v -2.376 c -1.008,-0.072 -2.016,-0.18 -3.024,-0.18"
               style="fill:#7b7a7a;fill-opacity:1;fill-rule:nonzero;stroke:none"
               id="path200" />
          </g>
          <path
             d="m 779.013,532.388 h 3.384 v -25.413 h -3.384 z"
             style="fill:#7b7a7a;fill-opacity:1;fill-rule:nonzero;stroke:none"
             id="path202" />
          <path
             d="m 788.013,524.542 h 3.42 v -17.566 h -3.42 z m -0.035,6.407 h 3.383 v -3.456 h -3.383 z"
             style="fill:#7b7a7a;fill-opacity:1;fill-rule:nonzero;stroke:none"
             id="path204" />
          <g
             id="g206"
             transform="translate(829.877,506.9756)">
            <path
               d="m 0,0 v 8.891 c 0,1.152 0.036,2.339 -0.468,3.42 -0.576,1.259 -2.303,2.771 -5.579,2.771 -3.636,0 -5.796,-1.764 -6.479,-3.06 -0.361,-0.684 -0.504,-1.332 -0.504,-2.879 V 0 h -3.42 v 9.035 c 0,0.864 -0.036,1.764 -0.252,2.591 -0.972,3.42 -4.751,3.456 -5.579,3.456 -0.828,0 -3.203,-0.144 -5.255,-1.692 -0.252,-0.18 -0.901,-0.683 -1.368,-1.512 -0.504,-0.971 -0.504,-1.871 -0.504,-2.951 V 0 h -3.456 v 17.566 h 3.456 v -2.412 c 0.647,0.612 1.008,0.864 1.332,1.116 1.008,0.648 3.275,1.692 6.443,1.692 0.648,0 3.816,-0.036 5.939,-1.656 0.504,-0.396 0.756,-0.648 1.476,-1.548 0.432,0.468 0.864,0.864 1.404,1.26 1.187,0.828 3.491,1.98 7.127,1.98 3.275,0 7.271,-1.188 8.603,-4.536 C 3.312,12.455 3.42,11.59 3.42,9.467 V 0 Z"
               style="fill:#7b7a7a;fill-opacity:1;fill-rule:nonzero;stroke:none"
               id="path208" />
          </g>
          <g
             id="g210"
             transform="translate(852.9551,521.4097)">
            <path
               d="m 0,0 c -0.288,0.18 -0.936,0.576 -1.872,0.864 -0.468,0.144 -1.188,0.288 -2.34,0.288 -2.663,0 -5.111,-0.972 -6.587,-3.312 -0.288,-0.432 -0.359,-0.54 -0.683,-1.332 H 2.592 C 1.836,-1.404 0.864,-0.576 0,0 m -11.591,-6.047 c 0.252,-1.692 0.576,-2.844 1.836,-4.032 0.864,-0.828 2.808,-2.159 5.867,-2.159 2.088,0 4.176,0.648 5.616,2.196 0.503,0.539 0.719,0.971 1.08,1.619 l 3.275,-0.9 c -0.252,-0.54 -0.54,-1.08 -0.899,-1.584 -1.117,-1.619 -2.916,-2.555 -3.456,-2.807 -0.972,-0.468 -3.167,-1.26 -6.083,-1.26 -5.688,0 -10.727,3.167 -10.763,9.467 0,0.54 0.072,1.836 0.612,3.276 1.764,4.643 6.443,5.543 7.883,5.759 0.395,0.072 1.187,0.18 2.195,0.18 1.512,0 5.904,-0.216 8.82,-3.924 0.54,-0.684 1.691,-2.196 1.979,-4.499 0.072,-0.468 0.072,-0.9 0.072,-1.332 z"
               style="fill:#7b7a7a;fill-opacity:1;fill-rule:nonzero;stroke:none"
               id="path212" />
          </g>
          <g
             id="g214"
             transform="translate(880.998,506.9756)">
            <path
               d="m 0,0 v 9.287 c 0,1.512 -0.144,2.16 -0.468,2.88 -0.647,1.511 -2.447,2.987 -6.047,2.987 -1.728,0 -2.7,-0.324 -3.42,-0.576 -0.54,-0.216 -2.555,-0.936 -3.383,-3.131 -0.396,-1.009 -0.432,-2.016 -0.432,-3.096 V 0 h -3.42 v 17.566 h 3.42 v -2.124 c 0.612,0.504 1.26,1.116 2.664,1.692 1.043,0.432 2.735,0.936 5.183,0.936 4.355,0 7.559,-1.764 8.711,-4.392 0.576,-1.367 0.576,-2.736 0.576,-4.175 L 3.384,0 Z"
               style="fill:#7b7a7a;fill-opacity:1;fill-rule:nonzero;stroke:none"
               id="path216" />
          </g>
          <g
             id="g218"
             transform="translate(893.8516,522.2017)">
            <path
               d="m 0,0 v -9.395 c 0,-0.216 0,-0.756 0.072,-1.368 0.108,-0.936 0.54,-1.692 2.375,-1.692 1.08,0 2.16,0.217 2.485,0.252 l -0.036,-3.023 c -1.117,-0.144 -2.232,-0.252 -3.384,-0.252 -1.296,0 -2.844,0.144 -3.852,1.116 -0.863,0.863 -1.008,1.799 -1.008,3.995 V 0 h -2.987 v 2.34 h 3.06 V 8.423 H 0.108 V 2.34 H 5.003 V 0 Z"
               style="fill:#7b7a7a;fill-opacity:1;fill-rule:nonzero;stroke:none"
               id="path220" />
          </g>
          <g
             id="g222"
             transform="translate(919.5537,518.8179)">
            <path
               d="m 0,0 c -2.052,3.384 -6.623,3.348 -7.415,3.348 -2.052,-0.036 -4.104,-0.54 -5.688,-1.908 -1.368,-1.152 -2.124,-2.808 -2.124,-4.644 0,-0.611 0.073,-1.979 1.044,-3.311 1.008,-1.368 3.204,-3.024 7.2,-3.024 1.727,0 3.42,0.396 4.931,1.368 0.865,0.54 2.88,2.088 2.88,5.111 0,0.504 -0.072,1.8 -0.828,3.06 m 3.023,-7.667 c -1.259,-2.052 -4.427,-4.715 -10.186,-4.715 -0.649,0 -2.735,0.036 -4.716,0.611 -1.583,0.469 -6.803,2.484 -6.803,8.352 0,0.899 0.109,2.843 1.369,4.859 2.878,4.536 8.71,4.715 10.042,4.715 0.828,0 3.851,-0.072 6.443,-1.295 0.396,-0.18 1.008,-0.468 1.8,-1.116 0.504,-0.396 1.08,-0.972 1.475,-1.44 0.685,-0.828 1.8,-2.628 1.8,-5.435 0,-0.72 -0.071,-2.664 -1.224,-4.536"
               style="fill:#7b7a7a;fill-opacity:1;fill-rule:nonzero;stroke:none"
               id="path224" />
          </g>
          <g
             id="g226"
             transform="translate(947.2734,509.8555)">
            <path
               d="m 0,0 c -2.124,-3.78 -8.999,-3.528 -9.144,-3.528 -1.187,0 -7.918,0 -11.986,3.672 l 2.952,1.943 c 0.18,-0.144 1.008,-0.792 1.8,-1.223 2.772,-1.44 6.227,-1.512 7.055,-1.512 0.072,0 3.239,0 4.859,0.864 0.756,0.396 1.404,1.079 1.404,1.979 0,0.469 -0.18,1.152 -1.116,1.62 -1.548,0.828 -4.859,0.72 -9.142,1.188 -1.512,0.18 -3.204,0.468 -4.5,1.404 -1.079,0.792 -1.656,2.016 -1.656,3.384 0,1.943 1.116,3.455 2.808,4.319 2.447,1.26 6.587,1.26 6.947,1.26 2.736,0 5.615,-0.468 8.063,-1.764 1.188,-0.648 1.727,-1.08 2.16,-1.512 l -2.988,-1.656 c -2.879,1.98 -6.408,2.052 -7.487,2.052 -2.484,0 -4.032,-0.36 -4.967,-1.044 -0.648,-0.504 -0.756,-0.971 -0.756,-1.367 0,-0.325 0.143,-0.973 0.864,-1.369 1.224,-0.719 4.535,-0.827 8.242,-1.151 2.7,-0.216 3.996,-0.504 5.111,-1.224 1.369,-0.9 2.052,-2.34 2.052,-3.923 C 0.575,2.016 0.54,0.972 0,0"
               style="fill:#7b7a7a;fill-opacity:1;fill-rule:nonzero;stroke:none"
               id="path228" />
          </g>
          <g
             id="g230"
             transform="translate(345.5821,465.757)">
            <path
               d="m 0,0 c -23.366,-33.189 -61.976,-54.874 -105.65,-54.874 -43.674,0 -82.283,21.684 -105.65,54.874"
               style="fill:none;stroke:#39556e;stroke-width:12;stroke-linecap:butt;stroke-linejoin:miter;stroke-miterlimit:10;stroke-dasharray:none;stroke-opacity:1"
               id="path232" />
          </g>
          <g
             id="g234"
             transform="translate(129.3211,606.6426)">
            <path
               d="m 0,0 c 22.606,37.441 63.685,62.474 110.611,62.474 46.512,0 87.28,-24.593 110.009,-61.486"
               style="fill:none;stroke:#39556e;stroke-width:12;stroke-linecap:butt;stroke-linejoin:miter;stroke-miterlimit:10;stroke-dasharray:none;stroke-opacity:1"
               id="path236" />
          </g>
          <g
             id="g238"
             transform="translate(329.5098,465.7563)">
            <path
               d="m 0,0 c -21.345,-25.733 -53.562,-42.122 -89.607,-42.122 -36.046,0 -68.263,16.389 -89.608,42.122"
               style="fill:none;stroke:#7b7a7a;stroke-width:6;stroke-linecap:butt;stroke-linejoin:miter;stroke-miterlimit:10;stroke-dasharray:none;stroke-opacity:1"
               id="path240" />
          </g>
          <g
             id="g242"
             transform="translate(144.6837,606.9068)">
            <path
               d="m 0,0 c 21.058,29.914 55.856,49.458 95.219,49.458 39.361,0 74.159,-19.543 95.217,-49.455"
               style="fill:none;stroke:#7b7a7a;stroke-width:6;stroke-linecap:butt;stroke-linejoin:miter;stroke-miterlimit:10;stroke-dasharray:none;stroke-opacity:1"
               id="path244" />
          </g>
        </g>
      </g>
    </g>
  </g>
</svg>
