<?xml version="1.0" encoding="UTF-8" standalone="no"?>
<!-- Generator: Adobe Illustrator 26.0.1, SVG Export Plug-In . SVG Version: 6.00 Build 0)  -->

<svg
   version="1.1"
   id="Layer_1"
   x="0px"
   y="0px"
   viewBox="0 0 230.86529 234.58"
   xml:space="preserve"
   sodipodi:docname="vpas-emblema.svg"
   width="230.86528"
   height="234.57999"
   inkscape:version="1.2.2 (b0a8486541, 2022-12-01)"
   xmlns:inkscape="http://www.inkscape.org/namespaces/inkscape"
   xmlns:sodipodi="http://sodipodi.sourceforge.net/DTD/sodipodi-0.dtd"
   xmlns="http://www.w3.org/2000/svg"
   xmlns:svg="http://www.w3.org/2000/svg"><defs
   id="defs37" /><sodipodi:namedview
   id="namedview35"
   pagecolor="#ffffff"
   bordercolor="#000000"
   borderopacity="0.25"
   inkscape:showpageshadow="2"
   inkscape:pageopacity="0.0"
   inkscape:pagecheckerboard="0"
   inkscape:deskcolor="#d1d1d1"
   showgrid="false"
   inkscape:zoom="1.6002662"
   inkscape:cx="-23.74605"
   inkscape:cy="194.96757"
   inkscape:window-width="1920"
   inkscape:window-height="1043"
   inkscape:window-x="0"
   inkscape:window-y="0"
   inkscape:window-maximized="1"
   inkscape:current-layer="Layer_1" />
<style
   type="text/css"
   id="style2">
	.st0{fill:#7B7A7A;}
	.st1{fill:#39556E;}
	.st2{fill:none;stroke:#39556E;stroke-width:12;stroke-miterlimit:10;}
	.st3{fill:none;stroke:#7B7A7A;stroke-width:6;stroke-miterlimit:10;}
</style>





<g
   id="g957"
   transform="translate(-1.1973581,-18)"><g
     id="g12">
	<path
   class="st1"
   d="m 43.32,171.38 h -6.44 l -21.61,-45 h 7.08 L 40.2,164.3 57.54,126.38 h 7.01 z"
   id="path4" />
	<path
   class="st1"
   d="m 110.63,150.29 c -3.89,3 -8.09,3.06 -12.75,3.06 H 76.27 v 18.04 h -6.5 v -45 H 97.3 c 1.15,0 2.29,0.06 3.44,0.13 1.98,0.19 8.48,0.45 12.3,5.93 1.53,2.23 2.29,4.97 2.29,7.71 0.01,1.78 -0.31,6.81 -4.7,10.13 z m -3.83,-15.36 c -2.55,-3.19 -6.88,-3.19 -10.52,-3.19 H 76.21 v 16.25 h 20.78 c 3.51,0 7.33,-0.13 9.75,-3.12 0.7,-0.83 1.66,-2.42 1.66,-5.1 -0.01,-0.83 -0.07,-2.93 -1.6,-4.84 z"
   id="path6" />
	<path
   class="st1"
   d="m 158.55,171.38 -5.48,-11.09 h -27.66 l -5.48,11.09 h -7.2 l 23.33,-45 h 6.82 l 23.07,45 z m -19.24,-38.56 -11.22,22.31 h 22.24 z"
   id="path8" />
	<path
   class="st1"
   d="m 212.22,165.33 c -4.02,5.61 -11.6,6.5 -13.26,6.69 -1.02,0.13 -3.63,0.45 -6.5,0.45 -1.28,0 -6.82,-0.13 -11.6,-1.34 -1.02,-0.25 -2.61,-0.64 -4.84,-1.59 -2.36,-1.02 -3.95,-2.17 -4.72,-2.74 -2.42,-1.85 -3.5,-3.51 -4.21,-4.53 l 5.93,-2.42 c 0.32,0.38 0.57,0.7 0.96,1.08 0.96,0.96 3.06,2.61 6.18,3.89 5.16,2.1 11.28,2.17 12.75,2.17 1.15,0 7.9,0.19 12.24,-3.06 2.68,-2.04 3.06,-4.84 3.06,-6.06 0,-2.61 -1.47,-4.52 -3.82,-5.54 -3.31,-1.47 -11.09,-1.91 -14.66,-2.23 -8.6,-0.7 -12.81,-1.15 -16.12,-4.21 -3.06,-2.8 -3.19,-5.99 -3.19,-7.52 0,-6.31 4.33,-9.18 6.25,-10.2 2.68,-1.47 7.58,-2.93 14.85,-2.93 8.92,0 14.28,2.17 17.53,4.27 0.76,0.51 1.4,0.96 2.04,1.53 1.47,1.21 2.55,2.8 2.93,3.25 l -5.86,2.36 c -0.32,-0.32 -1.47,-1.47 -2.74,-2.36 -2.49,-1.72 -6.76,-3.76 -13.83,-3.76 -4.59,0 -8.16,0.83 -9.82,1.47 -3.89,1.47 -4.97,4.14 -4.97,6.05 0,0.96 0.25,1.98 0.76,2.8 1.59,2.55 4.78,2.8 7.39,3.12 4.97,0.64 9.94,0.89 14.91,1.47 6.95,0.83 10.13,2.61 12.3,5.29 2.23,2.87 2.36,5.74 2.36,7.07 -0.01,3.83 -1.41,6.32 -2.3,7.53 z"
   id="path10" />
</g><g
     id="g24">
	<path
   class="st0"
   d="m 29.65,114.41 v -1.98 c -0.31,0.31 -0.61,0.59 -0.96,0.84 -0.82,0.57 -2.69,1.47 -5.32,1.47 -3.87,0 -5.95,-2 -6.83,-3.2 -0.49,-0.65 -1.41,-2.16 -1.41,-4.36 0,-0.69 0.1,-2.39 1.18,-4.02 0.29,-0.43 0.57,-0.77 0.94,-1.12 0.98,-0.92 3.08,-2.36 6.48,-2.36 0.82,0 2.77,0.06 4.81,1.12 1.04,0.53 1.61,1.08 1.94,1.45 0.33,0.35 0.47,0.51 0.86,1.22 l -2,0.61 c -0.14,-0.2 -0.35,-0.55 -0.78,-0.96 -0.69,-0.63 -2.24,-1.69 -4.69,-1.69 -0.45,0 -1.57,0.04 -2.75,0.45 -2.34,0.82 -3.81,2.69 -3.81,5.22 0,1.28 0.47,2.75 1.3,3.75 1.69,2.06 4.44,2.18 5.2,2.18 2,0 4.24,-0.86 5.32,-2.63 0.39,-0.65 0.47,-1.14 0.57,-1.85 h -6.34 v -1.71 h 8.05 v 7.58 h -1.76 z"
   id="path14" />
	<path
   class="st0"
   d="m 75.12,114.41 -4.87,-5.77 H 63.3 v 5.77 h -2.06 v -14.39 h 9.81 c 1.22,0 1.67,0.06 2.28,0.22 1.94,0.51 3.04,2.02 3.04,4 0,0.77 -0.16,2.79 -2.32,3.69 -0.37,0.14 -0.75,0.26 -1.57,0.39 l 5.32,6.1 h -2.68 z m -1.24,-11.5 c -0.61,-1.08 -1.57,-1.18 -2.69,-1.18 h -7.91 v 5.22 h 7.12 c 1.16,0 2.53,-0.04 3.32,-1.06 0.2,-0.24 0.53,-0.73 0.53,-1.57 0,-0.27 -0.03,-0.82 -0.37,-1.41 z"
   id="path16" />
	<path
   class="st0"
   d="m 120.55,111.37 c -1.12,2.73 -4.32,3.38 -6.93,3.38 -0.69,0 -3.32,0.02 -5.36,-1.41 -0.86,-0.59 -1.24,-1.22 -1.45,-1.59 -0.57,-1.06 -0.61,-2.12 -0.61,-3.28 v -8.46 h 2.06 v 8.54 c 0,0.16 -0.02,0.77 0.08,1.35 0.2,1.33 0.88,1.79 1.39,2.12 0.71,0.45 1.9,0.96 3.91,0.96 0.26,0 2.69,0 4.08,-1.02 0.49,-0.37 0.77,-0.86 0.86,-1.04 0.33,-0.67 0.33,-1.35 0.33,-2.1 v -8.81 h 2.06 v 8.66 c -0.01,0.97 -0.03,1.78 -0.42,2.7 z"
   id="path18" />
	<path
   class="st0"
   d="m 164.2,107.66 c -1.24,0.96 -2.59,0.98 -4.08,0.98 h -6.91 v 5.77 h -2.08 v -14.39 h 8.81 c 0.37,0 0.73,0.02 1.1,0.04 0.63,0.06 2.71,0.14 3.93,1.9 0.49,0.71 0.73,1.59 0.73,2.47 0.01,0.56 -0.09,2.17 -1.5,3.23 z m -1.22,-4.91 c -0.82,-1.02 -2.2,-1.02 -3.36,-1.02 h -6.42 v 5.2 h 6.65 c 1.12,0 2.34,-0.04 3.12,-1 0.22,-0.27 0.53,-0.77 0.53,-1.63 -0.01,-0.27 -0.03,-0.94 -0.52,-1.55 z"
   id="path20" />
	<path
   class="st0"
   d="m 209.28,112.31 c -1,1.04 -3.2,2.49 -6.81,2.49 -0.37,0 -1.2,-0.02 -2.2,-0.18 -0.98,-0.14 -3.89,-0.67 -5.57,-3.36 -0.98,-1.59 -1.04,-3.22 -1.04,-3.87 0,-1.65 0.43,-3.3 1.45,-4.59 0.2,-0.26 0.47,-0.57 1.04,-1.04 0.98,-0.82 2.96,-2.08 6.2,-2.08 0.65,0 2.61,0.06 4.46,0.92 1.18,0.55 2.32,1.45 3.08,2.53 1.18,1.71 1.26,3.61 1.26,4.3 0.01,0.82 -0.11,3.06 -1.87,4.88 z m -0.71,-7.61 c -1.55,-3.32 -5.65,-3.3 -6.46,-3.28 -0.61,0.02 -3.2,0.16 -4.87,1.83 -0.29,0.29 -0.86,0.92 -1.2,1.94 -0.22,0.65 -0.33,1.41 -0.33,2.1 0,0.53 0.06,2.08 1.04,3.4 0.2,0.26 0.51,0.63 1.14,1.08 0.84,0.59 2.24,1.24 4.63,1.24 0.39,0 1.35,0 2.43,-0.29 2.02,-0.53 3.49,-1.88 3.98,-3.91 0.06,-0.29 0.18,-0.88 0.18,-1.61 -0.01,-1.21 -0.34,-2.07 -0.54,-2.5 z"
   id="path22" />
</g><g
     id="g938"
     transform="translate(-0.81000275,-17.950013)"><path
       class="st2"
       d="m 223.09,209.66 c -23.37,33.19 -61.98,54.87 -105.65,54.87 -43.67,0 -82.28,-21.68 -105.65,-54.87"
       id="path26" /><path
       class="st3"
       d="m 207.01,209.66 c -21.34,25.73 -53.56,42.12 -89.61,42.12 -36.05,0 -68.26,-16.38 -89.6,-42.12"
       id="path30" /></g><g
     id="g257"
     transform="translate(-0.49593452,-2.3)"><path
       class="st2"
       d="M 6.83,88.78 C 29.43,51.34 70.51,26.3 117.44,26.3 c 46.51,0 87.28,24.59 110.01,61.49"
       id="path28" /><path
       class="st3"
       d="M 22.19,88.51 C 43.25,58.6 78.05,39.05 117.41,39.05 c 39.36,0 74.16,19.54 95.22,49.46"
       id="path32" /></g></g>
</svg>
