<?xml version="1.0" encoding="UTF-8" standalone="no"?>
<!-- Created with Inkscape (http://www.inkscape.org/) -->

<svg
   width="52.915939mm"
   height="15.058611mm"
   viewBox="0 0 52.915939 15.058611"
   version="1.1"
   id="svg2137"
   sodipodi:docname="vpas-logo.svg"
   inkscape:version="1.2.2 (b0a8486541, 2022-12-01)"
   xmlns:inkscape="http://www.inkscape.org/namespaces/inkscape"
   xmlns:sodipodi="http://sodipodi.sourceforge.net/DTD/sodipodi-0.dtd"
   xmlns="http://www.w3.org/2000/svg"
   xmlns:svg="http://www.w3.org/2000/svg">
  <sodipodi:namedview
     id="namedview1081"
     pagecolor="#ffffff"
     bordercolor="#000000"
     borderopacity="0.25"
     inkscape:showpageshadow="2"
     inkscape:pageopacity="0.0"
     inkscape:pagecheckerboard="0"
     inkscape:deskcolor="#d1d1d1"
     inkscape:document-units="mm"
     showgrid="false"
     inkscape:zoom="7.626409"
     inkscape:cx="141.48205"
     inkscape:cy="34.223184"
     inkscape:window-width="1920"
     inkscape:window-height="1043"
     inkscape:window-x="0"
     inkscape:window-y="0"
     inkscape:window-maximized="1"
     inkscape:current-layer="layer2"
     showguides="true">
    <sodipodi:guide
       position="14.82993,11.624222"
       orientation="1,0"
       id="guide6666"
       inkscape:locked="false" />
    <sodipodi:guide
       position="17.877252,-1.8353924"
       orientation="1,0"
       id="guide5558"
       inkscape:locked="false" />
  </sodipodi:namedview>
  <defs
     id="defs2134">
    <clipPath
       clipPathUnits="userSpaceOnUse"
       id="clipPath6193">
      <g
         id="g6197"
         transform="matrix(2.8346457,0,0,-2.8346457,-37.137864,214.0574)">
        <path
           d="M -37.93978,-91.382072 H 343.06021 V 289.61792 H -37.93978 Z"
           id="path6195"
           style="stroke-width:0.352778" />
      </g>
    </clipPath>
    <clipPath
       clipPathUnits="userSpaceOnUse"
       id="clipPath6199">
      <g
         id="g6203"
         transform="matrix(2.8346457,0,0,-2.8346457,-221.96396,355.2079)">
        <path
           d="M -37.93978,-91.382072 H 343.06021 V 289.61792 H -37.93978 Z"
           id="path6201"
           style="stroke-width:0.352778" />
      </g>
    </clipPath>
    <clipPath
       clipPathUnits="userSpaceOnUse"
       id="clipPath6205">
      <g
         id="g6209"
         transform="matrix(2.8346457,0,0,-2.8346457,-21.775265,214.3216)">
        <path
           d="M -37.93978,-91.382072 H 343.06021 V 289.61792 H -37.93978 Z"
           id="path6207"
           style="stroke-width:0.352778" />
      </g>
    </clipPath>
    <clipPath
       clipPathUnits="userSpaceOnUse"
       id="clipPath6211">
      <g
         id="g6215"
         transform="matrix(2.8346457,0,0,-2.8346457,-238.03627,355.20719)">
        <path
           d="M -37.93978,-91.382072 H 343.06021 V 289.61792 H -37.93978 Z"
           id="path6213"
           style="stroke-width:0.352778" />
      </g>
    </clipPath>
    <clipPath
       clipPathUnits="userSpaceOnUse"
       id="clipPath6217">
      <g
         id="g6221"
         transform="matrix(2.8346457,0,0,-2.8346457,-839.72757,311.10869)">
        <path
           d="M -37.93978,-91.382072 H 343.06021 V 289.61792 H -37.93978 Z"
           id="path6219"
           style="stroke-width:0.352778" />
      </g>
    </clipPath>
    <clipPath
       clipPathUnits="userSpaceOnUse"
       id="clipPath6223">
      <g
         id="g6227"
         transform="matrix(2.8346457,0,0,-2.8346457,-812.00785,302.1463)">
        <path
           d="M -37.93978,-91.382072 H 343.06021 V 289.61792 H -37.93978 Z"
           id="path6225"
           style="stroke-width:0.352778" />
      </g>
    </clipPath>
    <clipPath
       clipPathUnits="userSpaceOnUse"
       id="clipPath6229">
      <g
         id="g6233"
         transform="matrix(2.8346457,0,0,-2.8346457,-786.30575,298.7625)">
        <path
           d="M -37.93978,-91.382072 H 343.06021 V 289.61792 H -37.93978 Z"
           id="path6231"
           style="stroke-width:0.352778" />
      </g>
    </clipPath>
    <clipPath
       clipPathUnits="userSpaceOnUse"
       id="clipPath6235">
      <g
         id="g6239"
         transform="matrix(2.8346457,0,0,-2.8346457,-773.45217,313.9886)">
        <path
           d="M -37.93978,-91.382072 H 343.06021 V 289.61792 H -37.93978 Z"
           id="path6237"
           style="stroke-width:0.352778" />
      </g>
    </clipPath>
    <clipPath
       clipPathUnits="userSpaceOnUse"
       id="clipPath6241">
      <g
         id="g6245"
         transform="matrix(2.8346457,0,0,-2.8346457,-745.40927,299.5545)">
        <path
           d="M -37.93978,-91.382072 H 343.06021 V 289.61792 H -37.93978 Z"
           id="path6243"
           style="stroke-width:0.352778" />
      </g>
    </clipPath>
    <clipPath
       clipPathUnits="userSpaceOnUse"
       id="clipPath6247">
      <g
         id="g6251"
         transform="matrix(2.8346457,0,0,-2.8346457,-722.33117,313.9886)">
        <path
           d="M -37.93978,-91.382072 H 343.06021 V 289.61792 H -37.93978 Z"
           id="path6249"
           style="stroke-width:0.352778" />
      </g>
    </clipPath>
    <clipPath
       clipPathUnits="userSpaceOnUse"
       id="clipPath6253">
      <g
         id="g6257">
        <path
           d="M -37.93978,-91.382072 H 343.06021 V 289.61792 H -37.93978 Z"
           id="path6255"
           style="stroke-width:0.352778" />
      </g>
    </clipPath>
    <clipPath
       clipPathUnits="userSpaceOnUse"
       id="clipPath6259">
      <g
         id="g6263">
        <path
           d="M -37.93978,-91.382072 H 343.06021 V 289.61792 H -37.93978 Z"
           id="path6261"
           style="stroke-width:0.352778" />
      </g>
    </clipPath>
    <clipPath
       clipPathUnits="userSpaceOnUse"
       id="clipPath6265">
      <g
         id="g6269"
         transform="matrix(2.8346457,0,0,-2.8346457,-655.59086,305.67371)">
        <path
           d="M -37.93978,-91.382072 H 343.06021 V 289.61792 H -37.93978 Z"
           id="path6267"
           style="stroke-width:0.352778" />
      </g>
    </clipPath>
    <clipPath
       clipPathUnits="userSpaceOnUse"
       id="clipPath6271">
      <g
         id="g6275"
         transform="matrix(2.8346457,0,0,-2.8346457,-623.87505,299.5545)">
        <path
           d="M -37.93978,-91.382072 H 343.06021 V 289.61792 H -37.93978 Z"
           id="path6273"
           style="stroke-width:0.352778" />
      </g>
    </clipPath>
    <clipPath
       clipPathUnits="userSpaceOnUse"
       id="clipPath6277">
      <g
         id="g6281"
         transform="matrix(2.8346457,0,0,-2.8346457,-599.25105,300.63411)">
        <path
           d="M -37.93978,-91.382072 H 343.06021 V 289.61792 H -37.93978 Z"
           id="path6279"
           style="stroke-width:0.352778" />
      </g>
    </clipPath>
    <clipPath
       clipPathUnits="userSpaceOnUse"
       id="clipPath6283">
      <g
         id="g6287"
         transform="matrix(2.8346457,0,0,-2.8346457,-555.83596,305.67371)">
        <path
           d="M -37.93978,-91.382072 H 343.06021 V 289.61792 H -37.93978 Z"
           id="path6285"
           style="stroke-width:0.352778" />
      </g>
    </clipPath>
    <clipPath
       clipPathUnits="userSpaceOnUse"
       id="clipPath6289">
      <g
         id="g6293"
         transform="matrix(2.8346457,0,0,-2.8346457,-541.47275,299.1585)">
        <path
           d="M -37.93978,-91.382072 H 343.06021 V 289.61792 H -37.93978 Z"
           id="path6291"
           style="stroke-width:0.352778" />
      </g>
    </clipPath>
    <clipPath
       clipPathUnits="userSpaceOnUse"
       id="clipPath6295">
      <g
         id="g6299"
         transform="matrix(2.8346457,0,0,-2.8346457,-523.21976,302.1463)">
        <path
           d="M -37.93978,-91.382072 H 343.06021 V 289.61792 H -37.93978 Z"
           id="path6297"
           style="stroke-width:0.352778" />
      </g>
    </clipPath>
    <clipPath
       clipPathUnits="userSpaceOnUse"
       id="clipPath6301">
      <g
         id="g6305"
         transform="matrix(2.8346457,0,0,-2.8346457,-494.99616,300.63411)">
        <path
           d="M -37.93978,-91.382072 H 343.06021 V 289.61792 H -37.93978 Z"
           id="path6303"
           style="stroke-width:0.352778" />
      </g>
    </clipPath>
    <clipPath
       clipPathUnits="userSpaceOnUse"
       id="clipPath6307">
      <g
         id="g6311"
         transform="matrix(2.8346457,0,0,-2.8346457,-463.56937,305.67371)">
        <path
           d="M -37.93978,-91.382072 H 343.06021 V 289.61792 H -37.93978 Z"
           id="path6309"
           style="stroke-width:0.352778" />
      </g>
    </clipPath>
    <clipPath
       clipPathUnits="userSpaceOnUse"
       id="clipPath6313">
      <g
         id="g6317"
         transform="matrix(2.8346457,0,0,-2.8346457,-446.50688,298.7625)">
        <path
           d="M -37.93978,-91.382072 H 343.06021 V 289.61792 H -37.93978 Z"
           id="path6315"
           style="stroke-width:0.352778" />
      </g>
    </clipPath>
    <clipPath
       clipPathUnits="userSpaceOnUse"
       id="clipPath6319">
      <g
         id="g6323"
         transform="matrix(2.8346457,0,0,-2.8346457,-437.21786,299.1585)">
        <path
           d="M -37.93978,-91.382072 H 343.06021 V 289.61792 H -37.93978 Z"
           id="path6321"
           style="stroke-width:0.352778" />
      </g>
    </clipPath>
    <clipPath
       clipPathUnits="userSpaceOnUse"
       id="clipPath6325">
      <g
         id="g6329"
         transform="matrix(2.8346457,0,0,-2.8346457,-418.96486,302.1463)">
        <path
           d="M -37.93978,-91.382072 H 343.06021 V 289.61792 H -37.93978 Z"
           id="path6327"
           style="stroke-width:0.352778" />
      </g>
    </clipPath>
    <clipPath
       clipPathUnits="userSpaceOnUse"
       id="clipPath6331">
      <g
         id="g6335"
         transform="matrix(2.8346457,0,0,-2.8346457,-391.82137,301.0663)">
        <path
           d="M -37.93978,-91.382072 H 343.06021 V 289.61792 H -37.93978 Z"
           id="path6333"
           style="stroke-width:0.352778" />
      </g>
    </clipPath>
    <clipPath
       clipPathUnits="userSpaceOnUse"
       id="clipPath6337">
      <g
         id="g6341"
         transform="matrix(2.8346457,0,0,-2.8346457,-367.66605,313.9886)">
        <path
           d="M -37.93978,-91.382072 H 343.06021 V 289.61792 H -37.93978 Z"
           id="path6339"
           style="stroke-width:0.352778" />
      </g>
    </clipPath>
    <clipPath
       clipPathUnits="userSpaceOnUse"
       id="clipPath6343">
      <g
         id="g6347"
         transform="matrix(2.8346457,0,0,-2.8346457,-343.00687,299.5545)">
        <path
           d="M -37.93978,-91.382072 H 343.06021 V 289.61792 H -37.93978 Z"
           id="path6345"
           style="stroke-width:0.352778" />
      </g>
    </clipPath>
    <clipPath
       clipPathUnits="userSpaceOnUse"
       id="clipPath6349">
      <g
         id="g6353"
         transform="matrix(2.8346457,0,0,-2.8346457,-304.34375,315.68049)">
        <path
           d="M -37.93978,-91.382072 H 343.06021 V 289.61792 H -37.93978 Z"
           id="path6351"
           style="stroke-width:0.352778" />
      </g>
    </clipPath>
    <clipPath
       clipPathUnits="userSpaceOnUse"
       id="clipPath6355">
      <g
         id="g6359"
         transform="matrix(2.8346457,0,0,-2.8346457,-540.53616,267.6737)">
        <path
           d="M -37.93978,-91.382072 H 343.06021 V 289.61792 H -37.93978 Z"
           id="path6357"
           style="stroke-width:0.352778" />
      </g>
    </clipPath>
    <clipPath
       clipPathUnits="userSpaceOnUse"
       id="clipPath6361">
      <g
         id="g6365"
         transform="matrix(2.8346457,0,0,-2.8346457,-526.17287,261.1585)">
        <path
           d="M -37.93978,-91.382072 H 343.06021 V 289.61792 H -37.93978 Z"
           id="path6363"
           style="stroke-width:0.352778" />
      </g>
    </clipPath>
    <clipPath
       clipPathUnits="userSpaceOnUse"
       id="clipPath6367">
      <g
         id="g6371"
         transform="matrix(2.8346457,0,0,-2.8346457,-507.91996,264.1463)">
        <path
           d="M -37.93978,-91.382072 H 343.06021 V 289.61792 H -37.93978 Z"
           id="path6369"
           style="stroke-width:0.352778" />
      </g>
    </clipPath>
    <clipPath
       clipPathUnits="userSpaceOnUse"
       id="clipPath6373">
      <g
         id="g6377"
         transform="matrix(2.8346457,0,0,-2.8346457,-479.69635,262.6341)">
        <path
           d="M -37.93978,-91.382072 H 343.06021 V 289.61792 H -37.93978 Z"
           id="path6375"
           style="stroke-width:0.352778" />
      </g>
    </clipPath>
    <clipPath
       clipPathUnits="userSpaceOnUse"
       id="clipPath6379">
      <g
         id="g6383"
         transform="matrix(2.8346457,0,0,-2.8346457,-448.26957,267.6737)">
        <path
           d="M -37.93978,-91.382072 H 343.06021 V 289.61792 H -37.93978 Z"
           id="path6381"
           style="stroke-width:0.352778" />
      </g>
    </clipPath>
    <clipPath
       clipPathUnits="userSpaceOnUse"
       id="clipPath6385">
      <g
         id="g6389"
         transform="matrix(2.8346457,0,0,-2.8346457,-434.37306,273.1087)">
        <path
           d="M -37.93978,-91.382072 H 343.06021 V 289.61792 H -37.93978 Z"
           id="path6387"
           style="stroke-width:0.352778" />
      </g>
    </clipPath>
    <clipPath
       clipPathUnits="userSpaceOnUse"
       id="clipPath6391">
      <g
         id="g6395"
         transform="matrix(2.8346457,0,0,-2.8346457,-404.53036,261.5545)">
        <path
           d="M -37.93978,-91.382072 H 343.06021 V 289.61792 H -37.93978 Z"
           id="path6393"
           style="stroke-width:0.352778" />
      </g>
    </clipPath>
    <clipPath
       clipPathUnits="userSpaceOnUse"
       id="clipPath6397">
      <g
         id="g6401"
         transform="matrix(2.8346457,0,0,-2.8346457,-386.06157,272.6048)">
        <path
           d="M -37.93978,-91.382072 H 343.06021 V 289.61792 H -37.93978 Z"
           id="path6399"
           style="stroke-width:0.352778" />
      </g>
    </clipPath>
    <clipPath
       clipPathUnits="userSpaceOnUse"
       id="clipPath6403">
      <g
         id="g6407"
         transform="matrix(2.8346457,0,0,-2.8346457,-357.11825,264.1463)">
        <path
           d="M -37.93978,-91.382072 H 343.06021 V 289.61792 H -37.93978 Z"
           id="path6405"
           style="stroke-width:0.352778" />
      </g>
    </clipPath>
    <clipPath
       clipPathUnits="userSpaceOnUse"
       id="clipPath6409">
      <g
         id="g6413"
         transform="matrix(2.8346457,0,0,-2.8346457,-334.11527,261.1585)">
        <path
           d="M -37.93978,-91.382072 H 343.06021 V 289.61792 H -37.93978 Z"
           id="path6411"
           style="stroke-width:0.352778" />
      </g>
    </clipPath>
    <clipPath
       clipPathUnits="userSpaceOnUse"
       id="clipPath6415">
      <g
         id="g6419"
         transform="matrix(2.8346457,0,0,-2.8346457,-316.47365,255.3993)">
        <path
           d="M -37.93978,-91.382072 H 343.06021 V 289.61792 H -37.93978 Z"
           id="path6417"
           style="stroke-width:0.352778" />
      </g>
    </clipPath>
    <clipPath
       clipPathUnits="userSpaceOnUse"
       id="clipPath6421">
      <g
         id="g6425"
         transform="matrix(2.8346457,0,0,-2.8346457,-223.51866,250.2489)">
        <path
           d="M -37.93978,-91.382072 H 343.06021 V 289.61792 H -37.93978 Z"
           id="path6423"
           style="stroke-width:0.352778" />
      </g>
    </clipPath>
    <clipPath
       clipPathUnits="userSpaceOnUse"
       id="clipPath6427">
      <g
         id="g6431"
         transform="matrix(2.8346457,0,0,-2.8346457,-177.92877,248.2918)">
        <path
           d="M -37.93978,-91.382072 H 343.06021 V 289.61792 H -37.93978 Z"
           id="path6429"
           style="stroke-width:0.352778" />
      </g>
    </clipPath>
    <clipPath
       clipPathUnits="userSpaceOnUse"
       id="clipPath6433">
      <g
         id="g6437"
         transform="matrix(2.8346457,0,0,-2.8346457,-135.49806,256.9149)">
        <path
           d="M -37.93978,-91.382072 H 343.06021 V 289.61792 H -37.93978 Z"
           id="path6435"
           style="stroke-width:0.352778" />
      </g>
    </clipPath>
    <clipPath
       clipPathUnits="userSpaceOnUse"
       id="clipPath6439">
      <g
         id="g6443"
         transform="matrix(2.8346457,0,0,-2.8346457,-88.827165,248.4549)">
        <path
           d="M -37.93978,-91.382072 H 343.06021 V 289.61792 H -37.93978 Z"
           id="path6441"
           style="stroke-width:0.352778" />
      </g>
    </clipPath>
    <clipPath
       clipPathUnits="userSpaceOnUse"
       id="clipPath6445">
      <g
         id="g6449"
         transform="matrix(2.8346457,0,0,-2.8346457,-44.603564,259.9525)">
        <path
           d="M -37.93978,-91.382072 H 343.06021 V 289.61792 H -37.93978 Z"
           id="path6447"
           style="stroke-width:0.352778" />
      </g>
    </clipPath>
    <clipPath
       clipPathUnits="userSpaceOnUse"
       id="clipPath6451">
      <g
         id="g6455"
         transform="matrix(2.8346457,0,0,-2.8346457,-227.16706,310.87531)">
        <path
           d="M -37.93978,-91.382072 H 343.06021 V 289.61792 H -37.93978 Z"
           id="path6453"
           style="stroke-width:0.352778" />
      </g>
    </clipPath>
    <clipPath
       clipPathUnits="userSpaceOnUse"
       id="clipPath6457">
      <g
         id="g6461"
         transform="matrix(2.8346457,0,0,-2.8346457,-154.25496,278.37)">
        <path
           d="M -37.93978,-91.382072 H 343.06021 V 289.61792 H -37.93978 Z"
           id="path6459"
           style="stroke-width:0.352778" />
      </g>
    </clipPath>
    <clipPath
       clipPathUnits="userSpaceOnUse"
       id="clipPath6463">
      <g
         id="g6467"
         transform="matrix(2.8346457,0,0,-2.8346457,-121.75006,280.473)">
        <path
           d="M -37.93978,-91.382072 H 343.06021 V 289.61792 H -37.93978 Z"
           id="path6465"
           style="stroke-width:0.352778" />
      </g>
    </clipPath>
  </defs>
  <g
     id="layer1"
     transform="translate(-5.8705555,-52.60313)"
     style="display:inline">
    <g
       id="g957"
       transform="matrix(0.06419393,0,0,0.06419393,5.7936924,51.447639)">
      <g
         id="g12">
        <path
           class="st1"
           d="m 43.32,171.38 h -6.44 l -21.61,-45 h 7.08 L 40.2,164.3 57.54,126.38 h 7.01 z"
           id="path4"
           style="fill:#39556e" />
        <path
           class="st1"
           d="m 110.63,150.29 c -3.89,3 -8.09,3.06 -12.75,3.06 H 76.27 v 18.04 h -6.5 v -45 H 97.3 c 1.15,0 2.29,0.06 3.44,0.13 1.98,0.19 8.48,0.45 12.3,5.93 1.53,2.23 2.29,4.97 2.29,7.71 0.01,1.78 -0.31,6.81 -4.7,10.13 z m -3.83,-15.36 c -2.55,-3.19 -6.88,-3.19 -10.52,-3.19 H 76.21 v 16.25 h 20.78 c 3.51,0 7.33,-0.13 9.75,-3.12 0.7,-0.83 1.66,-2.42 1.66,-5.1 -0.01,-0.83 -0.07,-2.93 -1.6,-4.84 z"
           id="path6"
           style="fill:#39556e" />
        <path
           class="st1"
           d="m 158.55,171.38 -5.48,-11.09 h -27.66 l -5.48,11.09 h -7.2 l 23.33,-45 h 6.82 l 23.07,45 z m -19.24,-38.56 -11.22,22.31 h 22.24 z"
           id="path8"
           style="fill:#39556e" />
        <path
           class="st1"
           d="m 212.22,165.33 c -4.02,5.61 -11.6,6.5 -13.26,6.69 -1.02,0.13 -3.63,0.45 -6.5,0.45 -1.28,0 -6.82,-0.13 -11.6,-1.34 -1.02,-0.25 -2.61,-0.64 -4.84,-1.59 -2.36,-1.02 -3.95,-2.17 -4.72,-2.74 -2.42,-1.85 -3.5,-3.51 -4.21,-4.53 l 5.93,-2.42 c 0.32,0.38 0.57,0.7 0.96,1.08 0.96,0.96 3.06,2.61 6.18,3.89 5.16,2.1 11.28,2.17 12.75,2.17 1.15,0 7.9,0.19 12.24,-3.06 2.68,-2.04 3.06,-4.84 3.06,-6.06 0,-2.61 -1.47,-4.52 -3.82,-5.54 -3.31,-1.47 -11.09,-1.91 -14.66,-2.23 -8.6,-0.7 -12.81,-1.15 -16.12,-4.21 -3.06,-2.8 -3.19,-5.99 -3.19,-7.52 0,-6.31 4.33,-9.18 6.25,-10.2 2.68,-1.47 7.58,-2.93 14.85,-2.93 8.92,0 14.28,2.17 17.53,4.27 0.76,0.51 1.4,0.96 2.04,1.53 1.47,1.21 2.55,2.8 2.93,3.25 l -5.86,2.36 c -0.32,-0.32 -1.47,-1.47 -2.74,-2.36 -2.49,-1.72 -6.76,-3.76 -13.83,-3.76 -4.59,0 -8.16,0.83 -9.82,1.47 -3.89,1.47 -4.97,4.14 -4.97,6.05 0,0.96 0.25,1.98 0.76,2.8 1.59,2.55 4.78,2.8 7.39,3.12 4.97,0.64 9.94,0.89 14.91,1.47 6.95,0.83 10.13,2.61 12.3,5.29 2.23,2.87 2.36,5.74 2.36,7.07 -0.01,3.83 -1.41,6.32 -2.3,7.53 z"
           id="path10"
           style="fill:#39556e" />
      </g>
      <g
         id="g24">
        <path
           class="st0"
           d="m 29.65,114.41 v -1.98 c -0.31,0.31 -0.61,0.59 -0.96,0.84 -0.82,0.57 -2.69,1.47 -5.32,1.47 -3.87,0 -5.95,-2 -6.83,-3.2 -0.49,-0.65 -1.41,-2.16 -1.41,-4.36 0,-0.69 0.1,-2.39 1.18,-4.02 0.29,-0.43 0.57,-0.77 0.94,-1.12 0.98,-0.92 3.08,-2.36 6.48,-2.36 0.82,0 2.77,0.06 4.81,1.12 1.04,0.53 1.61,1.08 1.94,1.45 0.33,0.35 0.47,0.51 0.86,1.22 l -2,0.61 c -0.14,-0.2 -0.35,-0.55 -0.78,-0.96 -0.69,-0.63 -2.24,-1.69 -4.69,-1.69 -0.45,0 -1.57,0.04 -2.75,0.45 -2.34,0.82 -3.81,2.69 -3.81,5.22 0,1.28 0.47,2.75 1.3,3.75 1.69,2.06 4.44,2.18 5.2,2.18 2,0 4.24,-0.86 5.32,-2.63 0.39,-0.65 0.47,-1.14 0.57,-1.85 h -6.34 v -1.71 h 8.05 v 7.58 h -1.76 z"
           id="path14"
           style="fill:#7b7a7a" />
        <path
           class="st0"
           d="m 75.12,114.41 -4.87,-5.77 H 63.3 v 5.77 h -2.06 v -14.39 h 9.81 c 1.22,0 1.67,0.06 2.28,0.22 1.94,0.51 3.04,2.02 3.04,4 0,0.77 -0.16,2.79 -2.32,3.69 -0.37,0.14 -0.75,0.26 -1.57,0.39 l 5.32,6.1 h -2.68 z m -1.24,-11.5 c -0.61,-1.08 -1.57,-1.18 -2.69,-1.18 h -7.91 v 5.22 h 7.12 c 1.16,0 2.53,-0.04 3.32,-1.06 0.2,-0.24 0.53,-0.73 0.53,-1.57 0,-0.27 -0.03,-0.82 -0.37,-1.41 z"
           id="path16"
           style="fill:#7b7a7a" />
        <path
           class="st0"
           d="m 120.55,111.37 c -1.12,2.73 -4.32,3.38 -6.93,3.38 -0.69,0 -3.32,0.02 -5.36,-1.41 -0.86,-0.59 -1.24,-1.22 -1.45,-1.59 -0.57,-1.06 -0.61,-2.12 -0.61,-3.28 v -8.46 h 2.06 v 8.54 c 0,0.16 -0.02,0.77 0.08,1.35 0.2,1.33 0.88,1.79 1.39,2.12 0.71,0.45 1.9,0.96 3.91,0.96 0.26,0 2.69,0 4.08,-1.02 0.49,-0.37 0.77,-0.86 0.86,-1.04 0.33,-0.67 0.33,-1.35 0.33,-2.1 v -8.81 h 2.06 v 8.66 c -0.01,0.97 -0.03,1.78 -0.42,2.7 z"
           id="path18"
           style="fill:#7b7a7a" />
        <path
           class="st0"
           d="m 164.2,107.66 c -1.24,0.96 -2.59,0.98 -4.08,0.98 h -6.91 v 5.77 h -2.08 v -14.39 h 8.81 c 0.37,0 0.73,0.02 1.1,0.04 0.63,0.06 2.71,0.14 3.93,1.9 0.49,0.71 0.73,1.59 0.73,2.47 0.01,0.56 -0.09,2.17 -1.5,3.23 z m -1.22,-4.91 c -0.82,-1.02 -2.2,-1.02 -3.36,-1.02 h -6.42 v 5.2 h 6.65 c 1.12,0 2.34,-0.04 3.12,-1 0.22,-0.27 0.53,-0.77 0.53,-1.63 -0.01,-0.27 -0.03,-0.94 -0.52,-1.55 z"
           id="path20"
           style="fill:#7b7a7a" />
        <path
           class="st0"
           d="m 209.28,112.31 c -1,1.04 -3.2,2.49 -6.81,2.49 -0.37,0 -1.2,-0.02 -2.2,-0.18 -0.98,-0.14 -3.89,-0.67 -5.57,-3.36 -0.98,-1.59 -1.04,-3.22 -1.04,-3.87 0,-1.65 0.43,-3.3 1.45,-4.59 0.2,-0.26 0.47,-0.57 1.04,-1.04 0.98,-0.82 2.96,-2.08 6.2,-2.08 0.65,0 2.61,0.06 4.46,0.92 1.18,0.55 2.32,1.45 3.08,2.53 1.18,1.71 1.26,3.61 1.26,4.3 0.01,0.82 -0.11,3.06 -1.87,4.88 z m -0.71,-7.61 c -1.55,-3.32 -5.65,-3.3 -6.46,-3.28 -0.61,0.02 -3.2,0.16 -4.87,1.83 -0.29,0.29 -0.86,0.92 -1.2,1.94 -0.22,0.65 -0.33,1.41 -0.33,2.1 0,0.53 0.06,2.08 1.04,3.4 0.2,0.26 0.51,0.63 1.14,1.08 0.84,0.59 2.24,1.24 4.63,1.24 0.39,0 1.35,0 2.43,-0.29 2.02,-0.53 3.49,-1.88 3.98,-3.91 0.06,-0.29 0.18,-0.88 0.18,-1.61 -0.01,-1.21 -0.34,-2.07 -0.54,-2.5 z"
           id="path22"
           style="fill:#7b7a7a" />
      </g>
      <g
         id="g938"
         transform="translate(-0.81000275,-17.950013)">
        <path
           class="st2"
           d="m 223.09,209.66 c -23.37,33.19 -61.98,54.87 -105.65,54.87 -43.67,0 -82.28,-21.68 -105.65,-54.87"
           id="path26"
           style="fill:none;stroke:#39556e;stroke-width:12;stroke-miterlimit:10" />
        <path
           class="st3"
           d="m 207.01,209.66 c -21.34,25.73 -53.56,42.12 -89.61,42.12 -36.05,0 -68.26,-16.38 -89.6,-42.12"
           id="path30"
           style="fill:none;stroke:#7b7a7a;stroke-width:6;stroke-miterlimit:10" />
      </g>
      <g
         id="g257"
         transform="translate(-0.49593452,-2.3)">
        <path
           class="st2"
           d="M 6.83,88.78 C 29.43,51.34 70.51,26.3 117.44,26.3 c 46.51,0 87.28,24.59 110.01,61.49"
           id="path28"
           style="fill:none;stroke:#39556e;stroke-width:12;stroke-miterlimit:10" />
        <path
           class="st3"
           d="M 22.19,88.51 C 43.25,58.6 78.05,39.05 117.41,39.05 c 39.36,0 74.16,19.54 95.22,49.46"
           id="path32"
           style="fill:none;stroke:#7b7a7a;stroke-width:6;stroke-miterlimit:10" />
      </g>
    </g>
  </g>
  <g
     inkscape:groupmode="layer"
     id="layer2"
     inkscape:label="layer 2"
     style="display:inline">
    <g
       id="g5904"
       transform="matrix(0.18230294,0,0,0.18230294,30.940449,6.4510072)">
      <path
         d="m -62.672071,-3.7688779 c 0,-0.5461 -0.1524,-1.0922 -0.4572,-1.5366999 -0.762,-1.0922 -2.0574,-1.143 -2.4511,-1.1811 -0.2286,-0.0127 -0.4572,-0.0254 -0.6858,-0.0254 h -5.4864 V 2.454122 h 1.2954 v -3.5940999 h 4.3053 c 0.9271,0 1.7653,-0.0127 2.54,-0.6096 0.8763,-0.6604 0.9398,-1.6637 0.9398,-2.0193 z m -1.3843,-0.0762 c 0,0.5334 -0.1905,0.8509 -0.3302,1.016 -0.4826,0.5969 -1.2446,0.6223 -1.9431,0.6223 h -4.1402 v -3.2384999 h 4.0005 c 0.7239,0 1.5875,0 2.0955,0.6349999 0.3048,0.381 0.3175,0.8001 0.3175,0.9652 z"
         id="path876"
         style="font-weight:500;font-size:36px;font-family:'Akzidenz-Grotesk BQ Extended';-inkscape-font-specification:AkzidenzGroteskBQ-Ext;fill:#7b7a7a;stroke-width:0.352778" />
      <path
         d="m -57.198354,-2.6385779 v -1.1811 c -0.1524,-0.0381 -0.3556,-0.1016 -0.7112,-0.1016 -0.9906,0 -1.7272,0.3683 -2.0447,0.5842 -0.1905,0.127 -0.254,0.2032 -0.3429,0.2921 l -0.0127,-0.6985 h -1.1938 V 2.454122 h 1.2065 v -3.35279994 c 0,-0.27939996 0.0127,-0.53339996 0.1016,-0.80009996 0.4064,-1.1176 1.8288,-1.0795 2.0447,-1.0795 0.4826,0 0.7239,0.0762 0.9525,0.1397 z"
         id="path878"
         style="font-weight:500;font-size:36px;font-family:'Akzidenz-Grotesk BQ Extended';-inkscape-font-specification:AkzidenzGroteskBQ-Ext;fill:#7b7a7a;stroke-width:0.352778" />
      <path
         d="m -48.536964,-0.61927794 c 0,-0.99059996 -0.3937,-1.62559996 -0.635,-1.91769996 -0.1397,-0.1651 -0.3429,-0.3683 -0.5207,-0.508 -0.2794,-0.2286 -0.4953,-0.3302 -0.635,-0.3937 -0.9144,-0.4318 -1.9812,-0.4572 -2.2733,-0.4572 -0.4699,0 -2.5273,0.0635 -3.5433,1.6637 -0.4445,0.7112 -0.4826,1.39699996 -0.4826,1.71449995 0,2.07009995 1.8415,2.78129995 2.4003,2.94639995 0.6985,0.2032 1.4351,0.2159 1.6637,0.2159 2.032,0 3.1496,-0.9398 3.5941,-1.66369998 0.4064,-0.66039998 0.4318,-1.34619997 0.4318,-1.60019996 z m -1.2065,-0.0254 c 0,1.06679997 -0.7112,1.61289996 -1.016,1.80339994 -0.5334,0.3429 -1.1303,0.4826 -1.7399,0.4826 -1.4097,0 -2.1844,-0.5842 -2.54,-1.06679997 -0.3429,-0.46989999 -0.3683,-0.95249998 -0.3683,-1.16839997 0,-0.64769996 0.2667,-1.23189996 0.7493,-1.63829996 0.5588,-0.4826 1.2827,-0.6604 2.0066,-0.6731 0.2794,0 1.8923,-0.0127 2.6162,1.1811 0.2667,0.4445 0.2921,0.90169996 0.2921,1.07949996 z"
         id="path880"
         style="font-weight:500;font-size:36px;font-family:'Akzidenz-Grotesk BQ Extended';-inkscape-font-specification:AkzidenzGroteskBQ-Ext;fill:#7b7a7a;stroke-width:0.352778" />
      <path
         d="m -39.532658,0.80312203 -1.1557,-0.3048 c -0.1524,0.2286 -0.254,0.38099999 -0.4699,0.55879997 -0.761999,0.6223 -1.866899,0.6477 -2.095499,0.6477 -1.4478,0 -2.2352,-0.6731 -2.5527,-1.16839997 -0.2794,-0.45719999 -0.3048,-0.92709998 -0.3048,-1.11759997 0,-0.3937 0.0889,-1.25729996 0.9652,-1.85419996 0.7366,-0.4953 1.5875,-0.5334 1.8796,-0.5334 0.2667,0 1.397,0.0381 2.133599,0.7493 0.1016,0.1016 0.2159,0.2286 0.381,0.508 l 1.1557,-0.3302 c -0.1651,-0.2794 -0.2667,-0.4445 -0.4826,-0.6858 -0.2921,-0.3175 -0.5715,-0.4953 -0.7239,-0.5842 -0.952499,-0.5969 -2.133599,-0.6096 -2.463799,-0.6096 -1.7018,0 -2.7178,0.5969 -3.2258,1.0795 -0.1905,0.1905 -0.3175,0.3683 -0.381,0.4445 -0.381,0.5334 -0.5207,1.0668 -0.5207,1.71449996 0,0.39369999 0.0254,1.29539997 0.7112,2.10819994 0.8128,0.9652 2.1717,1.2446 3.3782,1.2446 1.1176,0 1.866899,-0.2667 2.285999,-0.4572 0.1524,-0.0762 0.8001,-0.4191 1.1938,-0.9525 0.1016,-0.1397 0.1905,-0.30479998 0.2921,-0.45719997 z"
         id="path882"
         style="font-weight:500;font-size:36px;font-family:'Akzidenz-Grotesk BQ Extended';-inkscape-font-specification:AkzidenzGroteskBQ-Ext;fill:#7b7a7a;stroke-width:0.352778" />
      <path
         d="m -31.036358,-0.50497795 c 0,-0.15239999 0,-0.30479999 -0.0254,-0.46989999 -0.1016,-0.81279996 -0.508,-1.34619996 -0.6985,-1.58749996 -1.0287,-1.3081 -2.5781,-1.3843 -3.1115,-1.3843 -0.3556,0 -0.635,0.0381 -0.7747,0.0635 -0.508,0.0762 -2.159,0.3937 -2.7813,2.032 -0.1905,0.508 -0.2159,0.96519996 -0.2159,1.15569996 0.0127,2.22249994 1.7907,3.34009994 3.7973,3.34009994 1.0287,0 1.8034,-0.2794 2.1463,-0.4445 0.1905,-0.0889 0.8255,-0.4191 1.2192,-0.9906 0.127,-0.1778 0.2286,-0.36829998 0.3175,-0.55879997 l -1.1557,-0.31749999 c -0.127,0.22859999 -0.2032,0.38099999 -0.381,0.57149998 -0.508,0.54609998 -1.2446,0.77469998 -1.9812,0.77469998 -1.0795,0 -1.7653,-0.4699 -2.0701,-0.76199998 -0.4445,-0.41909999 -0.5588,-0.82549998 -0.6477,-1.42239997 z m -1.3589,-0.90169995 h -4.9657 c 0.1143,-0.2794 0.1397,-0.3175 0.2413,-0.4699 0.5207,-0.8255 1.3843,-1.1684 2.3241,-1.1684 0.4064,0 0.6604,0.0508 0.8255,0.1016 0.3302,0.1016 0.5588,0.2413 0.6604,0.3048 0.3048,0.2032 0.6477,0.4953 0.9144,1.2319 z"
         id="path884"
         style="font-weight:500;font-size:36px;font-family:'Akzidenz-Grotesk BQ Extended';-inkscape-font-specification:AkzidenzGroteskBQ-Ext;fill:#7b7a7a;stroke-width:0.352778" />
      <path
         d="m -22.578144,0.58722203 c 0,-0.55879999 -0.2413,-1.06679998 -0.7239,-1.38429997 -0.3937,-0.25399996 -0.8509,-0.35559996 -1.8034,-0.43179996 -1.3081,-0.1143 -2.4765,-0.1524 -2.9083,-0.4064 -0.254,-0.1397 -0.3048,-0.3683 -0.3048,-0.4826 0,-0.1397 0.0381,-0.3048 0.2667,-0.4826 0.3302,-0.2413 0.8763,-0.3683 1.7526,-0.3683 0.381,0 1.6256,0.0254 2.6416,0.7239 l 1.0541,-0.5842 c -0.1524,-0.1524 -0.3429,-0.3048 -0.762,-0.5334 -0.8636,-0.4572 -1.8796,-0.6223 -2.8448,-0.6223 -0.127,0 -1.5875,0 -2.4511,0.4445 -0.5969,0.3048 -0.9906,0.8382 -0.9906,1.524 0,0.4826 0.2032,0.9144 0.5842,1.19379996 0.4572,0.33019999 1.0541,0.43179999 1.5875,0.49529999 1.5113,0.1651 2.6797,0.127 3.2258,0.41909999 0.3302,0.1651 0.3937,0.40639999 0.3937,0.57149999 0,0.31749999 -0.2286,0.55879997 -0.4953,0.69849997 -0.5715,0.3048 -1.6891,0.3048 -1.7145,0.3048 -0.2921,0 -1.5113,-0.0254 -2.4892,-0.5334 -0.2794,-0.15239998 -0.5715,-0.38099997 -0.635,-0.43179997 l -1.0414,0.68579997 c 1.4351,1.2954 3.81,1.2954 4.2291,1.2954 0.0508,0 2.4765,0.0889 3.2258,-1.2446 0.1905,-0.3429 0.2032,-0.71119997 0.2032,-0.85089997 z"
         id="path886"
         style="font-weight:500;font-size:36px;font-family:'Akzidenz-Grotesk BQ Extended';-inkscape-font-specification:AkzidenzGroteskBQ-Ext;fill:#7b7a7a;stroke-width:0.352778" />
      <path
         d="m -13.345258,2.454122 v -0.8382 c -0.2286,0.0254 -0.3302,0.0381 -0.4445,0.0381 -0.4318,0 -0.5842,-0.1778 -0.6477,-0.3683 -0.0508,-0.1651 -0.0508,-0.40639998 -0.0508,-0.80009997 V -1.7749779 c 0,-0.4699 0,-0.889 -0.3048,-1.2954 -0.3683,-0.4953 -1.016,-0.635 -1.1811,-0.6731 -0.7112,-0.1778 -1.5875,-0.1905 -1.7653,-0.1905 -1.0922,0 -1.8669,0.1651 -2.2733,0.3302 -0.4572,0.1905 -0.6858,0.4699 -0.8001,0.635 -0.1524,0.2286 -0.2667,0.5588 -0.2794,0.6096 l 1.2192,0.1143 c 0.127,-0.2286 0.1651,-0.2794 0.2794,-0.3683 0.4953,-0.3937 1.3335,-0.4445 1.9177,-0.4445 0.7366,0 1.2446,0.1143 1.5113,0.254 0.5715,0.3048 0.5461,0.8382 0.5461,1.3843 l -1.7653,0.0127 c -1.4605,0.0127 -2.4257,0.0254 -3.0226,0.2921 -0.3302,0.13969996 -1.0922,0.59689995 -1.0922,1.66369993 0,0.48259997 0.1651,0.91439997 0.4826,1.28269997 0.4318,0.4826 0.9525,0.6858 1.5748,0.7874 0.1143,0.0127 0.4953,0.0635 0.8763,0.0635 1.3843,0 2.2479,-0.4445 2.667,-0.8509 0.1524,-0.1397 0.254,-0.3048 0.2921,-0.3683 0.0508,0.4572 0.1397,1.0541 1.1938,1.0541 0.3556,0 0.7112,-0.0381 1.0668,-0.0635 z m -2.2606,-2.93369995 c -0.0127,0.1778 0,0.58419999 -0.2286,1.01599998 -0.4953,0.91439997 -1.6129,1.10489997 -1.8669,1.14299997 -0.0762,0.0127 -0.4699,0.0762 -0.8001,0.0762 -1.2319,0 -1.7907,-0.6096 -1.7907,-1.21919997 0,-0.49529999 0.381,-0.73659998 0.5207,-0.80009998 0.3937,-0.1905 0.9525,-0.2159 1.8923,-0.2159 z"
         id="path888"
         style="font-weight:500;font-size:36px;font-family:'Akzidenz-Grotesk BQ Extended';-inkscape-font-specification:AkzidenzGroteskBQ-Ext;fill:#7b7a7a;stroke-width:0.352778" />
      <path
         d="m -5.0140548,2.454122 v -8.9661998 h -1.2064999 v 3.4924999 c -0.3048,-0.2286 -0.3683,-0.254 -0.5715,-0.3683 -0.8763,-0.4699 -1.8415,-0.508 -2.1717,-0.508 -1.3970003,0 -2.3114003,0.5842 -2.7178003,0.9398 -0.9144,0.8128 -1.0033,1.8288 -1.0033,2.26059996 0,1.43509997 0.8763,2.26059994 1.2827,2.55269994 0.9271,0.6858 2.0193003,0.7112 2.4003003,0.7112 1.1684,0 1.9685,-0.3556 2.3622,-0.6096 0.1397,-0.0889 0.2794,-0.2032 0.4064,-0.3175 l 0.0127,0.8128 z m -1.143,-3.16229994 c 0,0.67309998 -0.2158999,1.11759997 -0.3809999,1.34619997 -0.4953,0.68579997 -1.4986,0.93979997 -2.3114,0.93979997 -1.3208003,0 -2.0193003,-0.62229998 -2.2987003,-1.09219997 -0.2032,-0.33019999 -0.2794,-0.68579998 -0.2794,-1.07949997 0,-0.45719996 0.1016,-1.57479996 1.3462,-2.10819996 0.3683003,-0.1524 0.7620003,-0.2286 1.1684003,-0.2286 0.254,0 1.3589,-0.0127 2.1209,0.6731 0.6222999,0.5588 0.6349999,1.2573 0.6349999,1.54939996 z"
         id="path890"
         style="font-weight:500;font-size:36px;font-family:'Akzidenz-Grotesk BQ Extended';-inkscape-font-specification:AkzidenzGroteskBQ-Ext;fill:#7b7a7a;stroke-width:0.352778" />
      <path
         d="m 4.6633485,-0.61927794 c 0,-0.99059996 -0.3937,-1.62559996 -0.6349999,-1.91769996 -0.1397,-0.1651 -0.3429,-0.3683 -0.5207,-0.508 -0.2794,-0.2286 -0.4953,-0.3302 -0.635,-0.3937 -0.9144,-0.4318 -1.98119998,-0.4572 -2.27329997,-0.4572 -0.46989999,0 -2.52729993,0.0635 -3.54329993,1.6637 -0.4445,0.7112 -0.4826,1.39699996 -0.4826,1.71449995 0,2.07009995 1.8415,2.78129995 2.4003,2.94639995 0.69849995,0.2032 1.43509993,0.2159 1.66369993,0.2159 2.03199997,0 3.14959997,-0.9398 3.59409987,-1.66369998 0.4064,-0.66039998 0.4318,-1.34619997 0.4318,-1.60019996 z m -1.2064999,-0.0254 c 0,1.06679997 -0.7112,1.61289996 -1.016,1.80339994 -0.5334,0.3429 -1.1303,0.4826 -1.73989997,0.4826 -1.40969997,0 -2.18439993,-0.5842 -2.53999993,-1.06679997 -0.3429,-0.46989999 -0.3683,-0.95249998 -0.3683,-1.16839997 0,-0.64769996 0.2667,-1.23189996 0.7493,-1.63829996 0.55879996,-0.4826 1.28269994,-0.6604 2.00659993,-0.6731 0.27939999,0 1.89229997,-0.0127 2.61619997,1.1811 0.2667,0.4445 0.2921,0.90169996 0.2921,1.07949996 z"
         id="path892"
         style="font-weight:500;font-size:36px;font-family:'Akzidenz-Grotesk BQ Extended';-inkscape-font-specification:AkzidenzGroteskBQ-Ext;fill:#7b7a7a;stroke-width:0.352778" />
      <path
         d="m 10.556155,-2.6385779 v -1.1811 c -0.1524,-0.0381 -0.3556,-0.1016 -0.7111995,-0.1016 -0.9906,0 -1.7272,0.3683 -2.0447,0.5842 -0.1905,0.127 -0.254,0.2032 -0.3429,0.2921 l -0.0127,-0.6985 H 6.2508556 V 2.454122 h 1.2064999 v -3.35279994 c 0,-0.27939996 0.0127,-0.53339996 0.1016,-0.80009996 0.4064,-1.1176 1.8288,-1.0795 2.0447,-1.0795 0.4825995,0 0.7238995,0.0762 0.9524995,0.1397 z"
         id="path894"
         style="font-weight:500;font-size:36px;font-family:'Akzidenz-Grotesk BQ Extended';-inkscape-font-specification:AkzidenzGroteskBQ-Ext;fill:#7b7a7a;stroke-width:0.352778" />
      <path
         d="m 19.204845,2.454122 v -0.8382 c -0.2286,0.0254 -0.3302,0.0381 -0.4445,0.0381 -0.4318,0 -0.5842,-0.1778 -0.6477,-0.3683 -0.0508,-0.1651 -0.0508,-0.40639998 -0.0508,-0.80009997 V -1.7749779 c 0,-0.4699 0,-0.889 -0.3048,-1.2954 -0.3683,-0.4953 -1.016,-0.635 -1.1811,-0.6731 -0.7112,-0.1778 -1.5875,-0.1905 -1.7653,-0.1905 -1.0922,0 -1.8669,0.1651 -2.2733,0.3302 -0.4572,0.1905 -0.6858,0.4699 -0.8001,0.635 -0.1524,0.2286 -0.2667,0.5588 -0.2794,0.6096 l 1.2192,0.1143 c 0.127,-0.2286 0.1651,-0.2794 0.2794,-0.3683 0.4953,-0.3937 1.3335,-0.4445 1.9177,-0.4445 0.7366,0 1.2446,0.1143 1.5113,0.254 0.5715,0.3048 0.5461,0.8382 0.5461,1.3843 l -1.7653,0.0127 c -1.4605,0.0127 -2.4257,0.0254 -3.0226,0.2921 -0.3302,0.13969996 -1.0922,0.59689995 -1.0922,1.66369993 0,0.48259997 0.1651,0.91439997 0.4826,1.28269997 0.4318,0.4826 0.9525,0.6858 1.5748,0.7874 0.1143,0.0127 0.4953,0.0635 0.8763,0.0635 1.3843,0 2.2479,-0.4445 2.667,-0.8509 0.1524,-0.1397 0.254,-0.3048 0.2921,-0.3683 0.0508,0.4572 0.1397,1.0541 1.1938,1.0541 0.3556,0 0.7112,-0.0381 1.0668,-0.0635 z m -2.2606,-2.93369995 c -0.0127,0.1778 0,0.58419999 -0.2286,1.01599998 -0.4953,0.91439997 -1.6129,1.10489997 -1.8669,1.14299997 -0.0762,0.0127 -0.4699,0.0762 -0.8001,0.0762 -1.2319,0 -1.7907,-0.6096 -1.7907,-1.21919997 0,-0.49529999 0.381,-0.73659998 0.5207,-0.80009998 0.3937,-0.1905 0.9525,-0.2159 1.8923,-0.2159 z"
         id="path896"
         style="font-weight:500;font-size:36px;font-family:'Akzidenz-Grotesk BQ Extended';-inkscape-font-specification:AkzidenzGroteskBQ-Ext;fill:#7b7a7a;stroke-width:0.352778" />
      <path
         d="m -65.148571,9.6550183 h -1.3462 l -2.5146,5.0037997 -2.4257,-5.0037997 h -1.3716 l 3.1496,6.2483997 c -0.4191,0.7747 -0.7493,1.0668 -1.4986,1.0668 -0.3048,0 -0.635,-0.0508 -1.27,-0.1905 v 1.0922 c 0.1397,0.0254 0.8255,0.1397 1.4097,0.1524 1.4732,0.0127 1.9431,-0.7366 2.3622,-1.5621 z"
         id="path898"
         style="font-weight:500;font-size:36px;font-family:'Akzidenz-Grotesk BQ Extended';-inkscape-font-specification:AkzidenzGroteskBQ-Ext;fill:#7b7a7a;stroke-width:0.352778" />
      <path
         d="m -52.740654,12.906218 c 0,-0.1524 0,-0.3048 -0.0254,-0.4699 -0.1016,-0.8128 -0.508,-1.3462 -0.6985,-1.5875 -1.0287,-1.3080997 -2.5781,-1.3842997 -3.1115,-1.3842997 -0.3556,0 -0.635,0.0381 -0.7747,0.0635 -0.508,0.0762 -2.159,0.3937 -2.7813,2.0319997 -0.1905,0.508 -0.2159,0.9652 -0.2159,1.1557 0.0127,2.2225 1.7907,3.3401 3.7973,3.3401 1.0287,0 1.8034,-0.2794 2.1463,-0.4445 0.1905,-0.0889 0.8255,-0.4191 1.2192,-0.9906 0.127,-0.1778 0.2286,-0.3683 0.3175,-0.5588 l -1.1557,-0.3175 c -0.127,0.2286 -0.2032,0.381 -0.381,0.5715 -0.508,0.5461 -1.2446,0.7747 -1.9812,0.7747 -1.0795,0 -1.7653,-0.4699 -2.0701,-0.762 -0.4445,-0.4191 -0.5588,-0.8255 -0.6477,-1.4224 z m -1.3589,-0.9017 h -4.9657 c 0.1143,-0.2794 0.1397,-0.3175 0.2413,-0.4699 0.5207,-0.8255 1.3843,-1.1684 2.3241,-1.1684 0.4064,0 0.6604,0.0508 0.8255,0.1016 0.3302,0.1016 0.5588,0.2413 0.6604,0.3048 0.3048,0.2032 0.6477,0.4953 0.9144,1.2319 z"
         id="path900"
         style="font-weight:500;font-size:36px;font-family:'Akzidenz-Grotesk BQ Extended';-inkscape-font-specification:AkzidenzGroteskBQ-Ext;fill:#7b7a7a;stroke-width:0.352778" />
      <path
         d="m -44.599964,15.865318 -3.1496,-3.2766 2.8067,-2.9209997 h -1.6256 l -2.0193,2.1716997 -1.9812,-2.1716997 h -1.6764 l 2.8194,2.9336997 -3.175,3.2639 h 1.6891 l 2.3495,-2.5019 2.2479,2.5019 z"
         id="path902"
         style="font-weight:500;font-size:36px;font-family:'Akzidenz-Grotesk BQ Extended';-inkscape-font-specification:AkzidenzGroteskBQ-Ext;fill:#7b7a7a;stroke-width:0.352778" />
      <path
         d="m -35.989365,12.715718 c 0,-0.5207 -0.1016,-1.0033 -0.3429,-1.4478 -0.1524,-0.2667 -0.2921,-0.4445 -0.381,-0.5461 -0.4191,-0.4826 -1.4224,-1.2064997 -3.0607,-1.2064997 -0.6731,0 -1.4859,0.127 -2.0701,0.4191 -0.2667,0.1396997 -0.5588,0.3428997 -0.6096,0.3936997 V 9.6677183 h -1.2065 v 8.6740997 h 1.2065 v -3.3401 c 0.1524,0.1524 0.2286,0.2286 0.3048,0.2794 0.4191,0.3048 1.3081,0.6985 2.6162,0.6985 1.6129,0 2.4892,-0.7493 2.8956,-1.27 0.5969,-0.7747 0.6477,-1.6637 0.6477,-1.9939 z m -1.3081,-0.0381 c 0,0.4953 -0.1397,1.651 -1.4732,2.1463 -0.4572,0.1651 -0.9144,0.1905 -1.0795,0.1905 -0.8636,0 -1.905,-0.3302 -2.3749,-1.0922 -0.1397,-0.2159 -0.2921,-0.5461 -0.2921,-1.1176 0,-0.3302 0.0127,-1.143 0.762,-1.7526 0.7112,-0.5842 1.5621,-0.5842 1.8542,-0.5842 0.4064,0 0.6096,0.0381 0.8001,0.0762 0.2032,0.0508 0.8509,0.2413 1.3081,0.762 0.4572,0.5207 0.4953,1.1176 0.4953,1.3716 z"
         id="path904"
         style="font-weight:500;font-size:36px;font-family:'Akzidenz-Grotesk BQ Extended';-inkscape-font-specification:AkzidenzGroteskBQ-Ext;fill:#7b7a7a;stroke-width:0.352778" />
      <path
         d="m -26.718358,12.791918 c 0,-0.9906 -0.3937,-1.6256 -0.635,-1.9177 -0.1397,-0.1651 -0.3429,-0.3683 -0.5207,-0.508 -0.2794,-0.2286 -0.4953,-0.3302 -0.635,-0.3936997 -0.9144,-0.4318 -1.9812,-0.4572 -2.2733,-0.4572 -0.4699,0 -2.5273,0.0635 -3.5433,1.6636997 -0.4445,0.7112 -0.4826,1.397 -0.4826,1.7145 0,2.0701 1.8415,2.7813 2.4003,2.9464 0.6985,0.2032 1.4351,0.2159 1.6637,0.2159 2.032,0 3.1496,-0.9398 3.5941,-1.6637 0.4064,-0.6604 0.4318,-1.3462 0.4318,-1.6002 z m -1.2065,-0.0254 c 0,1.0668 -0.7112,1.6129 -1.016,1.8034 -0.5334,0.3429 -1.1303,0.4826 -1.7399,0.4826 -1.4097,0 -2.1844,-0.5842 -2.54,-1.0668 -0.3429,-0.4699 -0.3683,-0.9525 -0.3683,-1.1684 0,-0.6477 0.2667,-1.2319 0.7493,-1.6383 0.5588,-0.4826 1.2827,-0.6604 2.0066,-0.6731 0.2794,0 1.8923,-0.0127 2.6162,1.1811 0.2667,0.4445 0.2921,0.9017 0.2921,1.0795 z"
         id="path906"
         style="font-weight:500;font-size:36px;font-family:'Akzidenz-Grotesk BQ Extended';-inkscape-font-specification:AkzidenzGroteskBQ-Ext;fill:#7b7a7a;stroke-width:0.352778" />
      <path
         d="M -20.825561,10.772618 V 9.5915183 c -0.1524,-0.0381 -0.3556,-0.1016 -0.7112,-0.1016 -0.9906,0 -1.7272,0.3683 -2.0447,0.5841997 -0.1905,0.127 -0.254,0.2032 -0.3429,0.2921 l -0.0127,-0.6984997 h -1.1938 v 6.1975997 h 1.2065 v -3.3528 c 0,-0.2794 0.0127,-0.5334 0.1016,-0.8001 0.4064,-1.1176 1.8288,-1.0795 2.0447,-1.0795 0.4826,0 0.7239,0.0762 0.9525,0.1397 z"
         id="path908"
         style="font-weight:500;font-size:36px;font-family:'Akzidenz-Grotesk BQ Extended';-inkscape-font-specification:AkzidenzGroteskBQ-Ext;fill:#7b7a7a;stroke-width:0.352778" />
      <path
         d="M -16.736155,10.493218 V 9.6677183 h -1.727199 v -2.1463 h -1.1938 v 2.1463 h -1.0795 v 0.8254997 h 1.0541 v 3.6576 c 0,0.7747 0.0508,1.1049 0.3556,1.4097 0.3556,0.3429 0.9017,0.3937 1.3589,0.3937 0.4064,0 0.800099,-0.0381 1.193799,-0.0889 l 0.0127,-1.0668 c -0.1143,0.0127 -0.4953,0.0889 -0.876299,0.0889 -0.6477,0 -0.8001,-0.2667 -0.8382,-0.5969 -0.0254,-0.2159 -0.0254,-0.4064 -0.0254,-0.4826 v -3.3147 z"
         id="path910"
         style="font-weight:500;font-size:36px;font-family:'Akzidenz-Grotesk BQ Extended';-inkscape-font-specification:AkzidenzGroteskBQ-Ext;fill:#7b7a7a;stroke-width:0.352778" />
      <path
         d="m -7.9477618,15.865318 v -0.8382 c -0.2286,0.0254 -0.3302,0.0381 -0.4445,0.0381 -0.4317999,0 -0.5841999,-0.1778 -0.6476999,-0.3683 -0.0508,-0.1651 -0.0508,-0.4064 -0.0508,-0.8001 v -2.2606 c 0,-0.4699 0,-0.889 -0.3048,-1.2954 -0.3683,-0.4952997 -1.0160003,-0.6349997 -1.1811003,-0.6730997 -0.7112,-0.1778 -1.5875,-0.1905 -1.7653,-0.1905 -1.0922,0 -1.8669,0.1651 -2.2733,0.3302 -0.4572,0.1905 -0.6858,0.4698997 -0.8001,0.6349997 -0.1524,0.2286 -0.2667,0.5588 -0.2794,0.6096 l 1.2192,0.1143 c 0.127,-0.2286 0.1651,-0.2794 0.2794,-0.3683 0.4953,-0.3937 1.3335,-0.4445 1.9177,-0.4445 0.7366,0 1.2446,0.1143 1.5113,0.254 0.5715,0.3048 0.5461,0.8382 0.5461,1.3843 l -1.7653,0.0127 c -1.4605,0.0127 -2.4257,0.0254 -3.0226,0.2921 -0.3302,0.1397 -1.0922,0.5969 -1.0922,1.6637 0,0.4826 0.1651,0.9144 0.4826,1.2827 0.4318,0.4826 0.9525,0.6858 1.5748,0.7874 0.1143,0.0127 0.4953,0.0635 0.8763,0.0635 1.3843,0 2.2479,-0.4445 2.667,-0.8509 0.1524,-0.1397 0.254,-0.3048 0.2921,-0.3683 0.0508,0.4572 0.1397,1.0541 1.1938003,1.0541 0.3555999,0 0.7111999,-0.0381 1.0667999,-0.0635 z m -2.2606002,-2.9337 c -0.0127,0.1778 0,0.5842 -0.2286,1.016 -0.4953,0.9144 -1.6129,1.1049 -1.8669,1.143 -0.0762,0.0127 -0.4699,0.0762 -0.8001,0.0762 -1.2319,0 -1.7907,-0.6096 -1.7907,-1.2192 0,-0.4953 0.381,-0.7366 0.5207,-0.8001 0.3937,-0.1905 0.9525,-0.2159 1.8923,-0.2159 z"
         id="path912"
         style="font-weight:500;font-size:36px;font-family:'Akzidenz-Grotesk BQ Extended';-inkscape-font-specification:AkzidenzGroteskBQ-Ext;fill:#7b7a7a;stroke-width:0.352778" />
      <path
         d="M 0.38343805,15.865318 V 6.8991184 h -1.20649997 v 3.4924996 c -0.30479998,-0.2286 -0.36829998,-0.254 -0.57149998,-0.3683 -0.8763,-0.4698997 -1.8415,-0.5079997 -2.1717,-0.5079997 -1.3969999,0 -2.3113999,0.5841997 -2.7177999,0.9397997 -0.9144,0.8128 -1.0033,1.8288 -1.0033,2.2606 0,1.4351 0.8763,2.2606 1.2827,2.5527 0.9271,0.6858 2.0192999,0.7112 2.4002999,0.7112 1.1684,0 1.9685,-0.3556 2.3622,-0.6096 0.1397,-0.0889 0.27939998,-0.2032 0.40639998,-0.3175 l 0.0127,0.8128 z m -1.14299998,-3.1623 c 0,0.6731 -0.21589999,1.1176 -0.38099997,1.3462 -0.4953,0.6858 -1.4986,0.9398 -2.3114,0.9398 -1.3207999,0 -2.0192999,-0.6223 -2.2986999,-1.0922 -0.2032,-0.3302 -0.2794,-0.6858 -0.2794,-1.0795 0,-0.4572 0.1016,-1.5748 1.3462,-2.1082 0.3683,-0.1524 0.7619999,-0.2286 1.1683999,-0.2286 0.254,0 1.3589,-0.0127 2.1209,0.6731 0.62229997,0.5588 0.63499997,1.2573 0.63499997,1.5494 z"
         id="path914"
         style="font-weight:500;font-size:36px;font-family:'Akzidenz-Grotesk BQ Extended';-inkscape-font-specification:AkzidenzGroteskBQ-Ext;fill:#7b7a7a;stroke-width:0.352778" />
      <path
         d="m 10.060845,12.791918 c 0,-0.9906 -0.3937001,-1.6256 -0.6350001,-1.9177 -0.1397,-0.1651 -0.3429,-0.3683 -0.5207,-0.508 -0.2794,-0.2286 -0.4953,-0.3302 -0.635,-0.3936997 -0.9143999,-0.4318 -1.9811999,-0.4572 -2.2732999,-0.4572 -0.4699,0 -2.5273,0.0635 -3.5432999,1.6636997 -0.4445,0.7112 -0.4826,1.397 -0.4826,1.7145 0,2.0701 1.8414999,2.7813 2.4002999,2.9464 0.6985,0.2032 1.4351,0.2159 1.6637,0.2159 2.0319999,0 3.1495999,-0.9398 3.5940999,-1.6637 0.4064001,-0.6604 0.4318001,-1.3462 0.4318001,-1.6002 z m -1.2065001,-0.0254 c 0,1.0668 -0.7112,1.6129 -1.016,1.8034 -0.5333999,0.3429 -1.1302999,0.4826 -1.7398999,0.4826 -1.4097,0 -2.1844,-0.5842 -2.54,-1.0668 -0.3429,-0.4699 -0.3683,-0.9525 -0.3683,-1.1684 0,-0.6477 0.2667,-1.2319 0.7493,-1.6383 0.5588,-0.4826 1.2827,-0.6604 2.0066,-0.6731 0.2794,0 1.8922999,-0.0127 2.6161999,1.1811 0.2667,0.4445 0.2921,0.9017 0.2921,1.0795 z"
         id="path916"
         style="font-weight:500;font-size:36px;font-family:'Akzidenz-Grotesk BQ Extended';-inkscape-font-specification:AkzidenzGroteskBQ-Ext;fill:#7b7a7a;stroke-width:0.352778" />
      <path
         d="M 15.953652,10.772618 V 9.5915183 c -0.1524,-0.0381 -0.3556,-0.1016 -0.7112,-0.1016 -0.9906,0 -1.7272,0.3683 -2.0447,0.5841997 -0.1905,0.127 -0.254,0.2032 -0.3429,0.2921 l -0.0127,-0.6984997 h -1.1938 v 6.1975997 h 1.2065 v -3.3528 c 0,-0.2794 0.0127,-0.5334 0.1016,-0.8001 0.4064,-1.1176 1.8288,-1.0795 2.0447,-1.0795 0.4826,0 0.7239,0.0762 0.9525,0.1397 z"
         id="path918"
         style="font-weight:500;font-size:36px;font-family:'Akzidenz-Grotesk BQ Extended';-inkscape-font-specification:AkzidenzGroteskBQ-Ext;fill:#7b7a7a;stroke-width:0.352778" />
      <path
         d="m 24.602338,15.865318 v -0.8382 c -0.2286,0.0254 -0.3302,0.0381 -0.4445,0.0381 -0.4318,0 -0.5842,-0.1778 -0.6477,-0.3683 -0.0508,-0.1651 -0.0508,-0.4064 -0.0508,-0.8001 v -2.2606 c 0,-0.4699 0,-0.889 -0.3048,-1.2954 -0.3683,-0.4952997 -1.016,-0.6349997 -1.1811,-0.6730997 -0.7112,-0.1778 -1.5875,-0.1905 -1.7653,-0.1905 -1.0922,0 -1.8669,0.1651 -2.2733,0.3302 -0.4572,0.1905 -0.6858,0.4698997 -0.8001,0.6349997 -0.1524,0.2286 -0.2667,0.5588 -0.2794,0.6096 l 1.2192,0.1143 c 0.127,-0.2286 0.1651,-0.2794 0.2794,-0.3683 0.4953,-0.3937 1.3335,-0.4445 1.9177,-0.4445 0.7366,0 1.2446,0.1143 1.5113,0.254 0.5715,0.3048 0.5461,0.8382 0.5461,1.3843 l -1.7653,0.0127 c -1.4605,0.0127 -2.4257,0.0254 -3.0226,0.2921 -0.3302,0.1397 -1.0922,0.5969 -1.0922,1.6637 0,0.4826 0.1651,0.9144 0.4826,1.2827 0.4318,0.4826 0.9525,0.6858 1.5748,0.7874 0.1143,0.0127 0.4953,0.0635 0.8763,0.0635 1.3843,0 2.2479,-0.4445 2.667,-0.8509 0.1524,-0.1397 0.254,-0.3048 0.2921,-0.3683 0.0508,0.4572 0.1397,1.0541 1.1938,1.0541 0.3556,0 0.7112,-0.0381 1.0668,-0.0635 z m -2.2606,-2.9337 c -0.0127,0.1778 0,0.5842 -0.2286,1.016 -0.4953,0.9144 -1.6129,1.1049 -1.8669,1.143 -0.0762,0.0127 -0.4699,0.0762 -0.8001,0.0762 -1.2319,0 -1.7907,-0.6096 -1.7907,-1.2192 0,-0.4953 0.381,-0.7366 0.5207,-0.8001 0.3937,-0.1905 0.9525,-0.2159 1.8923,-0.2159 z"
         id="path920"
         style="font-weight:500;font-size:36px;font-family:'Akzidenz-Grotesk BQ Extended';-inkscape-font-specification:AkzidenzGroteskBQ-Ext;fill:#7b7a7a;stroke-width:0.352778" />
      <path
         d="M 37.16263,15.865318 V 6.8991184 h -1.2065 v 3.4924996 c -0.3048,-0.2286 -0.3683,-0.254 -0.5715,-0.3683 -0.8763,-0.4698997 -1.8415,-0.5079997 -2.1717,-0.5079997 -1.397,0 -2.3114,0.5841997 -2.7178,0.9397997 -0.9144,0.8128 -1.0033,1.8288 -1.0033,2.2606 0,1.4351 0.8763,2.2606 1.2827,2.5527 0.9271,0.6858 2.0193,0.7112 2.4003,0.7112 1.1684,0 1.9685,-0.3556 2.3622,-0.6096 0.1397,-0.0889 0.2794,-0.2032 0.4064,-0.3175 l 0.0127,0.8128 z m -1.143,-3.1623 c 0,0.6731 -0.2159,1.1176 -0.381,1.3462 -0.4953,0.6858 -1.4986,0.9398 -2.3114,0.9398 -1.3208,0 -2.0193,-0.6223 -2.2987,-1.0922 -0.2032,-0.3302 -0.2794,-0.6858 -0.2794,-1.0795 0,-0.4572 0.1016,-1.5748 1.3462,-2.1082 0.3683,-0.1524 0.762,-0.2286 1.1684,-0.2286 0.254,0 1.3589,-0.0127 2.1209,0.6731 0.6223,0.5588 0.635,1.2573 0.635,1.5494 z"
         id="path922"
         style="font-weight:500;font-size:36px;font-family:'Akzidenz-Grotesk BQ Extended';-inkscape-font-specification:AkzidenzGroteskBQ-Ext;fill:#7b7a7a;stroke-width:0.352778" />
      <path
         d="m 46.344737,12.906218 c 0,-0.1524 0,-0.3048 -0.0254,-0.4699 -0.1016,-0.8128 -0.508,-1.3462 -0.6985,-1.5875 -1.0287,-1.3080997 -2.5781,-1.3842997 -3.1115,-1.3842997 -0.3556,0 -0.635,0.0381 -0.7747,0.0635 -0.508,0.0762 -2.159,0.3937 -2.7813,2.0319997 -0.1905,0.508 -0.2159,0.9652 -0.2159,1.1557 0.0127,2.2225 1.7907,3.3401 3.7973,3.3401 1.0287,0 1.8034,-0.2794 2.1463,-0.4445 0.1905,-0.0889 0.8255,-0.4191 1.2192,-0.9906 0.127,-0.1778 0.2286,-0.3683 0.3175,-0.5588 l -1.1557,-0.3175 c -0.127,0.2286 -0.2032,0.381 -0.381,0.5715 -0.508,0.5461 -1.2446,0.7747 -1.9812,0.7747 -1.0795,0 -1.7653,-0.4699 -2.0701,-0.762 -0.4445,-0.4191 -0.5588,-0.8255 -0.6477,-1.4224 z m -1.3589,-0.9017 h -4.9657 c 0.1143,-0.2794 0.1397,-0.3175 0.2413,-0.4699 0.5207,-0.8255 1.3843,-1.1684 2.3241,-1.1684 0.4064,0 0.6604,0.0508 0.8255,0.1016 0.3302,0.1016 0.5588,0.2413 0.6604,0.3048 0.3048,0.2032 0.6477,0.4953 0.9144,1.2319 z"
         id="path924"
         style="font-weight:500;font-size:36px;font-family:'Akzidenz-Grotesk BQ Extended';-inkscape-font-specification:AkzidenzGroteskBQ-Ext;fill:#7b7a7a;stroke-width:0.352778" />
      <path
         d="m 59.794054,15.865318 v -0.8382 c -0.2286,0.0254 -0.3302,0.0381 -0.4445,0.0381 -0.4318,0 -0.5842,-0.1778 -0.6477,-0.3683 -0.0508,-0.1651 -0.0508,-0.4064 -0.0508,-0.8001 v -2.2606 c 0,-0.4699 0,-0.889 -0.3048,-1.2954 -0.3683,-0.4952997 -1.016,-0.6349997 -1.1811,-0.6730997 -0.7112,-0.1778 -1.5875,-0.1905 -1.7653,-0.1905 -1.0922,0 -1.866899,0.1651 -2.273299,0.3302 -0.4572,0.1905 -0.6858,0.4698997 -0.8001,0.6349997 -0.1524,0.2286 -0.2667,0.5588 -0.2794,0.6096 l 1.2192,0.1143 c 0.127,-0.2286 0.1651,-0.2794 0.2794,-0.3683 0.4953,-0.3937 1.333499,-0.4445 1.917699,-0.4445 0.7366,0 1.2446,0.1143 1.5113,0.254 0.5715,0.3048 0.5461,0.8382 0.5461,1.3843 l -1.7653,0.0127 c -1.4605,0.0127 -2.425699,0.0254 -3.022599,0.2921 -0.3302,0.1397 -1.0922,0.5969 -1.0922,1.6637 0,0.4826 0.1651,0.9144 0.4826,1.2827 0.4318,0.4826 0.9525,0.6858 1.5748,0.7874 0.1143,0.0127 0.4953,0.0635 0.876299,0.0635 1.3843,0 2.2479,-0.4445 2.667,-0.8509 0.1524,-0.1397 0.254,-0.3048 0.2921,-0.3683 0.0508,0.4572 0.1397,1.0541 1.1938,1.0541 0.3556,0 0.7112,-0.0381 1.0668,-0.0635 z m -2.2606,-2.9337 c -0.0127,0.1778 0,0.5842 -0.2286,1.016 -0.4953,0.9144 -1.6129,1.1049 -1.8669,1.143 -0.0762,0.0127 -0.4699,0.0762 -0.8001,0.0762 -1.231899,0 -1.790699,-0.6096 -1.790699,-1.2192 0,-0.4953 0.381,-0.7366 0.5207,-0.8001 0.3937,-0.1905 0.952499,-0.2159 1.892299,-0.2159 z"
         id="path926"
         style="font-weight:500;font-size:36px;font-family:'Akzidenz-Grotesk BQ Extended';-inkscape-font-specification:AkzidenzGroteskBQ-Ext;fill:#7b7a7a;stroke-width:0.352778" />
      <path
         d="M 62.054633,15.865318 V 6.8991184 h -1.1938 v 8.9661996 z"
         id="path928"
         style="font-weight:500;font-size:36px;font-family:'Akzidenz-Grotesk BQ Extended';-inkscape-font-specification:AkzidenzGroteskBQ-Ext;fill:#7b7a7a;stroke-width:0.352778" />
      <path
         d="M 65.216933,8.6263183 V 7.4071184 h -1.1938 v 1.2191999 z m 0.0254,7.2389997 V 9.6677183 h -1.2065 v 6.1975997 z"
         id="path930"
         style="font-weight:500;font-size:36px;font-family:'Akzidenz-Grotesk BQ Extended';-inkscape-font-specification:AkzidenzGroteskBQ-Ext;fill:#7b7a7a;stroke-width:0.352778" />
      <path
         d="m 80.012433,15.865318 v -3.3401 c 0,-0.7493 -0.0381,-1.0541 -0.1778,-1.4097 -0.4699,-1.1810997 -1.8796,-1.6001997 -3.0353,-1.6001997 -1.2827,0 -2.0955,0.4064 -2.5146,0.6984997 -0.1905,0.1397 -0.3429,0.2794 -0.4953,0.4445 -0.254,-0.3175 -0.3429,-0.4064 -0.5207,-0.5461 -0.7493,-0.5714997 -1.8669,-0.5841997 -2.0955,-0.5841997 -1.1176,0 -1.9177,0.3683 -2.2733,0.5968997 -0.1143,0.0889 -0.2413,0.1778 -0.4699,0.3937 V 9.6677183 h -1.2192 v 6.1975997 h 1.2192 v -3.1496 c 0,-0.381 0,-0.6985 0.1778,-1.0414 0.1651,-0.2921 0.3937,-0.4699 0.4826,-0.5334 0.7239,-0.5461 1.5621,-0.5969 1.8542,-0.5969 0.2921,0 1.6256,0.0127 1.9685,1.2192 0.0762,0.2921 0.0889,0.6096 0.0889,0.9144 v 3.1877 h 1.2065 v -3.2258 c 0,-0.5461 0.0508,-0.7747 0.1778,-1.016 0.2413,-0.4572 1.0033,-1.0795 2.286,-1.0795 1.1557,0 1.7653,0.5334 1.9685,0.9779 0.1778,0.381 0.1651,0.8001 0.1651,1.2065 v 3.1369 z"
         id="path932"
         style="font-weight:500;font-size:36px;font-family:'Akzidenz-Grotesk BQ Extended';-inkscape-font-specification:AkzidenzGroteskBQ-Ext;fill:#7b7a7a;stroke-width:0.352778" />
      <path
         d="m 89.219961,12.906218 c 0,-0.1524 0,-0.3048 -0.0254,-0.4699 -0.1016,-0.8128 -0.508,-1.3462 -0.6985,-1.5875 -1.0287,-1.3080997 -2.5781,-1.3842997 -3.1115,-1.3842997 -0.3556,0 -0.635,0.0381 -0.7747,0.0635 -0.508,0.0762 -2.159,0.3937 -2.7813,2.0319997 -0.1905,0.508 -0.2159,0.9652 -0.2159,1.1557 0.0127,2.2225 1.7907,3.3401 3.7973,3.3401 1.0287,0 1.8034,-0.2794 2.1463,-0.4445 0.1905,-0.0889 0.8255,-0.4191 1.2192,-0.9906 0.127,-0.1778 0.2286,-0.3683 0.3175,-0.5588 l -1.1557,-0.3175 c -0.127,0.2286 -0.2032,0.381 -0.381,0.5715 -0.508,0.5461 -1.2446,0.7747 -1.9812,0.7747 -1.0795,0 -1.7653,-0.4699 -2.0701,-0.762 -0.4445,-0.4191 -0.5588,-0.8255 -0.6477,-1.4224 z m -1.3589,-0.9017 h -4.9657 c 0.1143,-0.2794 0.1397,-0.3175 0.2413,-0.4699 0.5207,-0.8255 1.3843,-1.1684 2.3241,-1.1684 0.4064,0 0.6604,0.0508 0.8255,0.1016 0.3302,0.1016 0.5588,0.2413 0.6604,0.3048 0.3048,0.2032 0.6477,0.4953 0.9144,1.2319 z"
         id="path934"
         style="font-weight:500;font-size:36px;font-family:'Akzidenz-Grotesk BQ Extended';-inkscape-font-specification:AkzidenzGroteskBQ-Ext;fill:#7b7a7a;stroke-width:0.352778" />
      <path
         d="m 98.033743,15.865318 v -3.3528 c 0,-0.508 0,-0.9906 -0.2032,-1.4732 -0.4064,-0.9271 -1.5367,-1.5493997 -3.0734,-1.5493997 -0.8636,0 -1.4605,0.1778 -1.8288,0.3302 -0.4953,0.2031997 -0.7239,0.4190997 -0.9398,0.5968997 V 9.6677183 h -1.2065 v 6.1975997 h 1.2065 v -2.9464 c 0,-0.381 0.0127,-0.7366 0.1524,-1.0922 0.2921,-0.7747 1.0033,-1.0287 1.1938,-1.1049 0.254,-0.0889 0.5969,-0.2032 1.2065,-0.2032 1.27,0 1.905,0.5207 2.1336,1.0541 0.1143,0.254 0.1651,0.4826 0.1651,1.016 v 3.2766 z"
         id="path936"
         style="font-weight:500;font-size:36px;font-family:'Akzidenz-Grotesk BQ Extended';-inkscape-font-specification:AkzidenzGroteskBQ-Ext;fill:#7b7a7a;stroke-width:0.352778" />
      <path
         d="M 103.13915,10.493218 V 9.6677183 h -1.7272 v -2.1463 h -1.1938 v 2.1463 h -1.0795 v 0.8254997 h 1.0541 v 3.6576 c 0,0.7747 0.0508,1.1049 0.3556,1.4097 0.3556,0.3429 0.9017,0.3937 1.3589,0.3937 0.4064,0 0.8001,-0.0381 1.1938,-0.0889 l 0.0127,-1.0668 c -0.1143,0.0127 -0.4953,0.0889 -0.8763,0.0889 -0.6477,0 -0.8001,-0.2667 -0.8382,-0.5969 -0.0254,-0.2159 -0.0254,-0.4064 -0.0254,-0.4826 v -3.3147 z"
         id="path938"
         style="font-weight:500;font-size:36px;font-family:'Akzidenz-Grotesk BQ Extended';-inkscape-font-specification:AkzidenzGroteskBQ-Ext;fill:#7b7a7a;stroke-width:0.352778" />
      <path
         d="m 111.94026,12.791918 c 0,-0.9906 -0.3937,-1.6256 -0.635,-1.9177 -0.1397,-0.1651 -0.3429,-0.3683 -0.5207,-0.508 -0.2794,-0.2286 -0.4953,-0.3302 -0.635,-0.3936997 -0.9144,-0.4318 -1.9812,-0.4572 -2.2733,-0.4572 -0.4699,0 -2.5273,0.0635 -3.5433,1.6636997 -0.4445,0.7112 -0.4826,1.397 -0.4826,1.7145 0,2.0701 1.8415,2.7813 2.4003,2.9464 0.6985,0.2032 1.4351,0.2159 1.6637,0.2159 2.032,0 3.1496,-0.9398 3.5941,-1.6637 0.4064,-0.6604 0.4318,-1.3462 0.4318,-1.6002 z m -1.2065,-0.0254 c 0,1.0668 -0.7112,1.6129 -1.016,1.8034 -0.5334,0.3429 -1.1303,0.4826 -1.7399,0.4826 -1.4097,0 -2.1844,-0.5842 -2.54,-1.0668 -0.3429,-0.4699 -0.3683,-0.9525 -0.3683,-1.1684 0,-0.6477 0.2667,-1.2319 0.7493,-1.6383 0.5588,-0.4826 1.2827,-0.6604 2.0066,-0.6731 0.2794,0 1.8923,-0.0127 2.6162,1.1811 0.2667,0.4445 0.2921,0.9017 0.2921,1.0795 z"
         id="path940"
         style="font-weight:500;font-size:36px;font-family:'Akzidenz-Grotesk BQ Extended';-inkscape-font-specification:AkzidenzGroteskBQ-Ext;fill:#7b7a7a;stroke-width:0.352778" />
      <path
         d="m 120.42382,13.998418 c 0,-0.5588 -0.2413,-1.0668 -0.7239,-1.3843 -0.3937,-0.254 -0.8509,-0.3556 -1.8034,-0.4318 -1.3081,-0.1143 -2.4765,-0.1524 -2.9083,-0.4064 -0.254,-0.1397 -0.3048,-0.3683 -0.3048,-0.4826 0,-0.1397 0.0381,-0.3048 0.2667,-0.4826 0.3302,-0.2413 0.8763,-0.3683 1.7526,-0.3683 0.381,0 1.6256,0.0254 2.6416,0.7239 l 1.0541,-0.5842 c -0.1524,-0.1524 -0.3429,-0.3048 -0.762,-0.5334 -0.8636,-0.4571997 -1.8796,-0.6222997 -2.8448,-0.6222997 -0.127,0 -1.5875,0 -2.4511,0.4445 -0.5969,0.3047997 -0.9906,0.8381997 -0.9906,1.5239997 0,0.4826 0.2032,0.9144 0.5842,1.1938 0.4572,0.3302 1.0541,0.4318 1.5875,0.4953 1.5113,0.1651 2.6797,0.127 3.2258,0.4191 0.3302,0.1651 0.3937,0.4064 0.3937,0.5715 0,0.3175 -0.2286,0.5588 -0.4953,0.6985 -0.5715,0.3048 -1.6891,0.3048 -1.7145,0.3048 -0.2921,0 -1.5113,-0.0254 -2.4892,-0.5334 -0.2794,-0.1524 -0.5715,-0.381 -0.635,-0.4318 l -1.0414,0.6858 c 1.4351,1.2954 3.81,1.2954 4.2291,1.2954 0.0508,0 2.4765,0.0889 3.2258,-1.2446 0.1905,-0.3429 0.2032,-0.7112 0.2032,-0.8509 z"
         id="path942"
         style="font-weight:500;font-size:36px;font-family:'Akzidenz-Grotesk BQ Extended';-inkscape-font-specification:AkzidenzGroteskBQ-Ext;fill:#7b7a7a;stroke-width:0.352778" />
    </g>
  </g>
</svg>
