<?xml version="1.0" encoding="UTF-8" standalone="no"?>
<!-- Created with Inkscape (http://www.inkscape.org/) -->

<svg
   width="1919.158"
   height="118.461"
   viewBox="0 0 507.7772 31.342805"
   version="1.1"
   id="svg490"
   xmlns="http://www.w3.org/2000/svg"
   xmlns:svg="http://www.w3.org/2000/svg">
  <defs
     id="defs487" />
  <g
     id="layer1"
     style="display:inline"
     transform="translate(-0.16278076)">
    <path
       id="rect861"
       style="display:inline;fill:#ffffff;stroke:none;stroke-width:1.10213"
       d="M 507.7814 0 C 426.5487 20.435532 341.52954 31.340238 253.95607 31.340205 L 253.95607 31.342789 L 507.94004 31.342789 L 507.94004 0 L 507.7814 0 z M 253.95607 31.342789 C 166.39404 31.342778 81.385741 20.440701 0.16278076 0.010335286 L 0.16278076 31.342789 L 253.95607 31.342789 z " />
  </g>
  <g
     id="layer3"
     style="display:inline"
     transform="translate(-0.16278076)">
    <path
       id="path133-7"
       style="display:inline;fill:#1c2a35;fill-opacity:1;stroke-width:0.263761"
       d="M 0.1679484,0.01188558 0.17208252,8.509558 C 45.415247,18.694635 91.920338,25.631772 139.54393,28.905729 c 28.06764,1.929556 55.96594,2.568841 83.64761,1.974039 C 146.46803,28.635058 71.842532,18.04011 0.1679484,0.01188558 Z" />
  </g>
  <g
     id="layer2"
     style="display:inline"
     transform="translate(-0.16278076)">
    <path
       id="path133"
       style="display:inline;fill:#789bba;fill-opacity:1;stroke-width:0.263761"
       d="M 507.93798,-0.00103353 507.72456,0 h 0.0568 C 436.45707,17.942896 362.21218,28.532557 285.8838,30.850313 c 27.36562,0.559519 54.94222,-0.08339 82.68435,-1.990576 47.62361,-3.273957 94.12869,-10.21161 139.37186,-20.3966878 z" />
  </g>
</svg>
