<?xml version="1.0" encoding="utf-8"?>
<!-- Generator: Adobe Illustrator 26.0.1, SVG Export Plug-In . SVG Version: 6.00 Build 0)  -->
<svg version="1.1" id="Layer_1" xmlns="http://www.w3.org/2000/svg" xmlns:xlink="http://www.w3.org/1999/xlink" x="0px" y="0px"
	 viewBox="0 0 233.26 270.58" style="enable-background:new 0 0 233.26 270.58;" xml:space="preserve">
<style type="text/css">
	.st0{fill:#7B7A7A;}
	.st1{fill:#39556E;}
	.st2{fill:none;stroke:#39556E;stroke-width:12;stroke-miterlimit:10;}
	.st3{fill:none;stroke:#7B7A7A;stroke-width:6;stroke-miterlimit:10;}
</style>
<g>
	<path class="st1" d="M43.32,171.38h-6.44l-21.61-45h7.08l17.85,37.92l17.34-37.92h7.01L43.32,171.38z"/>
	<path class="st1" d="M110.63,150.29c-3.89,3-8.09,3.06-12.75,3.06H76.27v18.04h-6.5v-45H97.3c1.15,0,2.29,0.06,3.44,0.13
		c1.98,0.19,8.48,0.45,12.3,5.93c1.53,2.23,2.29,4.97,2.29,7.71C115.34,141.94,115.02,146.97,110.63,150.29z M106.8,134.93
		c-2.55-3.19-6.88-3.19-10.52-3.19H76.21v16.25h20.78c3.51,0,7.33-0.13,9.75-3.12c0.7-0.83,1.66-2.42,1.66-5.1
		C108.39,138.94,108.33,136.84,106.8,134.93z"/>
	<path class="st1" d="M158.55,171.38l-5.48-11.09h-27.66l-5.48,11.09h-7.2l23.33-45h6.82l23.07,45H158.55z M139.31,132.82
		l-11.22,22.31h22.24L139.31,132.82z"/>
	<path class="st1" d="M212.22,165.33c-4.02,5.61-11.6,6.5-13.26,6.69c-1.02,0.13-3.63,0.45-6.5,0.45c-1.28,0-6.82-0.13-11.6-1.34
		c-1.02-0.25-2.61-0.64-4.84-1.59c-2.36-1.02-3.95-2.17-4.72-2.74c-2.42-1.85-3.5-3.51-4.21-4.53l5.93-2.42
		c0.32,0.38,0.57,0.7,0.96,1.08c0.96,0.96,3.06,2.61,6.18,3.89c5.16,2.1,11.28,2.17,12.75,2.17c1.15,0,7.9,0.19,12.24-3.06
		c2.68-2.04,3.06-4.84,3.06-6.06c0-2.61-1.47-4.52-3.82-5.54c-3.31-1.47-11.09-1.91-14.66-2.23c-8.6-0.7-12.81-1.15-16.12-4.21
		c-3.06-2.8-3.19-5.99-3.19-7.52c0-6.31,4.33-9.18,6.25-10.2c2.68-1.47,7.58-2.93,14.85-2.93c8.92,0,14.28,2.17,17.53,4.27
		c0.76,0.51,1.4,0.96,2.04,1.53c1.47,1.21,2.55,2.8,2.93,3.25l-5.86,2.36c-0.32-0.32-1.47-1.47-2.74-2.36
		c-2.49-1.72-6.76-3.76-13.83-3.76c-4.59,0-8.16,0.83-9.82,1.47c-3.89,1.47-4.97,4.14-4.97,6.05c0,0.96,0.25,1.98,0.76,2.8
		c1.59,2.55,4.78,2.8,7.39,3.12c4.97,0.64,9.94,0.89,14.91,1.47c6.95,0.83,10.13,2.61,12.3,5.29c2.23,2.87,2.36,5.74,2.36,7.07
		C214.51,161.63,213.11,164.12,212.22,165.33z"/>
</g>
<g>
	<path class="st0" d="M29.65,114.41v-1.98c-0.31,0.31-0.61,0.59-0.96,0.84c-0.82,0.57-2.69,1.47-5.32,1.47c-3.87,0-5.95-2-6.83-3.2
		c-0.49-0.65-1.41-2.16-1.41-4.36c0-0.69,0.1-2.39,1.18-4.02c0.29-0.43,0.57-0.77,0.94-1.12c0.98-0.92,3.08-2.36,6.48-2.36
		c0.82,0,2.77,0.06,4.81,1.12c1.04,0.53,1.61,1.08,1.94,1.45c0.33,0.35,0.47,0.51,0.86,1.22l-2,0.61c-0.14-0.2-0.35-0.55-0.78-0.96
		c-0.69-0.63-2.24-1.69-4.69-1.69c-0.45,0-1.57,0.04-2.75,0.45c-2.34,0.82-3.81,2.69-3.81,5.22c0,1.28,0.47,2.75,1.3,3.75
		c1.69,2.06,4.44,2.18,5.2,2.18c2,0,4.24-0.86,5.32-2.63c0.39-0.65,0.47-1.14,0.57-1.85h-6.34v-1.71h8.05v7.58H29.65z"/>
	<path class="st0" d="M75.12,114.41l-4.87-5.77H63.3v5.77h-2.06v-14.39h9.81c1.22,0,1.67,0.06,2.28,0.22c1.94,0.51,3.04,2.02,3.04,4
		c0,0.77-0.16,2.79-2.32,3.69c-0.37,0.14-0.75,0.26-1.57,0.39l5.32,6.1H75.12z M73.88,102.91c-0.61-1.08-1.57-1.18-2.69-1.18h-7.91
		v5.22h7.12c1.16,0,2.53-0.04,3.32-1.06c0.2-0.24,0.53-0.73,0.53-1.57C74.25,104.05,74.22,103.5,73.88,102.91z"/>
	<path class="st0" d="M120.55,111.37c-1.12,2.73-4.32,3.38-6.93,3.38c-0.69,0-3.32,0.02-5.36-1.41c-0.86-0.59-1.24-1.22-1.45-1.59
		c-0.57-1.06-0.61-2.12-0.61-3.28v-8.46h2.06v8.54c0,0.16-0.02,0.77,0.08,1.35c0.2,1.33,0.88,1.79,1.39,2.12
		c0.71,0.45,1.9,0.96,3.91,0.96c0.26,0,2.69,0,4.08-1.02c0.49-0.37,0.77-0.86,0.86-1.04c0.33-0.67,0.33-1.35,0.33-2.1v-8.81h2.06
		v8.66C120.96,109.64,120.94,110.45,120.55,111.37z"/>
	<path class="st0" d="M164.2,107.66c-1.24,0.96-2.59,0.98-4.08,0.98h-6.91v5.77h-2.08v-14.39h8.81c0.37,0,0.73,0.02,1.1,0.04
		c0.63,0.06,2.71,0.14,3.93,1.9c0.49,0.71,0.73,1.59,0.73,2.47C165.71,104.99,165.61,106.6,164.2,107.66z M162.98,102.75
		c-0.82-1.02-2.2-1.02-3.36-1.02h-6.42v5.2h6.65c1.12,0,2.34-0.04,3.12-1c0.22-0.27,0.53-0.77,0.53-1.63
		C163.49,104.03,163.47,103.36,162.98,102.75z"/>
	<path class="st0" d="M209.28,112.31c-1,1.04-3.2,2.49-6.81,2.49c-0.37,0-1.2-0.02-2.2-0.18c-0.98-0.14-3.89-0.67-5.57-3.36
		c-0.98-1.59-1.04-3.22-1.04-3.87c0-1.65,0.43-3.3,1.45-4.59c0.2-0.26,0.47-0.57,1.04-1.04c0.98-0.82,2.96-2.08,6.2-2.08
		c0.65,0,2.61,0.06,4.46,0.92c1.18,0.55,2.32,1.45,3.08,2.53c1.18,1.71,1.26,3.61,1.26,4.3
		C211.16,108.25,211.04,110.49,209.28,112.31z M208.57,104.7c-1.55-3.32-5.65-3.3-6.46-3.28c-0.61,0.02-3.2,0.16-4.87,1.83
		c-0.29,0.29-0.86,0.92-1.2,1.94c-0.22,0.65-0.33,1.41-0.33,2.1c0,0.53,0.06,2.08,1.04,3.4c0.2,0.26,0.51,0.63,1.14,1.08
		c0.84,0.59,2.24,1.24,4.63,1.24c0.39,0,1.35,0,2.43-0.29c2.02-0.53,3.49-1.88,3.98-3.91c0.06-0.29,0.18-0.88,0.18-1.61
		C209.1,105.99,208.77,105.13,208.57,104.7z"/>
</g>
<path class="st2" d="M223.09,209.66c-23.37,33.19-61.98,54.87-105.65,54.87c-43.67,0-82.28-21.68-105.65-54.87"/>
<path class="st2" d="M6.83,68.78C29.43,31.34,70.51,6.3,117.44,6.3c46.51,0,87.28,24.59,110.01,61.49"/>
<path class="st3" d="M207.01,209.66c-21.34,25.73-53.56,42.12-89.61,42.12S49.14,235.4,27.8,209.66"/>
<path class="st3" d="M22.19,68.51c21.06-29.91,55.86-49.46,95.22-49.46c39.36,0,74.16,19.54,95.22,49.46"/>
</svg>
