<?xml version="1.0" encoding="UTF-8" standalone="no"?>
<!-- Created with Inkscape (http://www.inkscape.org/) -->

<svg
   width="52.915939mm"
   height="15.058611mm"
   viewBox="0 0 52.915939 15.058611"
   version="1.1"
   id="svg2137"
   sodipodi:docname="vpas-logo.svg"
   inkscape:version="1.2.2 (b0a8486541, 2022-12-01)"
   xmlns:inkscape="http://www.inkscape.org/namespaces/inkscape"
   xmlns:sodipodi="http://sodipodi.sourceforge.net/DTD/sodipodi-0.dtd"
   xmlns="http://www.w3.org/2000/svg"
   xmlns:svg="http://www.w3.org/2000/svg">
  <sodipodi:namedview
     id="namedview1081"
     pagecolor="#ffffff"
     bordercolor="#000000"
     borderopacity="0.25"
     inkscape:showpageshadow="2"
     inkscape:pageopacity="0.0"
     inkscape:pagecheckerboard="0"
     inkscape:deskcolor="#d1d1d1"
     inkscape:document-units="mm"
     showgrid="false"
     inkscape:zoom="2.96"
     inkscape:cx="60.810811"
     inkscape:cy="46.959459"
     inkscape:window-width="1920"
     inkscape:window-height="1043"
     inkscape:window-x="0"
     inkscape:window-y="0"
     inkscape:window-maximized="1"
     inkscape:current-layer="layer2"
     showguides="true">
    <sodipodi:guide
       position="14.82993,11.624222"
       orientation="1,0"
       id="guide6666"
       inkscape:locked="false" />
  </sodipodi:namedview>
  <defs
     id="defs2134">
    <clipPath
       clipPathUnits="userSpaceOnUse"
       id="clipPath6193">
      <g
         id="g6197"
         transform="matrix(2.8346457,0,0,-2.8346457,-37.137864,214.0574)">
        <path
           d="M -37.93978,-91.382072 H 343.06021 V 289.61792 H -37.93978 Z"
           id="path6195"
           style="stroke-width:0.352778" />
      </g>
    </clipPath>
    <clipPath
       clipPathUnits="userSpaceOnUse"
       id="clipPath6199">
      <g
         id="g6203"
         transform="matrix(2.8346457,0,0,-2.8346457,-221.96396,355.2079)">
        <path
           d="M -37.93978,-91.382072 H 343.06021 V 289.61792 H -37.93978 Z"
           id="path6201"
           style="stroke-width:0.352778" />
      </g>
    </clipPath>
    <clipPath
       clipPathUnits="userSpaceOnUse"
       id="clipPath6205">
      <g
         id="g6209"
         transform="matrix(2.8346457,0,0,-2.8346457,-21.775265,214.3216)">
        <path
           d="M -37.93978,-91.382072 H 343.06021 V 289.61792 H -37.93978 Z"
           id="path6207"
           style="stroke-width:0.352778" />
      </g>
    </clipPath>
    <clipPath
       clipPathUnits="userSpaceOnUse"
       id="clipPath6211">
      <g
         id="g6215"
         transform="matrix(2.8346457,0,0,-2.8346457,-238.03627,355.20719)">
        <path
           d="M -37.93978,-91.382072 H 343.06021 V 289.61792 H -37.93978 Z"
           id="path6213"
           style="stroke-width:0.352778" />
      </g>
    </clipPath>
    <clipPath
       clipPathUnits="userSpaceOnUse"
       id="clipPath6217">
      <g
         id="g6221"
         transform="matrix(2.8346457,0,0,-2.8346457,-839.72757,311.10869)">
        <path
           d="M -37.93978,-91.382072 H 343.06021 V 289.61792 H -37.93978 Z"
           id="path6219"
           style="stroke-width:0.352778" />
      </g>
    </clipPath>
    <clipPath
       clipPathUnits="userSpaceOnUse"
       id="clipPath6223">
      <g
         id="g6227"
         transform="matrix(2.8346457,0,0,-2.8346457,-812.00785,302.1463)">
        <path
           d="M -37.93978,-91.382072 H 343.06021 V 289.61792 H -37.93978 Z"
           id="path6225"
           style="stroke-width:0.352778" />
      </g>
    </clipPath>
    <clipPath
       clipPathUnits="userSpaceOnUse"
       id="clipPath6229">
      <g
         id="g6233"
         transform="matrix(2.8346457,0,0,-2.8346457,-786.30575,298.7625)">
        <path
           d="M -37.93978,-91.382072 H 343.06021 V 289.61792 H -37.93978 Z"
           id="path6231"
           style="stroke-width:0.352778" />
      </g>
    </clipPath>
    <clipPath
       clipPathUnits="userSpaceOnUse"
       id="clipPath6235">
      <g
         id="g6239"
         transform="matrix(2.8346457,0,0,-2.8346457,-773.45217,313.9886)">
        <path
           d="M -37.93978,-91.382072 H 343.06021 V 289.61792 H -37.93978 Z"
           id="path6237"
           style="stroke-width:0.352778" />
      </g>
    </clipPath>
    <clipPath
       clipPathUnits="userSpaceOnUse"
       id="clipPath6241">
      <g
         id="g6245"
         transform="matrix(2.8346457,0,0,-2.8346457,-745.40927,299.5545)">
        <path
           d="M -37.93978,-91.382072 H 343.06021 V 289.61792 H -37.93978 Z"
           id="path6243"
           style="stroke-width:0.352778" />
      </g>
    </clipPath>
    <clipPath
       clipPathUnits="userSpaceOnUse"
       id="clipPath6247">
      <g
         id="g6251"
         transform="matrix(2.8346457,0,0,-2.8346457,-722.33117,313.9886)">
        <path
           d="M -37.93978,-91.382072 H 343.06021 V 289.61792 H -37.93978 Z"
           id="path6249"
           style="stroke-width:0.352778" />
      </g>
    </clipPath>
    <clipPath
       clipPathUnits="userSpaceOnUse"
       id="clipPath6253">
      <g
         id="g6257">
        <path
           d="M -37.93978,-91.382072 H 343.06021 V 289.61792 H -37.93978 Z"
           id="path6255"
           style="stroke-width:0.352778" />
      </g>
    </clipPath>
    <clipPath
       clipPathUnits="userSpaceOnUse"
       id="clipPath6259">
      <g
         id="g6263">
        <path
           d="M -37.93978,-91.382072 H 343.06021 V 289.61792 H -37.93978 Z"
           id="path6261"
           style="stroke-width:0.352778" />
      </g>
    </clipPath>
    <clipPath
       clipPathUnits="userSpaceOnUse"
       id="clipPath6265">
      <g
         id="g6269"
         transform="matrix(2.8346457,0,0,-2.8346457,-655.59086,305.67371)">
        <path
           d="M -37.93978,-91.382072 H 343.06021 V 289.61792 H -37.93978 Z"
           id="path6267"
           style="stroke-width:0.352778" />
      </g>
    </clipPath>
    <clipPath
       clipPathUnits="userSpaceOnUse"
       id="clipPath6271">
      <g
         id="g6275"
         transform="matrix(2.8346457,0,0,-2.8346457,-623.87505,299.5545)">
        <path
           d="M -37.93978,-91.382072 H 343.06021 V 289.61792 H -37.93978 Z"
           id="path6273"
           style="stroke-width:0.352778" />
      </g>
    </clipPath>
    <clipPath
       clipPathUnits="userSpaceOnUse"
       id="clipPath6277">
      <g
         id="g6281"
         transform="matrix(2.8346457,0,0,-2.8346457,-599.25105,300.63411)">
        <path
           d="M -37.93978,-91.382072 H 343.06021 V 289.61792 H -37.93978 Z"
           id="path6279"
           style="stroke-width:0.352778" />
      </g>
    </clipPath>
    <clipPath
       clipPathUnits="userSpaceOnUse"
       id="clipPath6283">
      <g
         id="g6287"
         transform="matrix(2.8346457,0,0,-2.8346457,-555.83596,305.67371)">
        <path
           d="M -37.93978,-91.382072 H 343.06021 V 289.61792 H -37.93978 Z"
           id="path6285"
           style="stroke-width:0.352778" />
      </g>
    </clipPath>
    <clipPath
       clipPathUnits="userSpaceOnUse"
       id="clipPath6289">
      <g
         id="g6293"
         transform="matrix(2.8346457,0,0,-2.8346457,-541.47275,299.1585)">
        <path
           d="M -37.93978,-91.382072 H 343.06021 V 289.61792 H -37.93978 Z"
           id="path6291"
           style="stroke-width:0.352778" />
      </g>
    </clipPath>
    <clipPath
       clipPathUnits="userSpaceOnUse"
       id="clipPath6295">
      <g
         id="g6299"
         transform="matrix(2.8346457,0,0,-2.8346457,-523.21976,302.1463)">
        <path
           d="M -37.93978,-91.382072 H 343.06021 V 289.61792 H -37.93978 Z"
           id="path6297"
           style="stroke-width:0.352778" />
      </g>
    </clipPath>
    <clipPath
       clipPathUnits="userSpaceOnUse"
       id="clipPath6301">
      <g
         id="g6305"
         transform="matrix(2.8346457,0,0,-2.8346457,-494.99616,300.63411)">
        <path
           d="M -37.93978,-91.382072 H 343.06021 V 289.61792 H -37.93978 Z"
           id="path6303"
           style="stroke-width:0.352778" />
      </g>
    </clipPath>
    <clipPath
       clipPathUnits="userSpaceOnUse"
       id="clipPath6307">
      <g
         id="g6311"
         transform="matrix(2.8346457,0,0,-2.8346457,-463.56937,305.67371)">
        <path
           d="M -37.93978,-91.382072 H 343.06021 V 289.61792 H -37.93978 Z"
           id="path6309"
           style="stroke-width:0.352778" />
      </g>
    </clipPath>
    <clipPath
       clipPathUnits="userSpaceOnUse"
       id="clipPath6313">
      <g
         id="g6317"
         transform="matrix(2.8346457,0,0,-2.8346457,-446.50688,298.7625)">
        <path
           d="M -37.93978,-91.382072 H 343.06021 V 289.61792 H -37.93978 Z"
           id="path6315"
           style="stroke-width:0.352778" />
      </g>
    </clipPath>
    <clipPath
       clipPathUnits="userSpaceOnUse"
       id="clipPath6319">
      <g
         id="g6323"
         transform="matrix(2.8346457,0,0,-2.8346457,-437.21786,299.1585)">
        <path
           d="M -37.93978,-91.382072 H 343.06021 V 289.61792 H -37.93978 Z"
           id="path6321"
           style="stroke-width:0.352778" />
      </g>
    </clipPath>
    <clipPath
       clipPathUnits="userSpaceOnUse"
       id="clipPath6325">
      <g
         id="g6329"
         transform="matrix(2.8346457,0,0,-2.8346457,-418.96486,302.1463)">
        <path
           d="M -37.93978,-91.382072 H 343.06021 V 289.61792 H -37.93978 Z"
           id="path6327"
           style="stroke-width:0.352778" />
      </g>
    </clipPath>
    <clipPath
       clipPathUnits="userSpaceOnUse"
       id="clipPath6331">
      <g
         id="g6335"
         transform="matrix(2.8346457,0,0,-2.8346457,-391.82137,301.0663)">
        <path
           d="M -37.93978,-91.382072 H 343.06021 V 289.61792 H -37.93978 Z"
           id="path6333"
           style="stroke-width:0.352778" />
      </g>
    </clipPath>
    <clipPath
       clipPathUnits="userSpaceOnUse"
       id="clipPath6337">
      <g
         id="g6341"
         transform="matrix(2.8346457,0,0,-2.8346457,-367.66605,313.9886)">
        <path
           d="M -37.93978,-91.382072 H 343.06021 V 289.61792 H -37.93978 Z"
           id="path6339"
           style="stroke-width:0.352778" />
      </g>
    </clipPath>
    <clipPath
       clipPathUnits="userSpaceOnUse"
       id="clipPath6343">
      <g
         id="g6347"
         transform="matrix(2.8346457,0,0,-2.8346457,-343.00687,299.5545)">
        <path
           d="M -37.93978,-91.382072 H 343.06021 V 289.61792 H -37.93978 Z"
           id="path6345"
           style="stroke-width:0.352778" />
      </g>
    </clipPath>
    <clipPath
       clipPathUnits="userSpaceOnUse"
       id="clipPath6349">
      <g
         id="g6353"
         transform="matrix(2.8346457,0,0,-2.8346457,-304.34375,315.68049)">
        <path
           d="M -37.93978,-91.382072 H 343.06021 V 289.61792 H -37.93978 Z"
           id="path6351"
           style="stroke-width:0.352778" />
      </g>
    </clipPath>
    <clipPath
       clipPathUnits="userSpaceOnUse"
       id="clipPath6355">
      <g
         id="g6359"
         transform="matrix(2.8346457,0,0,-2.8346457,-540.53616,267.6737)">
        <path
           d="M -37.93978,-91.382072 H 343.06021 V 289.61792 H -37.93978 Z"
           id="path6357"
           style="stroke-width:0.352778" />
      </g>
    </clipPath>
    <clipPath
       clipPathUnits="userSpaceOnUse"
       id="clipPath6361">
      <g
         id="g6365"
         transform="matrix(2.8346457,0,0,-2.8346457,-526.17287,261.1585)">
        <path
           d="M -37.93978,-91.382072 H 343.06021 V 289.61792 H -37.93978 Z"
           id="path6363"
           style="stroke-width:0.352778" />
      </g>
    </clipPath>
    <clipPath
       clipPathUnits="userSpaceOnUse"
       id="clipPath6367">
      <g
         id="g6371"
         transform="matrix(2.8346457,0,0,-2.8346457,-507.91996,264.1463)">
        <path
           d="M -37.93978,-91.382072 H 343.06021 V 289.61792 H -37.93978 Z"
           id="path6369"
           style="stroke-width:0.352778" />
      </g>
    </clipPath>
    <clipPath
       clipPathUnits="userSpaceOnUse"
       id="clipPath6373">
      <g
         id="g6377"
         transform="matrix(2.8346457,0,0,-2.8346457,-479.69635,262.6341)">
        <path
           d="M -37.93978,-91.382072 H 343.06021 V 289.61792 H -37.93978 Z"
           id="path6375"
           style="stroke-width:0.352778" />
      </g>
    </clipPath>
    <clipPath
       clipPathUnits="userSpaceOnUse"
       id="clipPath6379">
      <g
         id="g6383"
         transform="matrix(2.8346457,0,0,-2.8346457,-448.26957,267.6737)">
        <path
           d="M -37.93978,-91.382072 H 343.06021 V 289.61792 H -37.93978 Z"
           id="path6381"
           style="stroke-width:0.352778" />
      </g>
    </clipPath>
    <clipPath
       clipPathUnits="userSpaceOnUse"
       id="clipPath6385">
      <g
         id="g6389"
         transform="matrix(2.8346457,0,0,-2.8346457,-434.37306,273.1087)">
        <path
           d="M -37.93978,-91.382072 H 343.06021 V 289.61792 H -37.93978 Z"
           id="path6387"
           style="stroke-width:0.352778" />
      </g>
    </clipPath>
    <clipPath
       clipPathUnits="userSpaceOnUse"
       id="clipPath6391">
      <g
         id="g6395"
         transform="matrix(2.8346457,0,0,-2.8346457,-404.53036,261.5545)">
        <path
           d="M -37.93978,-91.382072 H 343.06021 V 289.61792 H -37.93978 Z"
           id="path6393"
           style="stroke-width:0.352778" />
      </g>
    </clipPath>
    <clipPath
       clipPathUnits="userSpaceOnUse"
       id="clipPath6397">
      <g
         id="g6401"
         transform="matrix(2.8346457,0,0,-2.8346457,-386.06157,272.6048)">
        <path
           d="M -37.93978,-91.382072 H 343.06021 V 289.61792 H -37.93978 Z"
           id="path6399"
           style="stroke-width:0.352778" />
      </g>
    </clipPath>
    <clipPath
       clipPathUnits="userSpaceOnUse"
       id="clipPath6403">
      <g
         id="g6407"
         transform="matrix(2.8346457,0,0,-2.8346457,-357.11825,264.1463)">
        <path
           d="M -37.93978,-91.382072 H 343.06021 V 289.61792 H -37.93978 Z"
           id="path6405"
           style="stroke-width:0.352778" />
      </g>
    </clipPath>
    <clipPath
       clipPathUnits="userSpaceOnUse"
       id="clipPath6409">
      <g
         id="g6413"
         transform="matrix(2.8346457,0,0,-2.8346457,-334.11527,261.1585)">
        <path
           d="M -37.93978,-91.382072 H 343.06021 V 289.61792 H -37.93978 Z"
           id="path6411"
           style="stroke-width:0.352778" />
      </g>
    </clipPath>
    <clipPath
       clipPathUnits="userSpaceOnUse"
       id="clipPath6415">
      <g
         id="g6419"
         transform="matrix(2.8346457,0,0,-2.8346457,-316.47365,255.3993)">
        <path
           d="M -37.93978,-91.382072 H 343.06021 V 289.61792 H -37.93978 Z"
           id="path6417"
           style="stroke-width:0.352778" />
      </g>
    </clipPath>
    <clipPath
       clipPathUnits="userSpaceOnUse"
       id="clipPath6421">
      <g
         id="g6425"
         transform="matrix(2.8346457,0,0,-2.8346457,-223.51866,250.2489)">
        <path
           d="M -37.93978,-91.382072 H 343.06021 V 289.61792 H -37.93978 Z"
           id="path6423"
           style="stroke-width:0.352778" />
      </g>
    </clipPath>
    <clipPath
       clipPathUnits="userSpaceOnUse"
       id="clipPath6427">
      <g
         id="g6431"
         transform="matrix(2.8346457,0,0,-2.8346457,-177.92877,248.2918)">
        <path
           d="M -37.93978,-91.382072 H 343.06021 V 289.61792 H -37.93978 Z"
           id="path6429"
           style="stroke-width:0.352778" />
      </g>
    </clipPath>
    <clipPath
       clipPathUnits="userSpaceOnUse"
       id="clipPath6433">
      <g
         id="g6437"
         transform="matrix(2.8346457,0,0,-2.8346457,-135.49806,256.9149)">
        <path
           d="M -37.93978,-91.382072 H 343.06021 V 289.61792 H -37.93978 Z"
           id="path6435"
           style="stroke-width:0.352778" />
      </g>
    </clipPath>
    <clipPath
       clipPathUnits="userSpaceOnUse"
       id="clipPath6439">
      <g
         id="g6443"
         transform="matrix(2.8346457,0,0,-2.8346457,-88.827165,248.4549)">
        <path
           d="M -37.93978,-91.382072 H 343.06021 V 289.61792 H -37.93978 Z"
           id="path6441"
           style="stroke-width:0.352778" />
      </g>
    </clipPath>
    <clipPath
       clipPathUnits="userSpaceOnUse"
       id="clipPath6445">
      <g
         id="g6449"
         transform="matrix(2.8346457,0,0,-2.8346457,-44.603564,259.9525)">
        <path
           d="M -37.93978,-91.382072 H 343.06021 V 289.61792 H -37.93978 Z"
           id="path6447"
           style="stroke-width:0.352778" />
      </g>
    </clipPath>
    <clipPath
       clipPathUnits="userSpaceOnUse"
       id="clipPath6451">
      <g
         id="g6455"
         transform="matrix(2.8346457,0,0,-2.8346457,-227.16706,310.87531)">
        <path
           d="M -37.93978,-91.382072 H 343.06021 V 289.61792 H -37.93978 Z"
           id="path6453"
           style="stroke-width:0.352778" />
      </g>
    </clipPath>
    <clipPath
       clipPathUnits="userSpaceOnUse"
       id="clipPath6457">
      <g
         id="g6461"
         transform="matrix(2.8346457,0,0,-2.8346457,-154.25496,278.37)">
        <path
           d="M -37.93978,-91.382072 H 343.06021 V 289.61792 H -37.93978 Z"
           id="path6459"
           style="stroke-width:0.352778" />
      </g>
    </clipPath>
    <clipPath
       clipPathUnits="userSpaceOnUse"
       id="clipPath6463">
      <g
         id="g6467"
         transform="matrix(2.8346457,0,0,-2.8346457,-121.75006,280.473)">
        <path
           d="M -37.93978,-91.382072 H 343.06021 V 289.61792 H -37.93978 Z"
           id="path6465"
           style="stroke-width:0.352778" />
      </g>
    </clipPath>
  </defs>
  <g
     id="layer1"
     transform="translate(-5.8705555,-52.60313)"
     style="display:inline">
    <g
       id="g957"
       transform="matrix(0.06419393,0,0,0.06419393,5.7936924,51.447639)">
      <g
         id="g12">
	<path
   class="st1"
   d="m 43.32,171.38 h -6.44 l -21.61,-45 h 7.08 L 40.2,164.3 57.54,126.38 h 7.01 z"
   id="path4"
   style="fill:#39556e" />

	<path
   class="st1"
   d="m 110.63,150.29 c -3.89,3 -8.09,3.06 -12.75,3.06 H 76.27 v 18.04 h -6.5 v -45 H 97.3 c 1.15,0 2.29,0.06 3.44,0.13 1.98,0.19 8.48,0.45 12.3,5.93 1.53,2.23 2.29,4.97 2.29,7.71 0.01,1.78 -0.31,6.81 -4.7,10.13 z m -3.83,-15.36 c -2.55,-3.19 -6.88,-3.19 -10.52,-3.19 H 76.21 v 16.25 h 20.78 c 3.51,0 7.33,-0.13 9.75,-3.12 0.7,-0.83 1.66,-2.42 1.66,-5.1 -0.01,-0.83 -0.07,-2.93 -1.6,-4.84 z"
   id="path6"
   style="fill:#39556e" />

	<path
   class="st1"
   d="m 158.55,171.38 -5.48,-11.09 h -27.66 l -5.48,11.09 h -7.2 l 23.33,-45 h 6.82 l 23.07,45 z m -19.24,-38.56 -11.22,22.31 h 22.24 z"
   id="path8"
   style="fill:#39556e" />

	<path
   class="st1"
   d="m 212.22,165.33 c -4.02,5.61 -11.6,6.5 -13.26,6.69 -1.02,0.13 -3.63,0.45 -6.5,0.45 -1.28,0 -6.82,-0.13 -11.6,-1.34 -1.02,-0.25 -2.61,-0.64 -4.84,-1.59 -2.36,-1.02 -3.95,-2.17 -4.72,-2.74 -2.42,-1.85 -3.5,-3.51 -4.21,-4.53 l 5.93,-2.42 c 0.32,0.38 0.57,0.7 0.96,1.08 0.96,0.96 3.06,2.61 6.18,3.89 5.16,2.1 11.28,2.17 12.75,2.17 1.15,0 7.9,0.19 12.24,-3.06 2.68,-2.04 3.06,-4.84 3.06,-6.06 0,-2.61 -1.47,-4.52 -3.82,-5.54 -3.31,-1.47 -11.09,-1.91 -14.66,-2.23 -8.6,-0.7 -12.81,-1.15 -16.12,-4.21 -3.06,-2.8 -3.19,-5.99 -3.19,-7.52 0,-6.31 4.33,-9.18 6.25,-10.2 2.68,-1.47 7.58,-2.93 14.85,-2.93 8.92,0 14.28,2.17 17.53,4.27 0.76,0.51 1.4,0.96 2.04,1.53 1.47,1.21 2.55,2.8 2.93,3.25 l -5.86,2.36 c -0.32,-0.32 -1.47,-1.47 -2.74,-2.36 -2.49,-1.72 -6.76,-3.76 -13.83,-3.76 -4.59,0 -8.16,0.83 -9.82,1.47 -3.89,1.47 -4.97,4.14 -4.97,6.05 0,0.96 0.25,1.98 0.76,2.8 1.59,2.55 4.78,2.8 7.39,3.12 4.97,0.64 9.94,0.89 14.91,1.47 6.95,0.83 10.13,2.61 12.3,5.29 2.23,2.87 2.36,5.74 2.36,7.07 -0.01,3.83 -1.41,6.32 -2.3,7.53 z"
   id="path10"
   style="fill:#39556e" />

</g>
      <g
         id="g24">
	<path
   class="st0"
   d="m 29.65,114.41 v -1.98 c -0.31,0.31 -0.61,0.59 -0.96,0.84 -0.82,0.57 -2.69,1.47 -5.32,1.47 -3.87,0 -5.95,-2 -6.83,-3.2 -0.49,-0.65 -1.41,-2.16 -1.41,-4.36 0,-0.69 0.1,-2.39 1.18,-4.02 0.29,-0.43 0.57,-0.77 0.94,-1.12 0.98,-0.92 3.08,-2.36 6.48,-2.36 0.82,0 2.77,0.06 4.81,1.12 1.04,0.53 1.61,1.08 1.94,1.45 0.33,0.35 0.47,0.51 0.86,1.22 l -2,0.61 c -0.14,-0.2 -0.35,-0.55 -0.78,-0.96 -0.69,-0.63 -2.24,-1.69 -4.69,-1.69 -0.45,0 -1.57,0.04 -2.75,0.45 -2.34,0.82 -3.81,2.69 -3.81,5.22 0,1.28 0.47,2.75 1.3,3.75 1.69,2.06 4.44,2.18 5.2,2.18 2,0 4.24,-0.86 5.32,-2.63 0.39,-0.65 0.47,-1.14 0.57,-1.85 h -6.34 v -1.71 h 8.05 v 7.58 h -1.76 z"
   id="path14"
   style="fill:#7b7a7a" />

	<path
   class="st0"
   d="m 75.12,114.41 -4.87,-5.77 H 63.3 v 5.77 h -2.06 v -14.39 h 9.81 c 1.22,0 1.67,0.06 2.28,0.22 1.94,0.51 3.04,2.02 3.04,4 0,0.77 -0.16,2.79 -2.32,3.69 -0.37,0.14 -0.75,0.26 -1.57,0.39 l 5.32,6.1 h -2.68 z m -1.24,-11.5 c -0.61,-1.08 -1.57,-1.18 -2.69,-1.18 h -7.91 v 5.22 h 7.12 c 1.16,0 2.53,-0.04 3.32,-1.06 0.2,-0.24 0.53,-0.73 0.53,-1.57 0,-0.27 -0.03,-0.82 -0.37,-1.41 z"
   id="path16"
   style="fill:#7b7a7a" />

	<path
   class="st0"
   d="m 120.55,111.37 c -1.12,2.73 -4.32,3.38 -6.93,3.38 -0.69,0 -3.32,0.02 -5.36,-1.41 -0.86,-0.59 -1.24,-1.22 -1.45,-1.59 -0.57,-1.06 -0.61,-2.12 -0.61,-3.28 v -8.46 h 2.06 v 8.54 c 0,0.16 -0.02,0.77 0.08,1.35 0.2,1.33 0.88,1.79 1.39,2.12 0.71,0.45 1.9,0.96 3.91,0.96 0.26,0 2.69,0 4.08,-1.02 0.49,-0.37 0.77,-0.86 0.86,-1.04 0.33,-0.67 0.33,-1.35 0.33,-2.1 v -8.81 h 2.06 v 8.66 c -0.01,0.97 -0.03,1.78 -0.42,2.7 z"
   id="path18"
   style="fill:#7b7a7a" />

	<path
   class="st0"
   d="m 164.2,107.66 c -1.24,0.96 -2.59,0.98 -4.08,0.98 h -6.91 v 5.77 h -2.08 v -14.39 h 8.81 c 0.37,0 0.73,0.02 1.1,0.04 0.63,0.06 2.71,0.14 3.93,1.9 0.49,0.71 0.73,1.59 0.73,2.47 0.01,0.56 -0.09,2.17 -1.5,3.23 z m -1.22,-4.91 c -0.82,-1.02 -2.2,-1.02 -3.36,-1.02 h -6.42 v 5.2 h 6.65 c 1.12,0 2.34,-0.04 3.12,-1 0.22,-0.27 0.53,-0.77 0.53,-1.63 -0.01,-0.27 -0.03,-0.94 -0.52,-1.55 z"
   id="path20"
   style="fill:#7b7a7a" />

	<path
   class="st0"
   d="m 209.28,112.31 c -1,1.04 -3.2,2.49 -6.81,2.49 -0.37,0 -1.2,-0.02 -2.2,-0.18 -0.98,-0.14 -3.89,-0.67 -5.57,-3.36 -0.98,-1.59 -1.04,-3.22 -1.04,-3.87 0,-1.65 0.43,-3.3 1.45,-4.59 0.2,-0.26 0.47,-0.57 1.04,-1.04 0.98,-0.82 2.96,-2.08 6.2,-2.08 0.65,0 2.61,0.06 4.46,0.92 1.18,0.55 2.32,1.45 3.08,2.53 1.18,1.71 1.26,3.61 1.26,4.3 0.01,0.82 -0.11,3.06 -1.87,4.88 z m -0.71,-7.61 c -1.55,-3.32 -5.65,-3.3 -6.46,-3.28 -0.61,0.02 -3.2,0.16 -4.87,1.83 -0.29,0.29 -0.86,0.92 -1.2,1.94 -0.22,0.65 -0.33,1.41 -0.33,2.1 0,0.53 0.06,2.08 1.04,3.4 0.2,0.26 0.51,0.63 1.14,1.08 0.84,0.59 2.24,1.24 4.63,1.24 0.39,0 1.35,0 2.43,-0.29 2.02,-0.53 3.49,-1.88 3.98,-3.91 0.06,-0.29 0.18,-0.88 0.18,-1.61 -0.01,-1.21 -0.34,-2.07 -0.54,-2.5 z"
   id="path22"
   style="fill:#7b7a7a" />

</g>
      <g
         id="g938"
         transform="translate(-0.81000275,-17.950013)">
        <path
           class="st2"
           d="m 223.09,209.66 c -23.37,33.19 -61.98,54.87 -105.65,54.87 -43.67,0 -82.28,-21.68 -105.65,-54.87"
           id="path26"
           style="fill:none;stroke:#39556e;stroke-width:12;stroke-miterlimit:10" />
        <path
           class="st3"
           d="m 207.01,209.66 c -21.34,25.73 -53.56,42.12 -89.61,42.12 -36.05,0 -68.26,-16.38 -89.6,-42.12"
           id="path30"
           style="fill:none;stroke:#7b7a7a;stroke-width:6;stroke-miterlimit:10" />
      </g>
      <g
         id="g257"
         transform="translate(-0.49593452,-2.3)">
        <path
           class="st2"
           d="M 6.83,88.78 C 29.43,51.34 70.51,26.3 117.44,26.3 c 46.51,0 87.28,24.59 110.01,61.49"
           id="path28"
           style="fill:none;stroke:#39556e;stroke-width:12;stroke-miterlimit:10" />
        <path
           class="st3"
           d="M 22.19,88.51 C 43.25,58.6 78.05,39.05 117.41,39.05 c 39.36,0 74.16,19.54 95.22,49.46"
           id="path32"
           style="fill:none;stroke:#7b7a7a;stroke-width:6;stroke-miterlimit:10" />
      </g>
    </g>
  </g>
  <g
     inkscape:groupmode="layer"
     id="layer2"
     inkscape:label="layer 2"
     style="display:inline">
    <path
       d="m 0,0 c -1.439,1.8 -3.887,1.8 -5.938,1.8 h -11.339 v -9.179 h 11.734 c 1.98,0 4.14,0.072 5.508,1.764 C 0.36,-5.147 0.9,-4.248 0.9,-2.736 0.9,-2.268 0.864,-1.08 0,0 m 2.16,-8.675 c -2.195,-1.692 -4.571,-1.728 -7.199,-1.728 h -12.202 v -10.186 h -3.672 V 4.823 h 15.55 c 0.648,0 1.296,-0.035 1.944,-0.072 1.115,-0.107 4.787,-0.251 6.947,-3.347 0.864,-1.26 1.296,-2.808 1.296,-4.356 0,-1.007 -0.18,-3.851 -2.664,-5.723"
       style="display:inline;fill:#7b7a7a;fill-opacity:1;fill-rule:nonzero;stroke:none"
       id="path100"
       transform="matrix(0.06424548,0,0,-0.06424548,19.262301,5.5767311)" />
    <path
       d="m 0,0 c -0.611,0 -4.644,0.108 -5.795,-3.06 -0.252,-0.755 -0.288,-1.475 -0.288,-2.267 v -9.503 h -3.42 V 2.736 h 3.384 l 0.036,-1.98 c 0.252,0.252 0.432,0.468 0.972,0.828 0.9,0.612 2.987,1.656 5.795,1.656 1.008,0 1.584,-0.18 2.016,-0.288 V -0.396 C 2.052,-0.216 1.368,0 0,0"
       style="display:inline;fill:#7b7a7a;fill-opacity:1;fill-rule:nonzero;stroke:none"
       id="path104"
       transform="matrix(0.06424548,0,0,-0.06424548,20.395695,5.946734)" />
    <path
       d="m 0,0 c -2.052,3.384 -6.623,3.348 -7.415,3.348 -2.052,-0.036 -4.104,-0.54 -5.688,-1.908 -1.368,-1.152 -2.124,-2.808 -2.124,-4.644 0,-0.611 0.073,-1.979 1.044,-3.311 1.008,-1.368 3.204,-3.024 7.2,-3.024 1.727,0 3.42,0.396 4.931,1.368 0.865,0.54 2.88,2.088 2.88,5.111 0,0.504 -0.072,1.8 -0.828,3.06 m 3.023,-7.667 c -1.259,-2.052 -4.427,-4.715 -10.186,-4.715 -0.649,0 -2.735,0.036 -4.716,0.611 -1.583,0.469 -6.803,2.484 -6.803,8.352 0,0.899 0.109,2.843 1.369,4.859 2.878,4.536 8.71,4.715 10.042,4.715 0.828,0 3.851,-0.072 6.443,-1.295 0.396,-0.18 1.008,-0.468 1.8,-1.116 0.504,-0.396 1.08,-0.972 1.475,-1.44 0.685,-0.828 1.8,-2.628 1.8,-5.435 0,-0.72 -0.071,-2.664 -1.224,-4.536"
       style="display:inline;fill:#7b7a7a;fill-opacity:1;fill-rule:nonzero;stroke:none"
       id="path108"
       transform="matrix(0.06424548,0,0,-0.06424548,21.873533,6.138686)" />
    <path
       d="m 0,0 c -1.116,-1.512 -2.952,-2.484 -3.384,-2.7 -1.187,-0.54 -3.311,-1.296 -6.479,-1.296 -3.419,0 -7.271,0.792 -9.574,3.528 -1.945,2.303 -2.016,4.859 -2.016,5.975 0,1.836 0.395,3.347 1.475,4.86 0.18,0.216 0.541,0.719 1.081,1.259 1.439,1.368 4.319,3.06 9.142,3.06 0.936,0 4.283,-0.036 6.984,-1.728 0.431,-0.252 1.223,-0.756 2.051,-1.656 0.612,-0.683 0.9,-1.152 1.367,-1.944 L -2.628,8.423 c -0.468,0.792 -0.792,1.152 -1.08,1.439 -2.087,2.016 -5.291,2.124 -6.047,2.124 -0.828,0 -3.239,-0.108 -5.327,-1.511 -2.483,-1.692 -2.735,-4.14 -2.735,-5.256 0,-0.54 0.071,-1.872 0.863,-3.167 0.9,-1.405 3.132,-3.312 7.235,-3.312 0.648,0 3.78,0.072 5.94,1.836 0.611,0.504 0.899,0.936 1.331,1.584 L 0.828,1.295 C 0.54,0.864 0.288,0.396 0,0"
       style="display:inline;fill:#7b7a7a;fill-opacity:1;fill-rule:nonzero;stroke:none"
       id="path112"
       transform="matrix(0.06424548,0,0,-0.06424548,23.73301,6.6821071)" />
    <path
       d="m 0,0 c -0.288,0.18 -0.937,0.576 -1.872,0.864 -0.468,0.144 -1.189,0.288 -2.34,0.288 -2.664,0 -5.111,-0.972 -6.587,-3.312 -0.288,-0.432 -0.36,-0.54 -0.684,-1.332 H 2.591 C 1.835,-1.404 0.863,-0.576 0,0 m -11.591,-6.047 c 0.252,-1.692 0.576,-2.844 1.836,-4.032 0.863,-0.828 2.808,-2.159 5.867,-2.159 2.088,0 4.175,0.648 5.616,2.196 0.503,0.539 0.719,0.971 1.08,1.619 l 3.275,-0.9 c -0.252,-0.54 -0.54,-1.08 -0.9,-1.584 -1.116,-1.619 -2.915,-2.555 -3.455,-2.807 -0.972,-0.468 -3.168,-1.26 -6.083,-1.26 -5.688,0 -10.728,3.167 -10.763,9.467 0,0.54 0.071,1.836 0.611,3.276 1.764,4.643 6.444,5.543 7.883,5.759 0.396,0.072 1.188,0.18 2.196,0.18 1.512,0 5.904,-0.216 8.819,-3.924 0.54,-0.684 1.692,-2.196 1.98,-4.499 0.071,-0.468 0.071,-0.9 0.071,-1.332 z"
       style="display:inline;fill:#7b7a7a;fill-opacity:1;fill-rule:nonzero;stroke:none"
       id="path116"
       transform="matrix(0.06424548,0,0,-0.06424548,24.919547,5.972175)" />
    <path
       d="m 0,0 c -2.124,-3.78 -8.999,-3.528 -9.144,-3.528 -1.187,0 -7.918,0 -11.986,3.672 l 2.952,1.943 c 0.18,-0.144 1.008,-0.792 1.8,-1.223 2.772,-1.44 6.227,-1.512 7.055,-1.512 0.072,0 3.239,0 4.859,0.864 0.756,0.396 1.404,1.079 1.404,1.979 0,0.469 -0.18,1.152 -1.116,1.62 -1.548,0.828 -4.859,0.72 -9.142,1.188 -1.512,0.18 -3.204,0.468 -4.5,1.404 -1.079,0.792 -1.656,2.016 -1.656,3.384 0,1.943 1.116,3.455 2.808,4.319 2.447,1.26 6.587,1.26 6.947,1.26 2.736,0 5.615,-0.468 8.063,-1.764 1.188,-0.648 1.727,-1.08 2.16,-1.512 l -2.988,-1.656 c -2.879,1.98 -6.408,2.052 -7.487,2.052 -2.484,0 -4.032,-0.36 -4.967,-1.044 -0.648,-0.504 -0.756,-0.971 -0.756,-1.367 0,-0.325 0.143,-0.973 0.864,-1.369 1.224,-0.719 4.535,-0.827 8.242,-1.151 2.7,-0.216 3.996,-0.504 5.111,-1.224 1.369,-0.9 2.052,-2.34 2.052,-3.923 C 0.575,2.016 0.54,0.972 0,0"
       style="display:inline;fill:#7b7a7a;fill-opacity:1;fill-rule:nonzero;stroke:none"
       id="path120"
       transform="matrix(0.06424548,0,0,-0.06424548,26.836807,6.7144799)" />
    <path
       d="m 0,0 c -2.663,0 -4.247,-0.072 -5.363,-0.612 -0.396,-0.18 -1.476,-0.864 -1.476,-2.267 0,-1.728 1.584,-3.456 5.075,-3.456 0.936,0 2.052,0.18 2.268,0.216 0.72,0.108 3.888,0.648 5.292,3.24 0.647,1.223 0.611,2.375 0.647,2.879 z m 9.827,-8.495 c -2.988,0 -3.24,1.692 -3.384,2.988 -0.108,-0.18 -0.395,-0.648 -0.828,-1.044 -1.187,-1.152 -3.636,-2.412 -7.558,-2.412 -1.08,0 -2.161,0.144 -2.485,0.18 -1.763,0.288 -3.239,0.864 -4.463,2.232 -0.9,1.044 -1.368,2.267 -1.368,3.635 0,3.024 2.16,4.32 3.096,4.716 1.692,0.756 4.428,0.792 8.567,0.827 l 5.003,0.037 c 0,1.547 0.072,3.059 -1.548,3.923 -0.755,0.396 -2.195,0.72 -4.283,0.72 -1.656,0 -4.031,-0.144 -5.435,-1.26 C -5.184,5.795 -5.291,5.651 -5.651,5.003 l -3.455,0.324 c 0.036,0.144 0.359,1.08 0.792,1.728 0.323,0.468 0.971,1.26 2.267,1.8 1.151,0.468 3.348,0.936 6.443,0.936 0.504,0 2.988,-0.036 5.003,-0.54 C 5.867,9.143 7.703,8.747 8.747,7.343 9.611,6.191 9.611,5.003 9.611,3.671 v -6.407 c 0,-1.116 0,-1.8 0.144,-2.267 0.18,-0.54 0.612,-1.044 1.836,-1.044 0.324,0 0.612,0.036 1.26,0.108 v -2.376 c -1.008,-0.072 -2.016,-0.18 -3.024,-0.18"
       style="display:inline;fill:#7b7a7a;fill-opacity:1;fill-rule:nonzero;stroke:none"
       id="path124"
       transform="matrix(0.06424548,0,0,-0.06424548,27.729593,6.3653059)" />
    <path
       d="m 0,0 c -2.159,1.943 -5.291,1.908 -6.011,1.908 -1.152,0 -2.267,-0.217 -3.311,-0.648 -3.529,-1.512 -3.816,-4.68 -3.816,-5.976 0,-1.116 0.216,-2.123 0.791,-3.059 0.792,-1.332 2.773,-3.096 6.516,-3.096 2.304,0 5.147,0.72 6.551,2.664 0.468,0.648 1.08,1.908 1.08,3.815 C 1.8,-3.563 1.764,-1.584 0,0 m 1.62,-13.354 -0.036,2.303 c -0.36,-0.324 -0.756,-0.648 -1.152,-0.9 -1.116,-0.719 -3.383,-1.727 -6.695,-1.727 -1.08,0 -4.175,0.072 -6.803,2.015 -1.152,0.828 -3.636,3.168 -3.636,7.235 0,1.224 0.252,4.104 2.844,6.407 1.152,1.008 3.744,2.664 7.703,2.664 C -5.219,4.643 -2.483,4.535 0,3.204 0.576,2.879 0.756,2.808 1.62,2.16 v 9.898 h 3.419 v -25.412 z"
       style="display:inline;fill:#7b7a7a;fill-opacity:1;fill-rule:nonzero;stroke:none"
       id="path128"
       transform="matrix(0.06424548,0,0,-0.06424548,29.74862,6.0415339)" />
    <path
       d="m 0,0 c -2.052,3.384 -6.623,3.348 -7.415,3.348 -2.052,-0.036 -4.104,-0.54 -5.688,-1.908 -1.368,-1.152 -2.124,-2.808 -2.124,-4.644 0,-0.611 0.073,-1.979 1.044,-3.311 1.008,-1.368 3.204,-3.024 7.2,-3.024 1.727,0 3.42,0.396 4.931,1.368 0.865,0.54 2.88,2.088 2.88,5.111 0,0.504 -0.072,1.8 -0.828,3.06 m 3.023,-7.667 c -1.259,-2.052 -4.427,-4.715 -10.186,-4.715 -0.649,0 -2.735,0.036 -4.716,0.611 -1.583,0.469 -6.803,2.484 -6.803,8.352 0,0.899 0.109,2.843 1.369,4.859 2.878,4.536 8.71,4.715 10.042,4.715 0.828,0 3.851,-0.072 6.443,-1.295 0.396,-0.18 1.008,-0.468 1.8,-1.116 0.504,-0.396 1.08,-0.972 1.475,-1.44 0.685,-0.828 1.8,-2.628 1.8,-5.435 0,-0.72 -0.071,-2.664 -1.224,-4.536"
       style="display:inline;fill:#7b7a7a;fill-opacity:1;fill-rule:nonzero;stroke:none"
       id="path132"
       transform="matrix(0.06424548,0,0,-0.06424548,31.56186,6.138686)" />
    <path
       d="M 0,0 C -0.612,0 -4.644,0.108 -5.796,-3.06 -6.048,-3.815 -6.084,-4.535 -6.084,-5.327 V -14.83 H -9.503 V 2.736 h 3.384 l 0.035,-1.98 c 0.252,0.252 0.433,0.468 0.973,0.828 0.899,0.612 2.987,1.656 5.795,1.656 1.007,0 1.584,-0.18 2.015,-0.288 V -0.396 C 2.052,-0.216 1.367,0 0,0"
       style="display:inline;fill:#7b7a7a;fill-opacity:1;fill-rule:nonzero;stroke:none"
       id="path136"
       transform="matrix(0.06424548,0,0,-0.06424548,32.734528,5.946734)" />
    <path
       d="m 0,0 c -2.663,0 -4.247,-0.072 -5.363,-0.612 -0.396,-0.18 -1.476,-0.864 -1.476,-2.267 0,-1.728 1.584,-3.456 5.075,-3.456 0.936,0 2.052,0.18 2.268,0.216 0.72,0.108 3.888,0.648 5.292,3.24 0.647,1.223 0.611,2.375 0.647,2.879 z m 9.827,-8.495 c -2.988,0 -3.24,1.692 -3.384,2.988 -0.108,-0.18 -0.395,-0.648 -0.828,-1.044 -1.187,-1.152 -3.636,-2.412 -7.558,-2.412 -1.08,0 -2.161,0.144 -2.485,0.18 -1.763,0.288 -3.239,0.864 -4.463,2.232 -0.9,1.044 -1.368,2.267 -1.368,3.635 0,3.024 2.16,4.32 3.096,4.716 1.692,0.756 4.428,0.792 8.567,0.827 l 5.003,0.037 c 0,1.547 0.072,3.059 -1.548,3.923 -0.755,0.396 -2.195,0.72 -4.283,0.72 -1.656,0 -4.031,-0.144 -5.435,-1.26 C -5.184,5.795 -5.291,5.651 -5.651,5.003 l -3.455,0.324 c 0.036,0.144 0.359,1.08 0.792,1.728 0.323,0.468 0.971,1.26 2.267,1.8 1.151,0.468 3.348,0.936 6.443,0.936 0.504,0 2.988,-0.036 5.003,-0.54 C 5.867,9.143 7.703,8.747 8.747,7.343 9.611,6.191 9.611,5.003 9.611,3.671 v -6.407 c 0,-1.116 0,-1.8 0.144,-2.267 0.18,-0.54 0.612,-1.044 1.836,-1.044 0.324,0 0.612,0.036 1.26,0.108 v -2.376 c -1.008,-0.072 -2.016,-0.18 -3.024,-0.18"
       style="display:inline;fill:#7b7a7a;fill-opacity:1;fill-rule:nonzero;stroke:none"
       id="path140"
       transform="matrix(0.06424548,0,0,-0.06424548,33.657305,6.3653059)" />
    <path
       d="m 0,0 c -1.188,-2.339 -2.52,-4.463 -6.695,-4.427 -1.657,0.036 -3.6,0.36 -3.995,0.431 V -0.9 c 1.799,-0.396 2.735,-0.54 3.598,-0.54 2.124,0 3.061,0.828 4.248,3.024 l -8.927,17.709 h 3.888 L -1.008,5.111 6.119,19.293 h 3.816 z"
       style="display:inline;fill:#7b7a7a;fill-opacity:1;fill-rule:nonzero;stroke:none"
       id="path144"
       transform="matrix(0.06424548,0,0,-0.06424548,18.48301,9.449525)" />
    <path
       d="m 0,0 c -0.288,0.18 -0.937,0.576 -1.872,0.864 -0.468,0.144 -1.189,0.288 -2.34,0.288 -2.664,0 -5.111,-0.972 -6.587,-3.312 -0.288,-0.432 -0.36,-0.54 -0.684,-1.332 H 2.591 C 1.835,-1.404 0.863,-0.576 0,0 m -11.591,-6.047 c 0.252,-1.692 0.576,-2.844 1.836,-4.032 0.863,-0.828 2.808,-2.159 5.867,-2.159 2.088,0 4.175,0.648 5.616,2.196 0.503,0.539 0.719,0.971 1.08,1.619 l 3.275,-0.9 c -0.252,-0.54 -0.54,-1.08 -0.9,-1.584 -1.116,-1.619 -2.915,-2.555 -3.455,-2.807 -0.972,-0.468 -3.168,-1.26 -6.083,-1.26 -5.688,0 -10.728,3.167 -10.763,9.467 0,0.54 0.071,1.836 0.611,3.276 1.764,4.643 6.444,5.543 7.883,5.759 0.396,0.072 1.188,0.18 2.196,0.18 1.512,0 5.904,-0.216 8.819,-3.924 0.54,-0.684 1.692,-2.196 1.98,-4.499 0.071,-0.468 0.071,-0.9 0.071,-1.332 z"
       style="display:inline;fill:#7b7a7a;fill-opacity:1;fill-rule:nonzero;stroke:none"
       id="path148"
       transform="matrix(0.06424548,0,0,-0.06424548,20.96694,8.4135029)" />
    <path
       d="M 0,0 -6.371,7.091 -13.03,0 h -4.787 l 8.998,9.251 -7.991,8.315 h 4.751 l 5.616,-6.155 5.723,6.155 H 3.888 L -4.067,9.287 4.859,0 Z"
       style="display:inline;fill:#7b7a7a;fill-opacity:1;fill-rule:nonzero;stroke:none"
       id="path152"
       transform="matrix(0.06424548,0,0,-0.06424548,22.551182,9.3408291)" />
    <path
       d="m 0,0 c -1.295,1.476 -3.131,2.016 -3.707,2.16 -0.54,0.108 -1.116,0.215 -2.268,0.215 -0.828,0 -3.24,0 -5.255,-1.655 -2.124,-1.728 -2.16,-4.032 -2.16,-4.968 0,-1.619 0.432,-2.555 0.828,-3.167 1.332,-2.16 4.284,-3.096 6.731,-3.096 0.468,0 1.764,0.073 3.06,0.54 3.78,1.404 4.175,4.679 4.175,6.083 C 1.404,-3.167 1.296,-1.476 0,0 m 3.276,-9.647 c -1.152,-1.476 -3.635,-3.599 -8.207,-3.599 -3.708,0 -6.227,1.116 -7.415,1.979 -0.216,0.144 -0.432,0.36 -0.864,0.792 v -9.466 h -3.42 V 4.644 h 3.42 V 2.771 c 0.145,0.145 0.972,0.721 1.728,1.117 1.656,0.827 3.96,1.187 5.867,1.187 4.643,0 7.487,-2.052 8.676,-3.419 0.252,-0.288 0.647,-0.792 1.079,-1.548 0.684,-1.26 0.971,-2.628 0.971,-4.104 0,-0.935 -0.143,-3.455 -1.835,-5.651"
       style="display:inline;fill:#7b7a7a;fill-opacity:1;fill-rule:nonzero;stroke:none"
       id="path156"
       transform="matrix(0.06424548,0,0,-0.06424548,24.103051,8.5106301)" />
    <path
       d="m 0,0 c -2.052,3.384 -6.623,3.348 -7.415,3.348 -2.052,-0.036 -4.104,-0.54 -5.687,-1.908 -1.368,-1.152 -2.124,-2.808 -2.124,-4.644 0,-0.611 0.073,-1.979 1.044,-3.311 1.008,-1.368 3.203,-3.024 7.2,-3.024 1.727,0 3.419,0.396 4.93,1.368 0.865,0.54 2.88,2.088 2.88,5.111 0,0.504 -0.072,1.8 -0.828,3.06 m 3.024,-7.667 c -1.259,-2.052 -4.427,-4.715 -10.187,-4.715 -0.648,0 -2.735,0.036 -4.715,0.611 -1.584,0.469 -6.804,2.484 -6.804,8.352 0,0.899 0.109,2.843 1.369,4.859 2.879,4.536 8.71,4.715 10.042,4.715 0.829,0 3.852,-0.072 6.444,-1.295 0.395,-0.18 1.008,-0.468 1.8,-1.116 0.504,-0.396 1.079,-0.972 1.475,-1.44 0.684,-0.828 1.8,-2.628 1.8,-5.435 0,-0.72 -0.072,-2.664 -1.224,-4.536"
       style="display:inline;fill:#7b7a7a;fill-opacity:1;fill-rule:nonzero;stroke:none"
       id="path160"
       transform="matrix(0.06424548,0,0,-0.06424548,25.846897,8.580015)" />
    <path
       d="m 0,0 c -0.611,0 -4.644,0.108 -5.795,-3.06 -0.252,-0.755 -0.288,-1.475 -0.288,-2.267 v -9.503 h -3.42 V 2.736 h 3.384 l 0.036,-1.98 c 0.252,0.252 0.432,0.468 0.972,0.828 0.9,0.612 2.987,1.656 5.795,1.656 1.008,0 1.584,-0.18 2.016,-0.288 V -0.396 C 2.052,-0.216 1.368,0 0,0"
       style="display:inline;fill:#7b7a7a;fill-opacity:1;fill-rule:nonzero;stroke:none"
       id="path164"
       transform="matrix(0.06424548,0,0,-0.06424548,27.01957,8.3880619)" />
    <path
       d="m 0,0 v -9.395 c 0,-0.216 0,-0.756 0.071,-1.368 0.109,-0.936 0.54,-1.692 2.376,-1.692 1.08,0 2.16,0.217 2.484,0.252 l -0.036,-3.023 c -1.116,-0.144 -2.232,-0.252 -3.383,-0.252 -1.296,0 -2.844,0.144 -3.852,1.116 -0.864,0.863 -1.008,1.799 -1.008,3.995 V 0 h -2.988 v 2.34 h 3.06 V 8.423 H 0.107 V 2.34 H 5.003 V 0 Z"
       style="display:inline;fill:#7b7a7a;fill-opacity:1;fill-rule:nonzero;stroke:none"
       id="path168"
       transform="matrix(0.06424548,0,0,-0.06424548,27.616348,8.3626211)" />
    <path
       d="m 0,0 c -2.663,0 -4.247,-0.072 -5.363,-0.612 -0.396,-0.18 -1.476,-0.864 -1.476,-2.267 0,-1.728 1.584,-3.456 5.075,-3.456 0.936,0 2.052,0.18 2.268,0.216 0.72,0.108 3.888,0.648 5.292,3.24 0.647,1.223 0.611,2.375 0.647,2.879 z m 9.827,-8.495 c -2.988,0 -3.24,1.692 -3.384,2.988 -0.108,-0.18 -0.395,-0.648 -0.828,-1.044 -1.187,-1.152 -3.636,-2.412 -7.558,-2.412 -1.08,0 -2.161,0.144 -2.485,0.18 -1.763,0.288 -3.239,0.864 -4.463,2.232 -0.9,1.044 -1.368,2.267 -1.368,3.635 0,3.024 2.16,4.32 3.096,4.716 1.692,0.756 4.428,0.792 8.567,0.827 l 5.003,0.037 c 0,1.547 0.072,3.059 -1.548,3.923 -0.755,0.396 -2.195,0.72 -4.283,0.72 -1.656,0 -4.031,-0.144 -5.435,-1.26 C -5.184,5.795 -5.291,5.651 -5.651,5.003 l -3.455,0.324 c 0.036,0.144 0.359,1.08 0.792,1.728 0.323,0.468 0.971,1.26 2.267,1.8 1.151,0.468 3.348,0.936 6.443,0.936 0.504,0 2.988,-0.036 5.003,-0.54 C 5.867,9.143 7.703,8.747 8.747,7.343 9.611,6.191 9.611,5.003 9.611,3.671 v -6.407 c 0,-1.116 0,-1.8 0.144,-2.267 0.18,-0.54 0.612,-1.044 1.836,-1.044 0.324,0 0.612,0.036 1.26,0.108 v -2.376 c -1.008,-0.072 -2.016,-0.18 -3.024,-0.18"
       style="display:inline;fill:#7b7a7a;fill-opacity:1;fill-rule:nonzero;stroke:none"
       id="path172"
       transform="matrix(0.06424548,0,0,-0.06424548,28.712536,8.8066351)" />
    <path
       d="m 0,0 c -2.159,1.943 -5.291,1.908 -6.011,1.908 -1.152,0 -2.267,-0.217 -3.311,-0.648 -3.529,-1.512 -3.816,-4.68 -3.816,-5.976 0,-1.116 0.216,-2.123 0.791,-3.059 0.792,-1.332 2.773,-3.096 6.516,-3.096 2.304,0 5.147,0.72 6.551,2.664 0.468,0.648 1.08,1.908 1.08,3.815 C 1.8,-3.563 1.764,-1.584 0,0 m 1.62,-13.354 -0.036,2.303 c -0.36,-0.324 -0.756,-0.648 -1.152,-0.9 -1.116,-0.719 -3.383,-1.727 -6.695,-1.727 -1.08,0 -4.175,0.072 -6.803,2.015 -1.152,0.828 -3.636,3.168 -3.636,7.235 0,1.224 0.252,4.104 2.844,6.407 1.152,1.008 3.744,2.664 7.703,2.664 C -5.219,4.643 -2.483,4.535 0,3.204 0.576,2.879 0.756,2.808 1.62,2.16 v 9.898 h 3.419 v -25.412 z"
       style="display:inline;fill:#7b7a7a;fill-opacity:1;fill-rule:nonzero;stroke:none"
       id="path176"
       transform="matrix(0.06424548,0,0,-0.06424548,30.731563,8.4828629)" />
    <path
       d="m 0,0 c -2.052,3.384 -6.623,3.348 -7.415,3.348 -2.052,-0.036 -4.104,-0.54 -5.688,-1.908 -1.368,-1.152 -2.124,-2.808 -2.124,-4.644 0,-0.611 0.073,-1.979 1.044,-3.311 1.008,-1.368 3.204,-3.024 7.2,-3.024 1.727,0 3.42,0.396 4.931,1.368 0.865,0.54 2.88,2.088 2.88,5.111 0,0.504 -0.072,1.8 -0.828,3.06 m 3.023,-7.667 c -1.259,-2.052 -4.427,-4.715 -10.186,-4.715 -0.649,0 -2.735,0.036 -4.716,0.611 -1.583,0.469 -6.803,2.484 -6.803,8.352 0,0.899 0.109,2.843 1.369,4.859 2.878,4.536 8.71,4.715 10.042,4.715 0.828,0 3.851,-0.072 6.443,-1.295 0.396,-0.18 1.008,-0.468 1.8,-1.116 0.504,-0.396 1.08,-0.972 1.475,-1.44 0.685,-0.828 1.8,-2.628 1.8,-5.435 0,-0.72 -0.071,-2.664 -1.224,-4.536"
       style="display:inline;fill:#7b7a7a;fill-opacity:1;fill-rule:nonzero;stroke:none"
       id="path180"
       transform="matrix(0.06424548,0,0,-0.06424548,32.544803,8.580015)" />
    <path
       d="M 0,0 C -0.612,0 -4.644,0.108 -5.796,-3.06 -6.048,-3.815 -6.084,-4.535 -6.084,-5.327 V -14.83 H -9.503 V 2.736 h 3.384 l 0.035,-1.98 c 0.252,0.252 0.433,0.468 0.973,0.828 0.899,0.612 2.987,1.656 5.795,1.656 1.007,0 1.584,-0.18 2.015,-0.288 V -0.396 C 2.052,-0.216 1.367,0 0,0"
       style="display:inline;fill:#7b7a7a;fill-opacity:1;fill-rule:nonzero;stroke:none"
       id="path184"
       transform="matrix(0.06424548,0,0,-0.06424548,33.717476,8.3880619)" />
    <path
       d="m 0,0 c -2.663,0 -4.247,-0.072 -5.363,-0.612 -0.396,-0.18 -1.476,-0.864 -1.476,-2.267 0,-1.728 1.584,-3.456 5.075,-3.456 0.936,0 2.052,0.18 2.268,0.216 0.72,0.108 3.888,0.648 5.292,3.24 0.647,1.223 0.611,2.375 0.647,2.879 z m 9.827,-8.495 c -2.988,0 -3.24,1.692 -3.384,2.988 -0.108,-0.18 -0.395,-0.648 -0.828,-1.044 -1.187,-1.152 -3.636,-2.412 -7.558,-2.412 -1.08,0 -2.161,0.144 -2.485,0.18 -1.763,0.288 -3.239,0.864 -4.463,2.232 -0.9,1.044 -1.368,2.267 -1.368,3.635 0,3.024 2.16,4.32 3.096,4.716 1.692,0.756 4.428,0.792 8.567,0.827 l 5.003,0.037 c 0,1.547 0.072,3.059 -1.548,3.923 -0.755,0.396 -2.195,0.72 -4.283,0.72 -1.656,0 -4.031,-0.144 -5.435,-1.26 C -5.184,5.795 -5.291,5.651 -5.651,5.003 l -3.455,0.324 c 0.036,0.144 0.359,1.08 0.792,1.728 0.323,0.468 0.971,1.26 2.267,1.8 1.151,0.468 3.348,0.936 6.443,0.936 0.504,0 2.988,-0.036 5.003,-0.54 C 5.867,9.143 7.703,8.747 8.747,7.343 9.611,6.191 9.611,5.003 9.611,3.671 v -6.407 c 0,-1.116 0,-1.8 0.144,-2.267 0.18,-0.54 0.612,-1.044 1.836,-1.044 0.324,0 0.612,0.036 1.26,0.108 v -2.376 c -1.008,-0.072 -2.016,-0.18 -3.024,-0.18"
       style="display:inline;fill:#7b7a7a;fill-opacity:1;fill-rule:nonzero;stroke:none"
       id="path188"
       transform="matrix(0.06424548,0,0,-0.06424548,34.640247,8.8066351)" />
    <path
       d="m 0,0 c -2.16,1.943 -5.292,1.908 -6.012,1.908 -1.151,0 -2.267,-0.217 -3.311,-0.648 -3.528,-1.512 -3.816,-4.68 -3.816,-5.976 0,-1.116 0.216,-2.123 0.792,-3.059 0.792,-1.332 2.772,-3.096 6.515,-3.096 2.304,0 5.147,0.72 6.552,2.664 0.467,0.648 1.08,1.908 1.08,3.815 C 1.8,-3.563 1.764,-1.584 0,0 m 1.619,-13.354 -0.036,2.303 c -0.359,-0.324 -0.756,-0.648 -1.151,-0.9 -1.117,-0.719 -3.384,-1.727 -6.696,-1.727 -1.08,0 -4.175,0.072 -6.802,2.015 -1.153,0.828 -3.636,3.168 -3.636,7.235 0,1.224 0.252,4.104 2.844,6.407 1.151,1.008 3.743,2.664 7.703,2.664 C -5.22,4.643 -2.484,4.535 0,3.204 0.575,2.879 0.756,2.808 1.619,2.16 v 9.898 h 3.42 v -25.412 z"
       style="display:inline;fill:#7b7a7a;fill-opacity:1;fill-rule:nonzero;stroke:none"
       id="path192"
       transform="matrix(0.06424548,0,0,-0.06424548,37.429472,8.4828629)" />
    <path
       d="m 0,0 c -0.288,0.18 -0.937,0.576 -1.872,0.864 -0.468,0.144 -1.189,0.288 -2.34,0.288 -2.664,0 -5.111,-0.972 -6.587,-3.312 -0.288,-0.432 -0.36,-0.54 -0.684,-1.332 H 2.591 C 1.835,-1.404 0.863,-0.576 0,0 m -11.591,-6.047 c 0.252,-1.692 0.576,-2.844 1.836,-4.032 0.863,-0.828 2.808,-2.159 5.867,-2.159 2.088,0 4.175,0.648 5.616,2.196 0.503,0.539 0.719,0.971 1.08,1.619 l 3.275,-0.9 c -0.252,-0.54 -0.54,-1.08 -0.9,-1.584 -1.116,-1.619 -2.915,-2.555 -3.455,-2.807 -0.972,-0.468 -3.168,-1.26 -6.083,-1.26 -5.688,0 -10.728,3.167 -10.763,9.467 0,0.54 0.071,1.836 0.611,3.276 1.764,4.643 6.444,5.543 7.883,5.759 0.396,0.072 1.188,0.18 2.196,0.18 1.512,0 5.904,-0.216 8.819,-3.924 0.54,-0.684 1.692,-2.196 1.98,-4.499 0.071,-0.468 0.071,-0.9 0.071,-1.332 z"
       style="display:inline;fill:#7b7a7a;fill-opacity:1;fill-rule:nonzero;stroke:none"
       id="path196"
       transform="matrix(0.06424548,0,0,-0.06424548,39.011453,8.4135029)" />
    <path
       d="m 0,0 c -2.664,0 -4.248,-0.072 -5.363,-0.612 -0.397,-0.18 -1.477,-0.864 -1.477,-2.267 0,-1.728 1.584,-3.456 5.076,-3.456 0.936,0 2.052,0.18 2.268,0.216 0.72,0.108 3.888,0.648 5.291,3.24 0.648,1.223 0.612,2.375 0.648,2.879 z m 9.826,-8.495 c -2.987,0 -3.239,1.692 -3.383,2.988 -0.108,-0.18 -0.396,-0.648 -0.828,-1.044 -1.188,-1.152 -3.636,-2.412 -7.559,-2.412 -1.079,0 -2.16,0.144 -2.484,0.18 -1.763,0.288 -3.239,0.864 -4.464,2.232 -0.899,1.044 -1.367,2.267 -1.367,3.635 0,3.024 2.159,4.32 3.096,4.716 1.691,0.756 4.427,0.792 8.566,0.827 l 5.004,0.037 c 0,1.547 0.072,3.059 -1.548,3.923 -0.755,0.396 -2.196,0.72 -4.284,0.72 -1.655,0 -4.031,-0.144 -5.434,-1.26 C -5.184,5.795 -5.292,5.651 -5.651,5.003 l -3.456,0.324 c 0.036,0.144 0.36,1.08 0.792,1.728 0.324,0.468 0.971,1.26 2.267,1.8 1.152,0.468 3.348,0.936 6.444,0.936 0.503,0 2.987,-0.036 5.003,-0.54 C 5.867,9.143 7.703,8.747 8.747,7.343 9.61,6.191 9.61,5.003 9.61,3.671 v -6.407 c 0,-1.116 0,-1.8 0.145,-2.267 0.18,-0.54 0.611,-1.044 1.835,-1.044 0.324,0 0.612,0.036 1.26,0.108 v -2.376 c -1.008,-0.072 -2.016,-0.18 -3.024,-0.18"
       style="display:inline;fill:#7b7a7a;fill-opacity:1;fill-rule:nonzero;stroke:none"
       id="path200"
       transform="matrix(0.06424548,0,0,-0.06424548,41.049048,8.8066351)" />
    <path
       d="m 236.87869,101.80327 h 1.1938 v 8.96514 h -1.1938 z"
       style="display:inline;fill:#7b7a7a;fill-opacity:1;fill-rule:nonzero;stroke:none;stroke-width:0.352778"
       id="path202"
       clip-path="url(#clipPath6259)"
       transform="matrix(0.18211317,0,0,0.18211317,-1.0696999,-10.831519)" />
    <path
       d="m 240.05369,104.57116 h 1.2065 v 6.1969 h -1.2065 z m -0.0123,-2.26024 h 1.19345 v 1.2192 h -1.19345 z"
       style="display:inline;fill:#7b7a7a;fill-opacity:1;fill-rule:nonzero;stroke:none;stroke-width:0.352778"
       id="path204"
       clip-path="url(#clipPath6253)"
       transform="matrix(0.18211317,0,0,0.18211317,-1.0696999,-10.831519)" />
    <path
       d="m 0,0 v 8.891 c 0,1.152 0.036,2.339 -0.468,3.42 -0.576,1.259 -2.303,2.771 -5.579,2.771 -3.636,0 -5.796,-1.764 -6.479,-3.06 -0.361,-0.684 -0.504,-1.332 -0.504,-2.879 V 0 h -3.42 v 9.035 c 0,0.864 -0.036,1.764 -0.252,2.591 -0.972,3.42 -4.751,3.456 -5.579,3.456 -0.828,0 -3.203,-0.144 -5.255,-1.692 -0.252,-0.18 -0.901,-0.683 -1.368,-1.512 -0.504,-0.971 -0.504,-1.871 -0.504,-2.951 V 0 h -3.456 v 17.566 h 3.456 v -2.412 c 0.647,0.612 1.008,0.864 1.332,1.116 1.008,0.648 3.275,1.692 6.443,1.692 0.648,0 3.816,-0.036 5.939,-1.656 0.504,-0.396 0.756,-0.648 1.476,-1.548 0.432,0.468 0.864,0.864 1.404,1.26 1.187,0.828 3.491,1.98 7.127,1.98 3.275,0 7.271,-1.188 8.603,-4.536 C 3.312,12.455 3.42,11.59 3.42,9.467 V 0 Z"
       style="display:inline;fill:#7b7a7a;fill-opacity:1;fill-rule:nonzero;stroke:none"
       id="path208"
       transform="matrix(0.06424548,0,0,-0.06424548,45.336812,9.3408291)" />
    <path
       d="m 0,0 c -0.288,0.18 -0.936,0.576 -1.872,0.864 -0.468,0.144 -1.188,0.288 -2.34,0.288 -2.663,0 -5.111,-0.972 -6.587,-3.312 -0.288,-0.432 -0.359,-0.54 -0.683,-1.332 H 2.592 C 1.836,-1.404 0.864,-0.576 0,0 m -11.591,-6.047 c 0.252,-1.692 0.576,-2.844 1.836,-4.032 0.864,-0.828 2.808,-2.159 5.867,-2.159 2.088,0 4.176,0.648 5.616,2.196 0.503,0.539 0.719,0.971 1.08,1.619 l 3.275,-0.9 c -0.252,-0.54 -0.54,-1.08 -0.899,-1.584 -1.117,-1.619 -2.916,-2.555 -3.456,-2.807 -0.972,-0.468 -3.167,-1.26 -6.083,-1.26 -5.688,0 -10.727,3.167 -10.763,9.467 0,0.54 0.072,1.836 0.612,3.276 1.764,4.643 6.443,5.543 7.883,5.759 0.395,0.072 1.187,0.18 2.195,0.18 1.512,0 5.904,-0.216 8.82,-3.924 0.54,-0.684 1.691,-2.196 1.979,-4.499 0.072,-0.468 0.072,-0.9 0.072,-1.332 z"
       style="display:inline;fill:#7b7a7a;fill-opacity:1;fill-rule:nonzero;stroke:none"
       id="path212"
       transform="matrix(0.06424548,0,0,-0.06424548,46.819473,8.4135029)" />
    <path
       d="m 0,0 v 9.287 c 0,1.512 -0.144,2.16 -0.468,2.88 -0.647,1.511 -2.447,2.987 -6.047,2.987 -1.728,0 -2.7,-0.324 -3.42,-0.576 -0.54,-0.216 -2.555,-0.936 -3.383,-3.131 -0.396,-1.009 -0.432,-2.016 -0.432,-3.096 V 0 h -3.42 v 17.566 h 3.42 v -2.124 c 0.612,0.504 1.26,1.116 2.664,1.692 1.043,0.432 2.735,0.936 5.183,0.936 4.355,0 7.559,-1.764 8.711,-4.392 0.576,-1.367 0.576,-2.736 0.576,-4.175 L 3.384,0 Z"
       style="display:inline;fill:#7b7a7a;fill-opacity:1;fill-rule:nonzero;stroke:none"
       id="path216"
       transform="matrix(0.06424548,0,0,-0.06424548,48.621103,9.3408291)" />
    <path
       d="m 0,0 v -9.395 c 0,-0.216 0,-0.756 0.072,-1.368 0.108,-0.936 0.54,-1.692 2.375,-1.692 1.08,0 2.16,0.217 2.485,0.252 l -0.036,-3.023 c -1.117,-0.144 -2.232,-0.252 -3.384,-0.252 -1.296,0 -2.844,0.144 -3.852,1.116 -0.863,0.863 -1.008,1.799 -1.008,3.995 V 0 h -2.987 v 2.34 h 3.06 V 8.423 H 0.108 V 2.34 H 5.003 V 0 Z"
       style="display:inline;fill:#7b7a7a;fill-opacity:1;fill-rule:nonzero;stroke:none"
       id="path220"
       transform="matrix(0.06424548,0,0,-0.06424548,49.446889,8.3626211)" />
    <path
       d="m 0,0 c -2.052,3.384 -6.623,3.348 -7.415,3.348 -2.052,-0.036 -4.104,-0.54 -5.688,-1.908 -1.368,-1.152 -2.124,-2.808 -2.124,-4.644 0,-0.611 0.073,-1.979 1.044,-3.311 1.008,-1.368 3.204,-3.024 7.2,-3.024 1.727,0 3.42,0.396 4.931,1.368 0.865,0.54 2.88,2.088 2.88,5.111 0,0.504 -0.072,1.8 -0.828,3.06 m 3.023,-7.667 c -1.259,-2.052 -4.427,-4.715 -10.186,-4.715 -0.649,0 -2.735,0.036 -4.716,0.611 -1.583,0.469 -6.803,2.484 -6.803,8.352 0,0.899 0.109,2.843 1.369,4.859 2.878,4.536 8.71,4.715 10.042,4.715 0.828,0 3.851,-0.072 6.443,-1.295 0.396,-0.18 1.008,-0.468 1.8,-1.116 0.504,-0.396 1.08,-0.972 1.475,-1.44 0.685,-0.828 1.8,-2.628 1.8,-5.435 0,-0.72 -0.071,-2.664 -1.224,-4.536"
       style="display:inline;fill:#7b7a7a;fill-opacity:1;fill-rule:nonzero;stroke:none"
       id="path224"
       transform="matrix(0.06424548,0,0,-0.06424548,51.098132,8.580015)" />
    <path
       d="m 0,0 c -2.124,-3.78 -8.999,-3.528 -9.144,-3.528 -1.187,0 -7.918,0 -11.986,3.672 l 2.952,1.943 c 0.18,-0.144 1.008,-0.792 1.8,-1.223 2.772,-1.44 6.227,-1.512 7.055,-1.512 0.072,0 3.239,0 4.859,0.864 0.756,0.396 1.404,1.079 1.404,1.979 0,0.469 -0.18,1.152 -1.116,1.62 -1.548,0.828 -4.859,0.72 -9.142,1.188 -1.512,0.18 -3.204,0.468 -4.5,1.404 -1.079,0.792 -1.656,2.016 -1.656,3.384 0,1.943 1.116,3.455 2.808,4.319 2.447,1.26 6.587,1.26 6.947,1.26 2.736,0 5.615,-0.468 8.063,-1.764 1.188,-0.648 1.727,-1.08 2.16,-1.512 l -2.988,-1.656 c -2.879,1.98 -6.408,2.052 -7.487,2.052 -2.484,0 -4.032,-0.36 -4.967,-1.044 -0.648,-0.504 -0.756,-0.971 -0.756,-1.367 0,-0.325 0.143,-0.973 0.864,-1.369 1.224,-0.719 4.535,-0.827 8.242,-1.151 2.7,-0.216 3.996,-0.504 5.111,-1.224 1.369,-0.9 2.052,-2.34 2.052,-3.923 C 0.575,2.016 0.54,0.972 0,0"
       style="display:inline;fill:#7b7a7a;fill-opacity:1;fill-rule:nonzero;stroke:none"
       id="path228"
       transform="matrix(0.06424548,0,0,-0.06424548,52.879001,9.1558081)" />
  </g>
</svg>
